<ttFont>
<head>
    <!-- Most of this table will be recalculated by the compiler -->
    <tableVersion value="1.0"/>
    <fontRevision value="1.0"/>
    <checkSumAdjustment value="0x47b47f00"/>
    <magicNumber value="0x5f0f3cf5"/>
    <flags value="00000000 00011011"/>
    <unitsPerEm value="1000"/>
    <created value="Tue Jan  8 12:46:00 2013"/>
    <modified value="Thu Nov  6 12:31:47 2014"/>
    <xMin value="-64"/>
    <yMin value="-250"/>
    <xMax value="1194"/>
    <yMax value="1010"/>
    <macStyle value="00000000 00000000"/>
    <lowestRecPPEM value="9"/>
    <fontDirectionHint value="2"/>
    <indexToLocFormat value="0"/>
    <glyphDataFormat value="0"/>
  </head>
    <TTGlyph name=".notdef" xMin="70" yMin="0" xMax="534" yMax="650">
      <contour>
        <pt x="70" y="650" on="1"/>
        <pt x="534" y="650" on="1"/>
        <pt x="534" y="0" on="1"/>
        <pt x="70" y="0" on="1"/>
      </contour>
      <contour>
        <pt x="460" y="604" on="1"/>
        <pt x="144" y="604" on="1"/>
        <pt x="303" y="367" on="1"/>
      </contour>
      <contour>
        <pt x="488" y="88" on="1"/>
        <pt x="488" y="562" on="1"/>
        <pt x="330" y="325" on="1"/>
      </contour>
      <contour>
        <pt x="460" y="47" on="1"/>
        <pt x="303" y="283" on="1"/>
        <pt x="144" y="47" on="1"/>
      </contour>
      <contour>
        <pt x="117" y="88" on="1"/>
        <pt x="274" y="325" on="1"/>
        <pt x="117" y="562" on="1"/>
      </contour>
    </TTGlyph>
    <TTGlyph name="A" xMin="21" yMin="0" xMax="638" yMax="663">
      <contour>
        <pt x="593" y="0" on="1"/>
        <pt x="583" y="0" on="0"/>
        <pt x="579" y="8" on="1"/>
        <pt x="508" y="175" on="1"/>
        <pt x="148" y="175" on="1"/>
        <pt x="79" y="8" on="1"/>
        <pt x="77" y="3" on="0"/>
        <pt x="72" y="0" on="0"/>
        <pt x="66" y="0" on="1"/>
        <pt x="21" y="0" on="1"/>
        <pt x="298" y="663" on="1"/>
        <pt x="342" y="663" on="1"/>
        <pt x="349" y="663" on="0"/>
        <pt x="354" y="659" on="0"/>
        <pt x="356" y="654" on="1"/>
        <pt x="638" y="0" on="1"/>
      </contour>
      <contour>
        <pt x="489" y="218" on="1"/>
        <pt x="391" y="450" on="1"/>
        <pt x="372" y="495" on="0"/>
        <pt x="335" y="585" on="0"/>
        <pt x="325" y="613" on="1"/>
        <pt x="315" y="585" on="0"/>
        <pt x="281" y="497" on="0"/>
        <pt x="262" y="452" on="1"/>
        <pt x="166" y="218" on="1"/>
      </contour>
    </TTGlyph>
    <TTGlyph name="AE" xMin="11" yMin="0" xMax="869" yMax="663">
      <contour>
        <pt x="857" y="663" on="1"/>
        <pt x="857" y="620" on="1"/>
        <pt x="514" y="620" on="1"/>
        <pt x="514" y="368" on="1"/>
        <pt x="824" y="368" on="1"/>
        <pt x="824" y="325" on="1"/>
        <pt x="514" y="325" on="1"/>
        <pt x="514" y="43" on="1"/>
        <pt x="869" y="43" on="1"/>
        <pt x="869" y="0" on="1"/>
        <pt x="461" y="0" on="1"/>
        <pt x="461" y="176" on="1"/>
        <pt x="183" y="176" on="1"/>
        <pt x="76" y="11" on="1"/>
        <pt x="71" y="3" on="0"/>
        <pt x="64" y="0" on="0"/>
        <pt x="56" y="0" on="1"/>
        <pt x="11" y="0" on="1"/>
        <pt x="443" y="663" on="1"/>
      </contour>
      <contour>
        <pt x="208" y="218" on="1"/>
        <pt x="461" y="218" on="1"/>
        <pt x="461" y="607" on="1"/>
      </contour>
    </TTGlyph>
    <TTGlyph name="AEacute" xMin="11" yMin="0" xMax="869" yMax="889">
      <component glyphName="AE" x="0" y="0" flags="0x204"/>
      <component glyphName="acute.cap" x="396" y="0" flags="0x4"/>
    </TTGlyph>
    <TTGlyph name="Aacute" xMin="21" yMin="0" xMax="638" yMax="889">
      <component glyphName="A" x="0" y="0" flags="0x204"/>
      <component glyphName="acute.cap" x="146" y="0" flags="0x4"/>
    </TTGlyph>
    <TTGlyph name="Abreve" xMin="21" yMin="0" xMax="638" yMax="851">
      <component glyphName="A" x="0" y="0" flags="0x204"/>
      <component glyphName="breve.cap" x="133" y="0" flags="0x4"/>
    </TTGlyph>
    <TTGlyph name="Acaron" xMin="21" yMin="0" xMax="638" yMax="879">
      <component glyphName="A" x="0" y="0" flags="0x204"/>
      <component glyphName="caron.cap" x="135" y="0" flags="0x4"/>
    </TTGlyph>
    <TTGlyph name="Acircumflex" xMin="21" yMin="0" xMax="638" yMax="869">
      <component glyphName="A" x="0" y="0" flags="0x204"/>
      <component glyphName="circumflex.cap" x="135" y="0" flags="0x4"/>
    </TTGlyph>
    <TTGlyph name="Adieresis" xMin="21" yMin="0" xMax="638" yMax="826">
      <component glyphName="A" x="0" y="0" flags="0x204"/>
      <component glyphName="dieresis.cap" x="133" y="0" flags="0x4"/>
    </TTGlyph>
    <TTGlyph name="Agrave" xMin="21" yMin="0" xMax="638" yMax="890">
      <component glyphName="A" x="0" y="0" flags="0x204"/>
      <component glyphName="grave.cap" x="126" y="0" flags="0x4"/>
    </TTGlyph>
    <TTGlyph name="Amacron" xMin="21" yMin="0" xMax="638" yMax="788">
      <component glyphName="A" x="0" y="0" flags="0x204"/>
      <component glyphName="macron.cap" x="134" y="0" flags="0x4"/>
    </TTGlyph>
    <TTGlyph name="Aogonek" xMin="21" yMin="-180" xMax="639" yMax="663">
      <contour>
        <pt x="489" y="218" on="1"/>
        <pt x="391" y="450" on="1"/>
        <pt x="372" y="495" on="0"/>
        <pt x="335" y="585" on="0"/>
        <pt x="325" y="613" on="1"/>
        <pt x="315" y="585" on="0"/>
        <pt x="281" y="497" on="0"/>
        <pt x="262" y="452" on="1"/>
        <pt x="166" y="218" on="1"/>
      </contour>
      <contour>
        <pt x="508" y="175" on="1"/>
        <pt x="148" y="175" on="1"/>
        <pt x="79" y="8" on="1"/>
        <pt x="77" y="3" on="0"/>
        <pt x="72" y="0" on="0"/>
        <pt x="66" y="0" on="1"/>
        <pt x="21" y="0" on="1"/>
        <pt x="298" y="663" on="1"/>
        <pt x="342" y="663" on="1"/>
        <pt x="349" y="663" on="0"/>
        <pt x="354" y="659" on="0"/>
        <pt x="356" y="654" on="1"/>
        <pt x="638" y="0" on="1"/>
        <pt x="625" y="0" on="1"/>
        <pt x="599" y="0" on="0"/>
        <pt x="557" y="-19" on="0"/>
        <pt x="542" y="-34" on="1"/>
        <pt x="529" y="-48" on="0"/>
        <pt x="514" y="-79" on="0"/>
        <pt x="514" y="-96" on="1"/>
        <pt x="514" y="-116" on="0"/>
        <pt x="540" y="-142" on="0"/>
        <pt x="569" y="-142" on="1"/>
        <pt x="580" y="-142" on="0"/>
        <pt x="616" y="-137" on="0"/>
        <pt x="630" y="-133" on="1"/>
        <pt x="639" y="-158" on="1"/>
        <pt x="625" y="-167" on="0"/>
        <pt x="581" y="-180" on="0"/>
        <pt x="559" y="-180" on="1"/>
        <pt x="517" y="-180" on="0"/>
        <pt x="464" y="-137" on="0"/>
        <pt x="464" y="-102" on="1"/>
        <pt x="464" y="-63" on="0"/>
        <pt x="526" y="1" on="0"/>
        <pt x="574" y="19" on="1"/>
      </contour>
    </TTGlyph>
    <TTGlyph name="Aring" xMin="21" yMin="0" xMax="638" yMax="842">
      <contour>
        <pt x="593" y="0" on="1"/>
        <pt x="583" y="0" on="0"/>
        <pt x="579" y="8" on="1"/>
        <pt x="508" y="175" on="1"/>
        <pt x="148" y="175" on="1"/>
        <pt x="79" y="8" on="1"/>
        <pt x="77" y="3" on="0"/>
        <pt x="72" y="0" on="0"/>
        <pt x="66" y="0" on="1"/>
        <pt x="21" y="0" on="1"/>
        <pt x="294" y="654" on="1"/>
        <pt x="266" y="664" on="0"/>
        <pt x="228" y="712" on="0"/>
        <pt x="228" y="746" on="1"/>
        <pt x="228" y="768" on="0"/>
        <pt x="245" y="804" on="0"/>
        <pt x="272" y="829" on="0"/>
        <pt x="307" y="842" on="0"/>
        <pt x="326" y="842" on="1"/>
        <pt x="345" y="842" on="0"/>
        <pt x="381" y="829" on="0"/>
        <pt x="408" y="804" on="0"/>
        <pt x="424" y="768" on="0"/>
        <pt x="424" y="746" on="1"/>
        <pt x="424" y="711" on="0"/>
        <pt x="383" y="663" on="0"/>
        <pt x="355" y="655" on="1"/>
        <pt x="355" y="654" on="0"/>
        <pt x="356" y="654" on="1"/>
        <pt x="638" y="0" on="1"/>
      </contour>
      <contour>
        <pt x="489" y="218" on="1"/>
        <pt x="391" y="450" on="1"/>
        <pt x="372" y="495" on="0"/>
        <pt x="335" y="585" on="0"/>
        <pt x="325" y="613" on="1"/>
        <pt x="315" y="585" on="0"/>
        <pt x="281" y="497" on="0"/>
        <pt x="262" y="452" on="1"/>
        <pt x="166" y="218" on="1"/>
      </contour>
      <contour>
        <pt x="268" y="746" on="1"/>
        <pt x="268" y="720" on="0"/>
        <pt x="298" y="688" on="0"/>
        <pt x="326" y="688" on="1"/>
        <pt x="354" y="688" on="0"/>
        <pt x="384" y="720" on="0"/>
        <pt x="384" y="746" on="1"/>
        <pt x="384" y="773" on="0"/>
        <pt x="354" y="804" on="0"/>
        <pt x="326" y="804" on="1"/>
        <pt x="298" y="804" on="0"/>
        <pt x="268" y="773" on="0"/>
      </contour>
    </TTGlyph>
    <TTGlyph name="Aringacute" xMin="21" yMin="0" xMax="638" yMax="1010">
      <component glyphName="Aring" x="0" y="0" flags="0x204"/>
      <component glyphName="acute.cap" x="131" y="121" flags="0x4"/>
    </TTGlyph>
    <TTGlyph name="Atilde" xMin="21" yMin="0" xMax="638" yMax="831">
      <component glyphName="A" x="0" y="0" flags="0x204"/>
      <component glyphName="tilde.cap" x="134" y="0" flags="0x4"/>
    </TTGlyph>
    <TTGlyph name="B" xMin="84" yMin="0" xMax="551" yMax="663">
      <contour>
        <pt x="84" y="663" on="1"/>
        <pt x="304" y="663" on="1"/>
        <pt x="355" y="663" on="0"/>
        <pt x="439" y="644" on="0"/>
        <pt x="466" y="616" on="1"/>
        <pt x="483" y="599" on="0"/>
        <pt x="501" y="550" on="0"/>
        <pt x="501" y="517" on="1"/>
        <pt x="501" y="472" on="0"/>
        <pt x="463" y="383" on="0"/>
        <pt x="429" y="351" on="1"/>
        <pt x="481" y="334" on="0"/>
        <pt x="551" y="257" on="0"/>
        <pt x="551" y="189" on="1"/>
        <pt x="551" y="144" on="0"/>
        <pt x="524" y="78" on="0"/>
        <pt x="499" y="55" on="1"/>
        <pt x="470" y="27" on="0"/>
        <pt x="382" y="0" on="0"/>
        <pt x="325" y="0" on="1"/>
        <pt x="84" y="0" on="1"/>
      </contour>
      <contour>
        <pt x="137" y="44" on="1"/>
        <pt x="318" y="44" on="1"/>
        <pt x="366" y="44" on="0"/>
        <pt x="437" y="63" on="0"/>
        <pt x="461" y="86" on="1"/>
        <pt x="478" y="103" on="0"/>
        <pt x="498" y="154" on="0"/>
        <pt x="498" y="190" on="1"/>
        <pt x="498" y="222" on="0"/>
        <pt x="481" y="267" on="0"/>
        <pt x="465" y="283" on="1"/>
        <pt x="444" y="304" on="0"/>
        <pt x="375" y="323" on="0"/>
        <pt x="321" y="323" on="1"/>
        <pt x="137" y="323" on="1"/>
      </contour>
      <contour>
        <pt x="137" y="365" on="1"/>
        <pt x="362" y="365" on="1"/>
        <pt x="380" y="365" on="0"/>
        <pt x="400" y="372" on="0"/>
        <pt x="410" y="384" on="1"/>
        <pt x="428" y="407" on="0"/>
        <pt x="451" y="471" on="0"/>
        <pt x="451" y="507" on="1"/>
        <pt x="451" y="539" on="0"/>
        <pt x="435" y="580" on="0"/>
        <pt x="420" y="593" on="1"/>
        <pt x="401" y="609" on="0"/>
        <pt x="342" y="619" on="0"/>
        <pt x="300" y="619" on="1"/>
        <pt x="137" y="619" on="1"/>
      </contour>
    </TTGlyph>
    <TTGlyph name="C" xMin="42" yMin="-10" xMax="622" yMax="673">
      <contour>
        <pt x="622" y="100" on="1"/>
        <pt x="565" y="50" on="0"/>
        <pt x="423" y="-10" on="0"/>
        <pt x="349" y="-10" on="1"/>
        <pt x="282" y="-10" on="0"/>
        <pt x="169" y="40" on="0"/>
        <pt x="88" y="131" on="0"/>
        <pt x="42" y="256" on="0"/>
        <pt x="42" y="331" on="1"/>
        <pt x="42" y="403" on="0"/>
        <pt x="90" y="528" on="0"/>
        <pt x="174" y="620" on="0"/>
        <pt x="288" y="673" on="0"/>
        <pt x="354" y="673" on="1"/>
        <pt x="441" y="673" on="0"/>
        <pt x="574" y="584" on="0"/>
        <pt x="615" y="506" on="1"/>
        <pt x="583" y="487" on="1"/>
        <pt x="532" y="539" on="1"/>
        <pt x="494" y="579" on="0"/>
        <pt x="409" y="625" on="0"/>
        <pt x="355" y="625" on="1"/>
        <pt x="298" y="625" on="0"/>
        <pt x="202" y="581" on="0"/>
        <pt x="134" y="503" on="0"/>
        <pt x="96" y="396" on="0"/>
        <pt x="96" y="332" on="1"/>
        <pt x="96" y="267" on="0"/>
        <pt x="131" y="160" on="0"/>
        <pt x="199" y="83" on="0"/>
        <pt x="297" y="40" on="0"/>
        <pt x="359" y="40" on="1"/>
        <pt x="403" y="40" on="0"/>
        <pt x="492" y="68" on="0"/>
        <pt x="534" y="91" on="1"/>
        <pt x="601" y="127" on="1"/>
      </contour>
    </TTGlyph>
    <TTGlyph name="Cacute" xMin="42" yMin="-10" xMax="622" yMax="889">
      <component glyphName="C" x="0" y="0" flags="0x204"/>
      <component glyphName="acute.cap" x="171" y="0" flags="0x4"/>
    </TTGlyph>
    <TTGlyph name="Ccaron" xMin="42" yMin="-10" xMax="622" yMax="877">
      <component glyphName="C" x="0" y="0" flags="0x204"/>
      <component glyphName="caron.cap" x="167" y="-2" flags="0x4"/>
    </TTGlyph>
    <TTGlyph name="Ccedilla" xMin="42" yMin="-209" xMax="622" yMax="673">
      <contour>
        <pt x="622" y="100" on="1"/>
        <pt x="566" y="51" on="0"/>
        <pt x="426" y="-8" on="0"/>
        <pt x="353" y="-10" on="1"/>
        <pt x="349" y="-19" on="0"/>
        <pt x="349" y="-29" on="1"/>
        <pt x="349" y="-41" on="0"/>
        <pt x="385" y="-57" on="0"/>
        <pt x="429" y="-75" on="0"/>
        <pt x="465" y="-102" on="0"/>
        <pt x="465" y="-126" on="1"/>
        <pt x="465" y="-160" on="0"/>
        <pt x="388" y="-205" on="0"/>
        <pt x="306" y="-209" on="1"/>
        <pt x="299" y="-178" on="1"/>
        <pt x="365" y="-164" on="1"/>
        <pt x="415" y="-153" on="0"/>
        <pt x="415" y="-132" on="1"/>
        <pt x="415" y="-119" on="0"/>
        <pt x="380" y="-103" on="0"/>
        <pt x="338" y="-86" on="0"/>
        <pt x="303" y="-65" on="0"/>
        <pt x="303" y="-47" on="1"/>
        <pt x="303" y="-28" on="0"/>
        <pt x="318" y="-8" on="1"/>
        <pt x="257" y="-2" on="0"/>
        <pt x="155" y="52" on="0"/>
        <pt x="82" y="141" on="0"/>
        <pt x="42" y="260" on="0"/>
        <pt x="42" y="331" on="1"/>
        <pt x="42" y="403" on="0"/>
        <pt x="90" y="528" on="0"/>
        <pt x="174" y="620" on="0"/>
        <pt x="288" y="673" on="0"/>
        <pt x="354" y="673" on="1"/>
        <pt x="441" y="673" on="0"/>
        <pt x="574" y="584" on="0"/>
        <pt x="615" y="506" on="1"/>
        <pt x="583" y="487" on="1"/>
        <pt x="532" y="539" on="1"/>
        <pt x="494" y="579" on="0"/>
        <pt x="409" y="625" on="0"/>
        <pt x="355" y="625" on="1"/>
        <pt x="298" y="625" on="0"/>
        <pt x="202" y="581" on="0"/>
        <pt x="134" y="503" on="0"/>
        <pt x="96" y="396" on="0"/>
        <pt x="96" y="332" on="1"/>
        <pt x="96" y="267" on="0"/>
        <pt x="131" y="160" on="0"/>
        <pt x="199" y="83" on="0"/>
        <pt x="297" y="40" on="0"/>
        <pt x="359" y="40" on="1"/>
        <pt x="403" y="40" on="0"/>
        <pt x="492" y="68" on="0"/>
        <pt x="534" y="91" on="1"/>
        <pt x="601" y="127" on="1"/>
      </contour>
    </TTGlyph>
    <TTGlyph name="Ccircumflex" xMin="42" yMin="-10" xMax="622" yMax="869">
      <component glyphName="C" x="0" y="0" flags="0x204"/>
      <component glyphName="circumflex.cap" x="166" y="0" flags="0x4"/>
    </TTGlyph>
    <TTGlyph name="Cdotaccent" xMin="42" yMin="-10" xMax="622" yMax="818">
      <component glyphName="C" x="0" y="0" flags="0x204"/>
      <component glyphName="dotaccent.cap" x="161" y="0" flags="0x4"/>
    </TTGlyph>
    <TTGlyph name="D" xMin="84" yMin="0" xMax="649" yMax="663">
      <contour>
        <pt x="258" y="44" on="1"/>
        <pt x="341" y="44" on="0"/>
        <pt x="462" y="71" on="0"/>
        <pt x="505" y="103" on="1"/>
        <pt x="550" y="137" on="0"/>
        <pt x="595" y="250" on="0"/>
        <pt x="595" y="332" on="1"/>
        <pt x="595" y="414" on="0"/>
        <pt x="550" y="526" on="0"/>
        <pt x="505" y="560" on="1"/>
        <pt x="462" y="592" on="0"/>
        <pt x="341" y="619" on="0"/>
        <pt x="258" y="619" on="1"/>
        <pt x="137" y="619" on="1"/>
        <pt x="137" y="44" on="1"/>
      </contour>
      <contour>
        <pt x="84" y="0" on="1"/>
        <pt x="84" y="663" on="1"/>
        <pt x="271" y="663" on="1"/>
        <pt x="352" y="663" on="0"/>
        <pt x="484" y="633" on="0"/>
        <pt x="533" y="598" on="1"/>
        <pt x="588" y="559" on="0"/>
        <pt x="649" y="429" on="0"/>
        <pt x="649" y="332" on="1"/>
        <pt x="649" y="235" on="0"/>
        <pt x="588" y="104" on="0"/>
        <pt x="533" y="65" on="1"/>
        <pt x="484" y="30" on="0"/>
        <pt x="352" y="0" on="0"/>
        <pt x="271" y="0" on="1"/>
      </contour>
    </TTGlyph>
    <TTGlyph name="Dcaron" xMin="84" yMin="0" xMax="649" yMax="879">
      <component glyphName="D" x="0" y="0" flags="0x204"/>
      <component glyphName="caron.cap" x="149" y="0" flags="0x4"/>
    </TTGlyph>
    <TTGlyph name="Dcroat" xMin="10" yMin="0" xMax="668" yMax="663">
      <contour>
        <pt x="103" y="0" on="1"/>
        <pt x="103" y="320" on="1"/>
        <pt x="10" y="320" on="1"/>
        <pt x="10" y="361" on="1"/>
        <pt x="103" y="361" on="1"/>
        <pt x="103" y="663" on="1"/>
        <pt x="290" y="663" on="1"/>
        <pt x="371" y="663" on="0"/>
        <pt x="503" y="633" on="0"/>
        <pt x="552" y="598" on="1"/>
        <pt x="607" y="559" on="0"/>
        <pt x="668" y="429" on="0"/>
        <pt x="668" y="332" on="1"/>
        <pt x="668" y="235" on="0"/>
        <pt x="607" y="104" on="0"/>
        <pt x="552" y="65" on="1"/>
        <pt x="503" y="30" on="0"/>
        <pt x="371" y="0" on="0"/>
        <pt x="290" y="0" on="1"/>
      </contour>
      <contour>
        <pt x="277" y="44" on="1"/>
        <pt x="360" y="44" on="0"/>
        <pt x="481" y="71" on="0"/>
        <pt x="524" y="103" on="1"/>
        <pt x="569" y="137" on="0"/>
        <pt x="614" y="250" on="0"/>
        <pt x="614" y="332" on="1"/>
        <pt x="614" y="414" on="0"/>
        <pt x="569" y="526" on="0"/>
        <pt x="524" y="560" on="1"/>
        <pt x="481" y="592" on="0"/>
        <pt x="360" y="619" on="0"/>
        <pt x="277" y="619" on="1"/>
        <pt x="156" y="619" on="1"/>
        <pt x="156" y="361" on="1"/>
        <pt x="325" y="361" on="1"/>
        <pt x="325" y="320" on="1"/>
        <pt x="156" y="320" on="1"/>
        <pt x="156" y="44" on="1"/>
      </contour>
    </TTGlyph>
    <TTGlyph name="Delta" xMin="51" yMin="0" xMax="618" yMax="663">
      <contour>
        <pt x="612" y="62" on="1"/>
        <pt x="615" y="54" on="0"/>
        <pt x="618" y="42" on="0"/>
        <pt x="618" y="31" on="1"/>
        <pt x="618" y="0" on="1"/>
        <pt x="51" y="0" on="1"/>
        <pt x="51" y="31" on="1"/>
        <pt x="51" y="39" on="0"/>
        <pt x="53" y="51" on="0"/>
        <pt x="57" y="61" on="1"/>
        <pt x="307" y="663" on="1"/>
        <pt x="346" y="663" on="1"/>
        <pt x="353" y="663" on="0"/>
        <pt x="358" y="659" on="0"/>
        <pt x="360" y="654" on="1"/>
      </contour>
      <contour>
        <pt x="103" y="45" on="1"/>
        <pt x="569" y="45" on="1"/>
        <pt x="332" y="601" on="1"/>
      </contour>
    </TTGlyph>
    <TTGlyph name="E" xMin="84" yMin="0" xMax="492" yMax="663">
      <contour>
        <pt x="480" y="663" on="1"/>
        <pt x="480" y="620" on="1"/>
        <pt x="137" y="620" on="1"/>
        <pt x="137" y="368" on="1"/>
        <pt x="447" y="368" on="1"/>
        <pt x="447" y="325" on="1"/>
        <pt x="137" y="325" on="1"/>
        <pt x="137" y="43" on="1"/>
        <pt x="492" y="43" on="1"/>
        <pt x="492" y="0" on="1"/>
        <pt x="84" y="0" on="1"/>
        <pt x="84" y="663" on="1"/>
      </contour>
    </TTGlyph>
    <TTGlyph name="Eacute" xMin="84" yMin="0" xMax="492" yMax="889">
      <component glyphName="E" x="0" y="0" flags="0x204"/>
      <component glyphName="acute.cap" x="103" y="0" flags="0x4"/>
    </TTGlyph>
    <TTGlyph name="Ebreve" xMin="84" yMin="0" xMax="492" yMax="851">
      <component glyphName="E" x="0" y="0" flags="0x204"/>
      <component glyphName="breve.cap" x="95" y="0" flags="0x4"/>
    </TTGlyph>
    <TTGlyph name="Ecaron" xMin="84" yMin="0" xMax="492" yMax="879">
      <component glyphName="E" x="0" y="0" flags="0x204"/>
      <component glyphName="caron.cap" x="100" y="0" flags="0x4"/>
    </TTGlyph>
    <TTGlyph name="Ecircumflex" xMin="84" yMin="0" xMax="492" yMax="869">
      <component glyphName="E" x="0" y="0" flags="0x204"/>
      <component glyphName="circumflex.cap" x="98" y="0" flags="0x4"/>
    </TTGlyph>
    <TTGlyph name="Edieresis" xMin="84" yMin="0" xMax="492" yMax="826">
      <component glyphName="E" x="0" y="0" flags="0x204"/>
      <component glyphName="dieresis.cap" x="91" y="0" flags="0x4"/>
    </TTGlyph>
    <TTGlyph name="Edotaccent" xMin="84" yMin="0" xMax="492" yMax="818">
      <component glyphName="E" x="0" y="0" flags="0x204"/>
      <component glyphName="dotaccent.cap" x="98" y="0" flags="0x4"/>
    </TTGlyph>
    <TTGlyph name="Egrave" xMin="84" yMin="0" xMax="492" yMax="890">
      <component glyphName="E" x="0" y="0" flags="0x204"/>
      <component glyphName="grave.cap" x="92" y="0" flags="0x4"/>
    </TTGlyph>
    <TTGlyph name="Emacron" xMin="84" yMin="0" xMax="492" yMax="788">
      <component glyphName="E" x="0" y="0" flags="0x204"/>
      <component glyphName="macron.cap" x="90" y="0" flags="0x4"/>
    </TTGlyph>
    <TTGlyph name="Eng" xMin="84" yMin="-198" xMax="644" yMax="663">
      <contour>
        <pt x="566" y="-127" on="1"/>
        <pt x="581" y="-111" on="0"/>
        <pt x="594" y="-56" on="0"/>
        <pt x="594" y="-15" on="1"/>
        <pt x="594" y="10" on="1"/>
        <pt x="200" y="495" on="1"/>
        <pt x="183" y="515" on="0"/>
        <pt x="146" y="563" on="0"/>
        <pt x="132" y="584" on="1"/>
        <pt x="134" y="557" on="0"/>
        <pt x="135" y="497" on="0"/>
        <pt x="135" y="477" on="1"/>
        <pt x="135" y="0" on="1"/>
        <pt x="84" y="0" on="1"/>
        <pt x="84" y="663" on="1"/>
        <pt x="113" y="663" on="1"/>
        <pt x="121" y="663" on="0"/>
        <pt x="127" y="660" on="0"/>
        <pt x="132" y="654" on="1"/>
        <pt x="529" y="166" on="1"/>
        <pt x="545" y="146" on="0"/>
        <pt x="583" y="98" on="0"/>
        <pt x="597" y="77" on="1"/>
        <pt x="595" y="104" on="0"/>
        <pt x="594" y="164" on="0"/>
        <pt x="594" y="184" on="1"/>
        <pt x="594" y="663" on="1"/>
        <pt x="644" y="663" on="1"/>
        <pt x="644" y="-19" on="1"/>
        <pt x="644" y="-64" on="0"/>
        <pt x="622" y="-138" on="0"/>
        <pt x="596" y="-161" on="1"/>
        <pt x="556" y="-198" on="0"/>
        <pt x="483" y="-198" on="1"/>
        <pt x="463" y="-198" on="0"/>
        <pt x="407" y="-189" on="0"/>
        <pt x="389" y="-181" on="1"/>
        <pt x="396" y="-150" on="1"/>
        <pt x="414" y="-152" on="0"/>
        <pt x="464" y="-155" on="0"/>
        <pt x="480" y="-155" on="1"/>
        <pt x="541" y="-155" on="0"/>
      </contour>
    </TTGlyph>
    <TTGlyph name="Eogonek" xMin="84" yMin="-180" xMax="496" yMax="663">
      <contour>
        <pt x="480" y="663" on="1"/>
        <pt x="480" y="620" on="1"/>
        <pt x="137" y="620" on="1"/>
        <pt x="137" y="368" on="1"/>
        <pt x="447" y="368" on="1"/>
        <pt x="447" y="325" on="1"/>
        <pt x="137" y="325" on="1"/>
        <pt x="137" y="43" on="1"/>
        <pt x="492" y="43" on="1"/>
        <pt x="492" y="0" on="1"/>
        <pt x="480" y="0" on="1"/>
        <pt x="457" y="0" on="0"/>
        <pt x="416" y="-17" on="0"/>
        <pt x="402" y="-31" on="1"/>
        <pt x="388" y="-45" on="0"/>
        <pt x="371" y="-79" on="0"/>
        <pt x="371" y="-97" on="1"/>
        <pt x="371" y="-117" on="0"/>
        <pt x="398" y="-142" on="0"/>
        <pt x="426" y="-142" on="1"/>
        <pt x="434" y="-142" on="0"/>
        <pt x="455" y="-139" on="0"/>
        <pt x="467" y="-137" on="1"/>
        <pt x="487" y="-133" on="1"/>
        <pt x="496" y="-158" on="1"/>
        <pt x="482" y="-167" on="0"/>
        <pt x="438" y="-180" on="0"/>
        <pt x="416" y="-180" on="1"/>
        <pt x="374" y="-180" on="0"/>
        <pt x="321" y="-137" on="0"/>
        <pt x="321" y="-102" on="1"/>
        <pt x="321" y="-72" on="0"/>
        <pt x="361" y="-17" on="0"/>
        <pt x="394" y="0" on="1"/>
        <pt x="84" y="0" on="1"/>
        <pt x="84" y="663" on="1"/>
      </contour>
    </TTGlyph>
    <TTGlyph name="Eth" xMin="10" yMin="0" xMax="668" yMax="663">
      <contour>
        <pt x="103" y="0" on="1"/>
        <pt x="103" y="320" on="1"/>
        <pt x="10" y="320" on="1"/>
        <pt x="10" y="361" on="1"/>
        <pt x="103" y="361" on="1"/>
        <pt x="103" y="663" on="1"/>
        <pt x="290" y="663" on="1"/>
        <pt x="371" y="663" on="0"/>
        <pt x="503" y="633" on="0"/>
        <pt x="552" y="598" on="1"/>
        <pt x="607" y="559" on="0"/>
        <pt x="668" y="429" on="0"/>
        <pt x="668" y="332" on="1"/>
        <pt x="668" y="235" on="0"/>
        <pt x="607" y="104" on="0"/>
        <pt x="552" y="65" on="1"/>
        <pt x="503" y="30" on="0"/>
        <pt x="371" y="0" on="0"/>
        <pt x="290" y="0" on="1"/>
      </contour>
      <contour>
        <pt x="277" y="44" on="1"/>
        <pt x="360" y="44" on="0"/>
        <pt x="481" y="71" on="0"/>
        <pt x="524" y="103" on="1"/>
        <pt x="569" y="137" on="0"/>
        <pt x="614" y="250" on="0"/>
        <pt x="614" y="332" on="1"/>
        <pt x="614" y="414" on="0"/>
        <pt x="569" y="526" on="0"/>
        <pt x="524" y="560" on="1"/>
        <pt x="481" y="592" on="0"/>
        <pt x="360" y="619" on="0"/>
        <pt x="277" y="619" on="1"/>
        <pt x="156" y="619" on="1"/>
        <pt x="156" y="361" on="1"/>
        <pt x="325" y="361" on="1"/>
        <pt x="325" y="320" on="1"/>
        <pt x="156" y="320" on="1"/>
        <pt x="156" y="44" on="1"/>
      </contour>
    </TTGlyph>
    <TTGlyph name="Euro" xMin="33" yMin="-10" xMax="559" yMax="673">
      <contour>
        <pt x="559" y="58" on="1"/>
        <pt x="516" y="27" on="0"/>
        <pt x="413" y="-10" on="0"/>
        <pt x="366" y="-10" on="1"/>
        <pt x="314" y="-10" on="0"/>
        <pt x="229" y="27" on="0"/>
        <pt x="165" y="95" on="0"/>
        <pt x="123" y="191" on="0"/>
        <pt x="114" y="249" on="1"/>
        <pt x="33" y="249" on="1"/>
        <pt x="33" y="278" on="1"/>
        <pt x="110" y="284" on="1"/>
        <pt x="109" y="295" on="0"/>
        <pt x="108" y="319" on="0"/>
        <pt x="108" y="331" on="1"/>
        <pt x="108" y="340" on="0"/>
        <pt x="108" y="357" on="0"/>
        <pt x="109" y="366" on="1"/>
        <pt x="33" y="366" on="1"/>
        <pt x="33" y="395" on="1"/>
        <pt x="112" y="401" on="1"/>
        <pt x="120" y="459" on="0"/>
        <pt x="162" y="559" on="0"/>
        <pt x="227" y="632" on="0"/>
        <pt x="312" y="673" on="0"/>
        <pt x="363" y="673" on="1"/>
        <pt x="394" y="673" on="0"/>
        <pt x="452" y="654" on="0"/>
        <pt x="501" y="620" on="0"/>
        <pt x="541" y="575" on="0"/>
        <pt x="554" y="549" on="1"/>
        <pt x="529" y="533" on="1"/>
        <pt x="474" y="581" on="1"/>
        <pt x="445" y="606" on="0"/>
        <pt x="393" y="628" on="0"/>
        <pt x="359" y="628" on="1"/>
        <pt x="325" y="628" on="0"/>
        <pt x="261" y="600" on="0"/>
        <pt x="209" y="545" on="0"/>
        <pt x="172" y="461" on="0"/>
        <pt x="165" y="405" on="1"/>
        <pt x="383" y="405" on="1"/>
        <pt x="383" y="366" on="1"/>
        <pt x="162" y="366" on="1"/>
        <pt x="161" y="358" on="0"/>
        <pt x="161" y="340" on="0"/>
        <pt x="161" y="332" on="1"/>
        <pt x="161" y="321" on="0"/>
        <pt x="161" y="299" on="0"/>
        <pt x="162" y="288" on="1"/>
        <pt x="383" y="288" on="1"/>
        <pt x="383" y="249" on="1"/>
        <pt x="166" y="249" on="1"/>
        <pt x="180" y="152" on="0"/>
        <pt x="283" y="34" on="0"/>
        <pt x="371" y="34" on="1"/>
        <pt x="424" y="34" on="0"/>
        <pt x="497" y="65" on="1"/>
        <pt x="542" y="84" on="1"/>
      </contour>
    </TTGlyph>
    <TTGlyph name="Euro.lprop" xMin="33" yMin="-10" xMax="559" yMax="673">
      <contour>
        <pt x="559" y="58" on="1"/>
        <pt x="516" y="27" on="0"/>
        <pt x="413" y="-10" on="0"/>
        <pt x="366" y="-10" on="1"/>
        <pt x="314" y="-10" on="0"/>
        <pt x="229" y="27" on="0"/>
        <pt x="165" y="95" on="0"/>
        <pt x="123" y="191" on="0"/>
        <pt x="114" y="249" on="1"/>
        <pt x="33" y="249" on="1"/>
        <pt x="33" y="278" on="1"/>
        <pt x="110" y="284" on="1"/>
        <pt x="109" y="295" on="0"/>
        <pt x="108" y="319" on="0"/>
        <pt x="108" y="331" on="1"/>
        <pt x="108" y="340" on="0"/>
        <pt x="108" y="357" on="0"/>
        <pt x="109" y="366" on="1"/>
        <pt x="33" y="366" on="1"/>
        <pt x="33" y="395" on="1"/>
        <pt x="112" y="401" on="1"/>
        <pt x="120" y="459" on="0"/>
        <pt x="162" y="559" on="0"/>
        <pt x="227" y="632" on="0"/>
        <pt x="312" y="673" on="0"/>
        <pt x="363" y="673" on="1"/>
        <pt x="394" y="673" on="0"/>
        <pt x="452" y="654" on="0"/>
        <pt x="501" y="620" on="0"/>
        <pt x="541" y="575" on="0"/>
        <pt x="554" y="549" on="1"/>
        <pt x="529" y="533" on="1"/>
        <pt x="474" y="581" on="1"/>
        <pt x="445" y="606" on="0"/>
        <pt x="393" y="628" on="0"/>
        <pt x="359" y="628" on="1"/>
        <pt x="325" y="628" on="0"/>
        <pt x="261" y="600" on="0"/>
        <pt x="209" y="545" on="0"/>
        <pt x="172" y="461" on="0"/>
        <pt x="165" y="405" on="1"/>
        <pt x="383" y="405" on="1"/>
        <pt x="383" y="366" on="1"/>
        <pt x="162" y="366" on="1"/>
        <pt x="161" y="358" on="0"/>
        <pt x="161" y="340" on="0"/>
        <pt x="161" y="332" on="1"/>
        <pt x="161" y="321" on="0"/>
        <pt x="161" y="299" on="0"/>
        <pt x="162" y="288" on="1"/>
        <pt x="383" y="288" on="1"/>
        <pt x="383" y="249" on="1"/>
        <pt x="166" y="249" on="1"/>
        <pt x="180" y="152" on="0"/>
        <pt x="283" y="34" on="0"/>
        <pt x="371" y="34" on="1"/>
        <pt x="424" y="34" on="0"/>
        <pt x="497" y="65" on="1"/>
        <pt x="542" y="84" on="1"/>
      </contour>
    </TTGlyph>
    <TTGlyph name="Euro.oprop" xMin="46" yMin="-8" xMax="544" yMax="496">
      <contour>
        <pt x="544" y="72" on="1"/>
        <pt x="495" y="36" on="0"/>
        <pt x="388" y="-8" on="0"/>
        <pt x="334" y="-8" on="1"/>
        <pt x="290" y="-8" on="0"/>
        <pt x="215" y="20" on="0"/>
        <pt x="158" y="71" on="0"/>
        <pt x="120" y="140" on="0"/>
        <pt x="111" y="182" on="1"/>
        <pt x="46" y="182" on="1"/>
        <pt x="46" y="207" on="1"/>
        <pt x="107" y="215" on="1"/>
        <pt x="106" y="223" on="0"/>
        <pt x="106" y="242" on="0"/>
        <pt x="106" y="264" on="1"/>
        <pt x="46" y="264" on="1"/>
        <pt x="46" y="289" on="1"/>
        <pt x="110" y="298" on="1"/>
        <pt x="118" y="340" on="0"/>
        <pt x="159" y="413" on="0"/>
        <pt x="219" y="466" on="0"/>
        <pt x="297" y="496" on="0"/>
        <pt x="342" y="496" on="1"/>
        <pt x="400" y="496" on="0"/>
        <pt x="505" y="430" on="0"/>
        <pt x="535" y="370" on="1"/>
        <pt x="505" y="352" on="1"/>
        <pt x="476" y="380" on="1"/>
        <pt x="438" y="417" on="0"/>
        <pt x="377" y="451" on="0"/>
        <pt x="338" y="451" on="1"/>
        <pt x="272" y="451" on="0"/>
        <pt x="177" y="371" on="0"/>
        <pt x="163" y="301" on="1"/>
        <pt x="381" y="301" on="1"/>
        <pt x="381" y="264" on="1"/>
        <pt x="159" y="264" on="1"/>
        <pt x="159" y="244" on="0"/>
        <pt x="159" y="226" on="0"/>
        <pt x="160" y="219" on="1"/>
        <pt x="381" y="219" on="1"/>
        <pt x="381" y="182" on="1"/>
        <pt x="164" y="182" on="1"/>
        <pt x="179" y="112" on="0"/>
        <pt x="271" y="37" on="0"/>
        <pt x="339" y="37" on="1"/>
        <pt x="401" y="37" on="0"/>
        <pt x="468" y="69" on="1"/>
        <pt x="526" y="96" on="1"/>
      </contour>
    </TTGlyph>
    <TTGlyph name="Euro.otab" xMin="46" yMin="-8" xMax="544" yMax="496">
      <contour>
        <pt x="544" y="72" on="1"/>
        <pt x="495" y="36" on="0"/>
        <pt x="388" y="-8" on="0"/>
        <pt x="334" y="-8" on="1"/>
        <pt x="290" y="-8" on="0"/>
        <pt x="215" y="20" on="0"/>
        <pt x="158" y="71" on="0"/>
        <pt x="120" y="140" on="0"/>
        <pt x="111" y="182" on="1"/>
        <pt x="46" y="182" on="1"/>
        <pt x="46" y="207" on="1"/>
        <pt x="107" y="215" on="1"/>
        <pt x="106" y="223" on="0"/>
        <pt x="106" y="242" on="0"/>
        <pt x="106" y="264" on="1"/>
        <pt x="46" y="264" on="1"/>
        <pt x="46" y="289" on="1"/>
        <pt x="110" y="298" on="1"/>
        <pt x="118" y="340" on="0"/>
        <pt x="159" y="413" on="0"/>
        <pt x="219" y="466" on="0"/>
        <pt x="297" y="496" on="0"/>
        <pt x="342" y="496" on="1"/>
        <pt x="400" y="496" on="0"/>
        <pt x="505" y="430" on="0"/>
        <pt x="535" y="370" on="1"/>
        <pt x="505" y="352" on="1"/>
        <pt x="476" y="380" on="1"/>
        <pt x="438" y="417" on="0"/>
        <pt x="377" y="451" on="0"/>
        <pt x="338" y="451" on="1"/>
        <pt x="272" y="451" on="0"/>
        <pt x="177" y="371" on="0"/>
        <pt x="163" y="301" on="1"/>
        <pt x="381" y="301" on="1"/>
        <pt x="381" y="264" on="1"/>
        <pt x="159" y="264" on="1"/>
        <pt x="159" y="244" on="0"/>
        <pt x="159" y="226" on="0"/>
        <pt x="160" y="219" on="1"/>
        <pt x="381" y="219" on="1"/>
        <pt x="381" y="182" on="1"/>
        <pt x="164" y="182" on="1"/>
        <pt x="179" y="112" on="0"/>
        <pt x="271" y="37" on="0"/>
        <pt x="339" y="37" on="1"/>
        <pt x="401" y="37" on="0"/>
        <pt x="468" y="69" on="1"/>
        <pt x="526" y="96" on="1"/>
      </contour>
    </TTGlyph>
    <TTGlyph name="F" xMin="84" yMin="0" xMax="475" yMax="663">
      <contour>
        <pt x="475" y="663" on="1"/>
        <pt x="475" y="620" on="1"/>
        <pt x="137" y="620" on="1"/>
        <pt x="137" y="368" on="1"/>
        <pt x="440" y="368" on="1"/>
        <pt x="440" y="325" on="1"/>
        <pt x="137" y="325" on="1"/>
        <pt x="137" y="0" on="1"/>
        <pt x="84" y="0" on="1"/>
        <pt x="84" y="663" on="1"/>
      </contour>
    </TTGlyph>
    <TTGlyph name="G" xMin="42" yMin="-10" xMax="647" yMax="673">
      <contour>
        <pt x="596" y="274" on="1"/>
        <pt x="458" y="274" on="1"/>
        <pt x="458" y="315" on="1"/>
        <pt x="637" y="315" on="1"/>
        <pt x="647" y="315" on="0"/>
        <pt x="647" y="305" on="1"/>
        <pt x="647" y="0" on="1"/>
        <pt x="612" y="0" on="1"/>
        <pt x="600" y="73" on="1"/>
        <pt x="563" y="53" on="1"/>
        <pt x="506" y="22" on="0"/>
        <pt x="404" y="-10" on="0"/>
        <pt x="350" y="-10" on="1"/>
        <pt x="280" y="-10" on="0"/>
        <pt x="167" y="42" on="0"/>
        <pt x="86" y="133" on="0"/>
        <pt x="42" y="257" on="0"/>
        <pt x="42" y="330" on="1"/>
        <pt x="42" y="407" on="0"/>
        <pt x="93" y="533" on="0"/>
        <pt x="180" y="623" on="0"/>
        <pt x="296" y="673" on="0"/>
        <pt x="361" y="673" on="1"/>
        <pt x="454" y="673" on="0"/>
        <pt x="594" y="584" on="0"/>
        <pt x="636" y="512" on="1"/>
        <pt x="606" y="491" on="1"/>
        <pt x="549" y="544" on="1"/>
        <pt x="507" y="584" on="0"/>
        <pt x="416" y="626" on="0"/>
        <pt x="356" y="626" on="1"/>
        <pt x="307" y="626" on="0"/>
        <pt x="213" y="589" on="0"/>
        <pt x="140" y="515" on="0"/>
        <pt x="96" y="404" on="0"/>
        <pt x="96" y="331" on="1"/>
        <pt x="96" y="263" on="0"/>
        <pt x="133" y="155" on="0"/>
        <pt x="202" y="79" on="0"/>
        <pt x="299" y="39" on="0"/>
        <pt x="358" y="39" on="1"/>
        <pt x="414" y="39" on="0"/>
        <pt x="527" y="76" on="0"/>
        <pt x="587" y="109" on="1"/>
        <pt x="596" y="114" on="0"/>
        <pt x="596" y="124" on="1"/>
      </contour>
    </TTGlyph>
    <TTGlyph name="Gbreve" xMin="42" yMin="-10" xMax="647" yMax="851">
      <component glyphName="G" x="0" y="0" flags="0x204"/>
      <component glyphName="breve.cap" x="176" y="0" flags="0x4"/>
    </TTGlyph>
    <TTGlyph name="Gcircumflex" xMin="42" yMin="-10" xMax="647" yMax="869">
      <component glyphName="G" x="0" y="0" flags="0x204"/>
      <component glyphName="circumflex.cap" x="172" y="0" flags="0x4"/>
    </TTGlyph>
    <TTGlyph name="Gcommaaccent" xMin="42" yMin="-250" xMax="647" yMax="673">
      <component glyphName="G" x="0" y="0" flags="0x204"/>
      <component glyphName="commaaccent" x="165" y="0" flags="0x4"/>
    </TTGlyph>
    <TTGlyph name="Gdotaccent" xMin="42" yMin="-10" xMax="647" yMax="818">
      <component glyphName="G" x="0" y="0" flags="0x204"/>
      <component glyphName="dotaccent.cap" x="170" y="0" flags="0x4"/>
    </TTGlyph>
    <TTGlyph name="H" xMin="84" yMin="0" xMax="604" yMax="663">
      <contour>
        <pt x="551" y="324" on="1"/>
        <pt x="137" y="324" on="1"/>
        <pt x="137" y="0" on="1"/>
        <pt x="84" y="0" on="1"/>
        <pt x="84" y="663" on="1"/>
        <pt x="137" y="663" on="1"/>
        <pt x="137" y="369" on="1"/>
        <pt x="551" y="369" on="1"/>
        <pt x="551" y="663" on="1"/>
        <pt x="604" y="663" on="1"/>
        <pt x="604" y="0" on="1"/>
        <pt x="551" y="0" on="1"/>
      </contour>
    </TTGlyph>
    <TTGlyph name="Hbar" xMin="14" yMin="0" xMax="686" yMax="663">
      <contour>
        <pt x="557" y="324" on="1"/>
        <pt x="143" y="324" on="1"/>
        <pt x="143" y="0" on="1"/>
        <pt x="90" y="0" on="1"/>
        <pt x="90" y="518" on="1"/>
        <pt x="14" y="518" on="1"/>
        <pt x="14" y="559" on="1"/>
        <pt x="90" y="559" on="1"/>
        <pt x="90" y="663" on="1"/>
        <pt x="143" y="663" on="1"/>
        <pt x="143" y="559" on="1"/>
        <pt x="557" y="559" on="1"/>
        <pt x="557" y="663" on="1"/>
        <pt x="610" y="663" on="1"/>
        <pt x="610" y="559" on="1"/>
        <pt x="686" y="559" on="1"/>
        <pt x="686" y="518" on="1"/>
        <pt x="610" y="518" on="1"/>
        <pt x="610" y="0" on="1"/>
        <pt x="557" y="0" on="1"/>
      </contour>
      <contour>
        <pt x="557" y="369" on="1"/>
        <pt x="557" y="518" on="1"/>
        <pt x="143" y="518" on="1"/>
        <pt x="143" y="369" on="1"/>
      </contour>
    </TTGlyph>
    <TTGlyph name="Hcircumflex" xMin="84" yMin="0" xMax="604" yMax="869">
      <component glyphName="H" x="0" y="0" flags="0x204"/>
      <component glyphName="circumflex.cap" x="152" y="0" flags="0x4"/>
    </TTGlyph>
    <TTGlyph name="I" xMin="89" yMin="0" xMax="142" yMax="663">
      <contour>
        <pt x="142" y="0" on="1"/>
        <pt x="89" y="0" on="1"/>
        <pt x="89" y="663" on="1"/>
        <pt x="142" y="663" on="1"/>
      </contour>
    </TTGlyph>
    <TTGlyph name="IJ" xMin="89" yMin="-10" xMax="627" yMax="663">
      <component glyphName="I" x="0" y="0" flags="0x4"/>
      <component glyphName="J" x="226" y="0" flags="0x4"/>
    </TTGlyph>
    <TTGlyph name="Iacute" xMin="16" yMin="0" xMax="242" yMax="889">
      <component glyphName="I" x="0" y="0" flags="0x204"/>
      <component glyphName="acute.cap" x="-63" y="0" flags="0x4"/>
    </TTGlyph>
    <TTGlyph name="Ibreve" xMin="-25" yMin="0" xMax="261" yMax="851">
      <component glyphName="I" x="0" y="0" flags="0x204"/>
      <component glyphName="breve.cap" x="-74" y="0" flags="0x4"/>
    </TTGlyph>
    <TTGlyph name="Icircumflex" xMin="-33" yMin="0" xMax="266" yMax="869">
      <component glyphName="I" x="0" y="0" flags="0x204"/>
      <component glyphName="circumflex.cap" x="-75" y="0" flags="0x4"/>
    </TTGlyph>
    <TTGlyph name="Idieresis" xMin="-2" yMin="0" xMax="236" yMax="826">
      <component glyphName="I" x="0" y="0" flags="0x204"/>
      <component glyphName="dieresis.cap" x="-75" y="0" flags="0x4"/>
    </TTGlyph>
    <TTGlyph name="Idotaccent" xMin="79" yMin="0" xMax="157" yMax="818">
      <component glyphName="I" x="0" y="0" flags="0x204"/>
      <component glyphName="dotaccent.cap" x="-74" y="0" flags="0x4"/>
    </TTGlyph>
    <TTGlyph name="Igrave" xMin="2" yMin="0" xMax="228" yMax="890">
      <component glyphName="I" x="0" y="0" flags="0x204"/>
      <component glyphName="grave.cap" x="-77" y="0" flags="0x4"/>
    </TTGlyph>
    <TTGlyph name="Imacron" xMin="-26" yMin="0" xMax="259" yMax="788">
      <component glyphName="I" x="0" y="0" flags="0x204"/>
      <component glyphName="macron.cap" x="-75" y="0" flags="0x4"/>
    </TTGlyph>
    <TTGlyph name="Iogonek" xMin="9" yMin="-180" xMax="184" yMax="663">
      <contour>
        <pt x="142" y="0" on="1"/>
        <pt x="104" y="-19" on="0"/>
        <pt x="59" y="-68" on="0"/>
        <pt x="59" y="-97" on="1"/>
        <pt x="59" y="-116" on="0"/>
        <pt x="86" y="-142" on="0"/>
        <pt x="114" y="-142" on="1"/>
        <pt x="125" y="-142" on="0"/>
        <pt x="161" y="-137" on="0"/>
        <pt x="175" y="-133" on="1"/>
        <pt x="184" y="-158" on="1"/>
        <pt x="170" y="-167" on="0"/>
        <pt x="126" y="-180" on="0"/>
        <pt x="104" y="-180" on="1"/>
        <pt x="62" y="-180" on="0"/>
        <pt x="9" y="-137" on="0"/>
        <pt x="9" y="-102" on="1"/>
        <pt x="9" y="-72" on="0"/>
        <pt x="57" y="-18" on="0"/>
        <pt x="89" y="0" on="1"/>
        <pt x="89" y="663" on="1"/>
        <pt x="142" y="663" on="1"/>
      </contour>
    </TTGlyph>
    <TTGlyph name="Itilde" xMin="-37" yMin="0" xMax="272" yMax="831">
      <component glyphName="I" x="0" y="0" flags="0x204"/>
      <component glyphName="tilde.cap" x="-74" y="0" flags="0x4"/>
    </TTGlyph>
    <TTGlyph name="J" xMin="20" yMin="-10" xMax="401" yMax="663">
      <contour>
        <pt x="32" y="68" on="1"/>
        <pt x="85" y="55" on="1"/>
        <pt x="127" y="44" on="0"/>
        <pt x="189" y="35" on="0"/>
        <pt x="214" y="35" on="1"/>
        <pt x="282" y="35" on="0"/>
        <pt x="315" y="71" on="1"/>
        <pt x="333" y="91" on="0"/>
        <pt x="348" y="149" on="0"/>
        <pt x="348" y="189" on="1"/>
        <pt x="348" y="663" on="1"/>
        <pt x="401" y="663" on="1"/>
        <pt x="401" y="182" on="1"/>
        <pt x="401" y="87" on="0"/>
        <pt x="353" y="38" on="1"/>
        <pt x="305" y="-10" on="0"/>
        <pt x="214" y="-10" on="1"/>
        <pt x="170" y="-10" on="0"/>
        <pt x="68" y="16" on="0"/>
        <pt x="20" y="39" on="1"/>
      </contour>
    </TTGlyph>
    <TTGlyph name="Jcircumflex" xMin="20" yMin="-10" xMax="523" yMax="865">
      <component glyphName="J" x="0" y="0" flags="0x204"/>
      <component glyphName="circumflex.cap" x="182" y="-4" flags="0x4"/>
    </TTGlyph>
    <TTGlyph name="K" xMin="84" yMin="0" xMax="598" yMax="669">
      <contour>
        <pt x="316" y="402" on="1"/>
        <pt x="598" y="0" on="1"/>
        <pt x="552" y="0" on="1"/>
        <pt x="539" y="0" on="0"/>
        <pt x="533" y="9" on="1"/>
        <pt x="281" y="370" on="1"/>
        <pt x="243" y="335" on="0"/>
        <pt x="163" y="267" on="0"/>
        <pt x="137" y="247" on="1"/>
        <pt x="137" y="0" on="1"/>
        <pt x="84" y="0" on="1"/>
        <pt x="84" y="663" on="1"/>
        <pt x="137" y="663" on="1"/>
        <pt x="137" y="297" on="1"/>
        <pt x="542" y="669" on="1"/>
        <pt x="573" y="637" on="1"/>
      </contour>
    </TTGlyph>
    <TTGlyph name="Kcommaaccent" xMin="84" yMin="-250" xMax="598" yMax="669">
      <component glyphName="K" x="0" y="0" flags="0x204"/>
      <component glyphName="commaaccent" x="117" y="0" flags="0x4"/>
    </TTGlyph>
    <TTGlyph name="L" xMin="84" yMin="0" xMax="476" yMax="663">
      <contour>
        <pt x="84" y="663" on="1"/>
        <pt x="137" y="663" on="1"/>
        <pt x="137" y="43" on="1"/>
        <pt x="476" y="43" on="1"/>
        <pt x="476" y="0" on="1"/>
        <pt x="84" y="0" on="1"/>
      </contour>
    </TTGlyph>
    <TTGlyph name="Lacute" xMin="60" yMin="0" xMax="476" yMax="889">
      <component glyphName="L" x="0" y="0" flags="0x204"/>
      <component glyphName="acute.cap" x="-19" y="0" flags="0x4"/>
    </TTGlyph>
    <TTGlyph name="Lcaron" xMin="84" yMin="0" xMax="476" yMax="663">
      <component glyphName="L" x="0" y="0" flags="0x204"/>
      <component glyphName="commaaccent" x="105" y="721" flags="0x4"/>
    </TTGlyph>
    <TTGlyph name="Lcommaaccent" xMin="84" yMin="-250" xMax="476" yMax="663">
      <component glyphName="L" x="0" y="0" flags="0x204"/>
      <component glyphName="commaaccent" x="87" y="0" flags="0x4"/>
    </TTGlyph>
    <TTGlyph name="Ldot" xMin="84" yMin="0" xMax="476" yMax="663">
      <contour>
        <pt x="317" y="388" on="1"/>
        <pt x="381" y="388" on="1"/>
        <pt x="390" y="388" on="0"/>
        <pt x="395" y="383" on="0"/>
        <pt x="395" y="375" on="1"/>
        <pt x="395" y="310" on="1"/>
        <pt x="317" y="310" on="1"/>
      </contour>
      <contour>
        <pt x="84" y="663" on="1"/>
        <pt x="137" y="663" on="1"/>
        <pt x="137" y="43" on="1"/>
        <pt x="476" y="43" on="1"/>
        <pt x="476" y="0" on="1"/>
        <pt x="84" y="0" on="1"/>
      </contour>
    </TTGlyph>
    <TTGlyph name="Lslash" xMin="6" yMin="0" xMax="509" yMax="663">
      <contour>
        <pt x="117" y="334" on="1"/>
        <pt x="117" y="663" on="1"/>
        <pt x="170" y="663" on="1"/>
        <pt x="170" y="365" on="1"/>
        <pt x="346" y="485" on="1"/>
        <pt x="370" y="451" on="1"/>
        <pt x="170" y="315" on="1"/>
        <pt x="170" y="43" on="1"/>
        <pt x="509" y="43" on="1"/>
        <pt x="509" y="0" on="1"/>
        <pt x="117" y="0" on="1"/>
        <pt x="117" y="284" on="1"/>
        <pt x="30" y="225" on="1"/>
        <pt x="6" y="259" on="1"/>
      </contour>
    </TTGlyph>
    <TTGlyph name="M" xMin="84" yMin="0" xMax="739" yMax="663">
      <contour>
        <pt x="434" y="225" on="1"/>
        <pt x="403" y="225" on="1"/>
        <pt x="393" y="225" on="0"/>
        <pt x="386" y="233" on="1"/>
        <pt x="200" y="486" on="1"/>
        <pt x="183" y="509" on="0"/>
        <pt x="145" y="562" on="0"/>
        <pt x="134" y="580" on="1"/>
        <pt x="135" y="555" on="0"/>
        <pt x="135" y="491" on="0"/>
        <pt x="135" y="467" on="1"/>
        <pt x="135" y="0" on="1"/>
        <pt x="84" y="0" on="1"/>
        <pt x="84" y="663" on="1"/>
        <pt x="119" y="663" on="1"/>
        <pt x="126" y="663" on="0"/>
        <pt x="131" y="661" on="0"/>
        <pt x="136" y="655" on="1"/>
        <pt x="414" y="275" on="1"/>
        <pt x="692" y="655" on="1"/>
        <pt x="696" y="660" on="0"/>
        <pt x="702" y="663" on="0"/>
        <pt x="708" y="663" on="1"/>
        <pt x="739" y="663" on="1"/>
        <pt x="739" y="0" on="1"/>
        <pt x="689" y="0" on="1"/>
        <pt x="689" y="463" on="1"/>
        <pt x="689" y="487" on="0"/>
        <pt x="689" y="551" on="0"/>
        <pt x="690" y="576" on="1"/>
        <pt x="679" y="560" on="0"/>
        <pt x="640" y="505" on="0"/>
        <pt x="623" y="482" on="1"/>
      </contour>
    </TTGlyph>
    <TTGlyph name="N" xMin="84" yMin="0" xMax="644" yMax="663">
      <contour>
        <pt x="529" y="166" on="1"/>
        <pt x="545" y="146" on="0"/>
        <pt x="583" y="98" on="0"/>
        <pt x="597" y="77" on="1"/>
        <pt x="595" y="104" on="0"/>
        <pt x="594" y="164" on="0"/>
        <pt x="594" y="184" on="1"/>
        <pt x="594" y="663" on="1"/>
        <pt x="644" y="663" on="1"/>
        <pt x="644" y="0" on="1"/>
        <pt x="613" y="0" on="1"/>
        <pt x="606" y="0" on="0"/>
        <pt x="601" y="3" on="0"/>
        <pt x="596" y="8" on="1"/>
        <pt x="200" y="495" on="1"/>
        <pt x="183" y="515" on="0"/>
        <pt x="146" y="563" on="0"/>
        <pt x="132" y="584" on="1"/>
        <pt x="134" y="557" on="0"/>
        <pt x="135" y="497" on="0"/>
        <pt x="135" y="477" on="1"/>
        <pt x="135" y="0" on="1"/>
        <pt x="84" y="0" on="1"/>
        <pt x="84" y="663" on="1"/>
        <pt x="113" y="663" on="1"/>
        <pt x="121" y="663" on="0"/>
        <pt x="127" y="660" on="0"/>
        <pt x="132" y="654" on="1"/>
      </contour>
    </TTGlyph>
    <TTGlyph name="Nacute" xMin="84" yMin="0" xMax="644" yMax="889">
      <component glyphName="N" x="0" y="0" flags="0x204"/>
      <component glyphName="acute.cap" x="198" y="0" flags="0x4"/>
    </TTGlyph>
    <TTGlyph name="Ncaron" xMin="84" yMin="0" xMax="644" yMax="879">
      <component glyphName="N" x="0" y="0" flags="0x204"/>
      <component glyphName="caron.cap" x="177" y="0" flags="0x4"/>
    </TTGlyph>
    <TTGlyph name="Ncommaaccent" xMin="84" yMin="-250" xMax="644" yMax="663">
      <component glyphName="N" x="0" y="0" flags="0x204"/>
      <component glyphName="commaaccent" x="161" y="0" flags="0x4"/>
    </TTGlyph>
    <TTGlyph name="Ntilde" xMin="84" yMin="0" xMax="644" yMax="831">
      <component glyphName="N" x="0" y="0" flags="0x204"/>
      <component glyphName="tilde.cap" x="175" y="0" flags="0x4"/>
    </TTGlyph>
    <TTGlyph name="O" xMin="42" yMin="-10" xMax="682" yMax="673">
      <contour>
        <pt x="42" y="331" on="1"/>
        <pt x="42" y="399" on="0"/>
        <pt x="88" y="523" on="0"/>
        <pt x="172" y="617" on="0"/>
        <pt x="290" y="673" on="0"/>
        <pt x="362" y="673" on="1"/>
        <pt x="434" y="673" on="0"/>
        <pt x="552" y="617" on="0"/>
        <pt x="636" y="523" on="0"/>
        <pt x="682" y="399" on="0"/>
        <pt x="682" y="331" on="1"/>
        <pt x="682" y="263" on="0"/>
        <pt x="636" y="139" on="0"/>
        <pt x="552" y="45" on="0"/>
        <pt x="434" y="-10" on="0"/>
        <pt x="362" y="-10" on="1"/>
        <pt x="290" y="-10" on="0"/>
        <pt x="172" y="45" on="0"/>
        <pt x="88" y="139" on="0"/>
        <pt x="42" y="263" on="0"/>
      </contour>
      <contour>
        <pt x="628" y="331" on="1"/>
        <pt x="628" y="396" on="0"/>
        <pt x="589" y="503" on="0"/>
        <pt x="519" y="580" on="0"/>
        <pt x="421" y="623" on="0"/>
        <pt x="362" y="623" on="1"/>
        <pt x="303" y="623" on="0"/>
        <pt x="205" y="580" on="0"/>
        <pt x="135" y="503" on="0"/>
        <pt x="96" y="396" on="0"/>
        <pt x="96" y="331" on="1"/>
        <pt x="96" y="266" on="0"/>
        <pt x="135" y="159" on="0"/>
        <pt x="205" y="82" on="0"/>
        <pt x="303" y="40" on="0"/>
        <pt x="362" y="40" on="1"/>
        <pt x="421" y="40" on="0"/>
        <pt x="519" y="82" on="0"/>
        <pt x="589" y="159" on="0"/>
        <pt x="628" y="266" on="0"/>
      </contour>
    </TTGlyph>
    <TTGlyph name="OE" xMin="42" yMin="-10" xMax="1033" yMax="673">
      <contour>
        <pt x="625" y="331" on="1"/>
        <pt x="625" y="396" on="0"/>
        <pt x="587" y="503" on="0"/>
        <pt x="518" y="580" on="0"/>
        <pt x="421" y="623" on="0"/>
        <pt x="362" y="623" on="1"/>
        <pt x="303" y="623" on="0"/>
        <pt x="205" y="580" on="0"/>
        <pt x="135" y="503" on="0"/>
        <pt x="96" y="396" on="0"/>
        <pt x="96" y="331" on="1"/>
        <pt x="96" y="266" on="0"/>
        <pt x="135" y="159" on="0"/>
        <pt x="205" y="82" on="0"/>
        <pt x="303" y="40" on="0"/>
        <pt x="362" y="40" on="1"/>
        <pt x="421" y="40" on="0"/>
        <pt x="518" y="82" on="0"/>
        <pt x="587" y="159" on="0"/>
        <pt x="625" y="266" on="0"/>
      </contour>
      <contour>
        <pt x="626" y="153" on="1"/>
        <pt x="587" y="78" on="0"/>
        <pt x="449" y="-10" on="0"/>
        <pt x="362" y="-10" on="1"/>
        <pt x="290" y="-10" on="0"/>
        <pt x="172" y="45" on="0"/>
        <pt x="88" y="139" on="0"/>
        <pt x="42" y="263" on="0"/>
        <pt x="42" y="331" on="1"/>
        <pt x="42" y="399" on="0"/>
        <pt x="88" y="523" on="0"/>
        <pt x="172" y="617" on="0"/>
        <pt x="290" y="673" on="0"/>
        <pt x="362" y="673" on="1"/>
        <pt x="449" y="673" on="0"/>
        <pt x="587" y="585" on="0"/>
        <pt x="626" y="510" on="1"/>
        <pt x="626" y="663" on="1"/>
        <pt x="1021" y="663" on="1"/>
        <pt x="1021" y="619" on="1"/>
        <pt x="678" y="619" on="1"/>
        <pt x="678" y="368" on="1"/>
        <pt x="988" y="368" on="1"/>
        <pt x="988" y="325" on="1"/>
        <pt x="678" y="325" on="1"/>
        <pt x="678" y="43" on="1"/>
        <pt x="1033" y="43" on="1"/>
        <pt x="1033" y="0" on="1"/>
        <pt x="626" y="0" on="1"/>
      </contour>
    </TTGlyph>
    <TTGlyph name="Oacute" xMin="42" yMin="-10" xMax="682" yMax="889">
      <component glyphName="O" x="0" y="0" flags="0x204"/>
      <component glyphName="acute.cap" x="179" y="0" flags="0x4"/>
    </TTGlyph>
    <TTGlyph name="Obreve" xMin="42" yMin="-10" xMax="682" yMax="851">
      <component glyphName="O" x="0" y="0" flags="0x204"/>
      <component glyphName="breve.cap" x="170" y="0" flags="0x4"/>
    </TTGlyph>
    <TTGlyph name="Ocircumflex" xMin="42" yMin="-10" xMax="682" yMax="869">
      <component glyphName="O" x="0" y="0" flags="0x204"/>
      <component glyphName="circumflex.cap" x="170" y="0" flags="0x4"/>
    </TTGlyph>
    <TTGlyph name="Odieresis" xMin="42" yMin="-10" xMax="682" yMax="826">
      <component glyphName="O" x="0" y="0" flags="0x204"/>
      <component glyphName="dieresis.cap" x="169" y="0" flags="0x4"/>
    </TTGlyph>
    <TTGlyph name="Ograve" xMin="42" yMin="-10" xMax="682" yMax="890">
      <component glyphName="O" x="0" y="0" flags="0x204"/>
      <component glyphName="grave.cap" x="159" y="0" flags="0x4"/>
    </TTGlyph>
    <TTGlyph name="Ohungarumlaut" xMin="42" yMin="-10" xMax="682" yMax="915">
      <component glyphName="O" x="0" y="0" flags="0x4"/>
      <component glyphName="hungarumlaut.cap" x="187" y="0" flags="0x4"/>
    </TTGlyph>
    <TTGlyph name="Omacron" xMin="42" yMin="-10" xMax="682" yMax="788">
      <component glyphName="O" x="0" y="0" flags="0x204"/>
      <component glyphName="macron.cap" x="170" y="0" flags="0x4"/>
    </TTGlyph>
    <TTGlyph name="Omega" xMin="62" yMin="0" xMax="642" yMax="673">
      <contour>
        <pt x="352" y="625" on="1"/>
        <pt x="301" y="625" on="0"/>
        <pt x="214" y="596" on="0"/>
        <pt x="149" y="538" on="0"/>
        <pt x="112" y="453" on="0"/>
        <pt x="112" y="397" on="1"/>
        <pt x="112" y="327" on="0"/>
        <pt x="169" y="202" on="0"/>
        <pt x="220" y="135" on="1"/>
        <pt x="286" y="48" on="1"/>
        <pt x="290" y="43" on="0"/>
        <pt x="293" y="34" on="0"/>
        <pt x="293" y="26" on="1"/>
        <pt x="293" y="0" on="1"/>
        <pt x="92" y="0" on="1"/>
        <pt x="92" y="43" on="1"/>
        <pt x="246" y="43" on="1"/>
        <pt x="199" y="100" on="1"/>
        <pt x="134" y="179" on="0"/>
        <pt x="62" y="322" on="0"/>
        <pt x="62" y="405" on="1"/>
        <pt x="62" y="465" on="0"/>
        <pt x="108" y="563" on="0"/>
        <pt x="188" y="634" on="0"/>
        <pt x="293" y="673" on="0"/>
        <pt x="352" y="673" on="1"/>
        <pt x="411" y="673" on="0"/>
        <pt x="516" y="634" on="0"/>
        <pt x="596" y="563" on="0"/>
        <pt x="642" y="465" on="0"/>
        <pt x="642" y="405" on="1"/>
        <pt x="642" y="322" on="0"/>
        <pt x="570" y="179" on="0"/>
        <pt x="505" y="100" on="1"/>
        <pt x="458" y="43" on="1"/>
        <pt x="612" y="43" on="1"/>
        <pt x="612" y="0" on="1"/>
        <pt x="411" y="0" on="1"/>
        <pt x="411" y="26" on="1"/>
        <pt x="411" y="34" on="0"/>
        <pt x="414" y="43" on="0"/>
        <pt x="418" y="48" on="1"/>
        <pt x="484" y="135" on="1"/>
        <pt x="535" y="202" on="0"/>
        <pt x="592" y="327" on="0"/>
        <pt x="592" y="397" on="1"/>
        <pt x="592" y="453" on="0"/>
        <pt x="555" y="538" on="0"/>
        <pt x="490" y="596" on="0"/>
        <pt x="403" y="625" on="0"/>
      </contour>
    </TTGlyph>
    <TTGlyph name="Oslash" xMin="42" yMin="-44" xMax="682" yMax="703">
      <contour>
        <pt x="42" y="331" on="1"/>
        <pt x="42" y="399" on="0"/>
        <pt x="88" y="523" on="0"/>
        <pt x="172" y="617" on="0"/>
        <pt x="290" y="673" on="0"/>
        <pt x="362" y="673" on="1"/>
        <pt x="415" y="673" on="0"/>
        <pt x="506" y="643" on="0"/>
        <pt x="544" y="616" on="1"/>
        <pt x="608" y="703" on="1"/>
        <pt x="646" y="678" on="1"/>
        <pt x="578" y="587" on="1"/>
        <pt x="628" y="539" on="0"/>
        <pt x="682" y="406" on="0"/>
        <pt x="682" y="331" on="1"/>
        <pt x="682" y="263" on="0"/>
        <pt x="636" y="139" on="0"/>
        <pt x="552" y="45" on="0"/>
        <pt x="434" y="-10" on="0"/>
        <pt x="362" y="-10" on="1"/>
        <pt x="309" y="-10" on="0"/>
        <pt x="218" y="20" on="0"/>
        <pt x="180" y="46" on="1"/>
        <pt x="114" y="-44" on="1"/>
        <pt x="76" y="-19" on="1"/>
        <pt x="145" y="75" on="1"/>
        <pt x="95" y="123" on="0"/>
        <pt x="42" y="256" on="0"/>
      </contour>
      <contour>
        <pt x="96" y="331" on="1"/>
        <pt x="96" y="264" on="0"/>
        <pt x="139" y="154" on="0"/>
        <pt x="175" y="116" on="1"/>
        <pt x="514" y="575" on="1"/>
        <pt x="482" y="598" on="0"/>
        <pt x="407" y="623" on="0"/>
        <pt x="362" y="623" on="1"/>
        <pt x="303" y="623" on="0"/>
        <pt x="205" y="580" on="0"/>
        <pt x="135" y="503" on="0"/>
        <pt x="96" y="396" on="0"/>
      </contour>
      <contour>
        <pt x="628" y="331" on="1"/>
        <pt x="628" y="398" on="0"/>
        <pt x="585" y="507" on="0"/>
        <pt x="548" y="546" on="1"/>
        <pt x="210" y="86" on="1"/>
        <pt x="241" y="64" on="0"/>
        <pt x="317" y="40" on="0"/>
        <pt x="362" y="40" on="1"/>
        <pt x="421" y="40" on="0"/>
        <pt x="519" y="82" on="0"/>
        <pt x="589" y="159" on="0"/>
        <pt x="628" y="266" on="0"/>
      </contour>
    </TTGlyph>
    <TTGlyph name="Oslashacute" xMin="42" yMin="-44" xMax="682" yMax="889">
      <component glyphName="Oslash" x="0" y="0" flags="0x204"/>
      <component glyphName="acute.cap" x="193" y="0" flags="0x4"/>
    </TTGlyph>
    <TTGlyph name="Otilde" xMin="42" yMin="-10" xMax="682" yMax="831">
      <component glyphName="O" x="0" y="0" flags="0x204"/>
      <component glyphName="tilde.cap" x="171" y="0" flags="0x4"/>
    </TTGlyph>
    <TTGlyph name="P" xMin="84" yMin="0" xMax="546" yMax="663">
      <contour>
        <pt x="137" y="0" on="1"/>
        <pt x="84" y="0" on="1"/>
        <pt x="84" y="663" on="1"/>
        <pt x="317" y="663" on="1"/>
        <pt x="382" y="663" on="0"/>
        <pt x="468" y="635" on="0"/>
        <pt x="496" y="608" on="1"/>
        <pt x="522" y="582" on="0"/>
        <pt x="546" y="510" on="0"/>
        <pt x="546" y="465" on="1"/>
        <pt x="546" y="411" on="0"/>
        <pt x="511" y="312" on="0"/>
        <pt x="478" y="281" on="1"/>
        <pt x="455" y="259" on="0"/>
        <pt x="408" y="244" on="0"/>
        <pt x="366" y="244" on="1"/>
        <pt x="137" y="244" on="1"/>
      </contour>
      <contour>
        <pt x="137" y="286" on="1"/>
        <pt x="371" y="286" on="1"/>
        <pt x="401" y="286" on="0"/>
        <pt x="438" y="300" on="0"/>
        <pt x="452" y="318" on="1"/>
        <pt x="474" y="347" on="0"/>
        <pt x="493" y="422" on="0"/>
        <pt x="493" y="463" on="1"/>
        <pt x="493" y="501" on="0"/>
        <pt x="476" y="558" on="0"/>
        <pt x="458" y="577" on="1"/>
        <pt x="436" y="600" on="0"/>
        <pt x="366" y="620" on="0"/>
        <pt x="309" y="620" on="1"/>
        <pt x="137" y="620" on="1"/>
      </contour>
    </TTGlyph>
    <TTGlyph name="Q" xMin="42" yMin="-168" xMax="682" yMax="673">
      <contour>
        <pt x="42" y="331" on="1"/>
        <pt x="42" y="399" on="0"/>
        <pt x="88" y="523" on="0"/>
        <pt x="172" y="617" on="0"/>
        <pt x="290" y="673" on="0"/>
        <pt x="362" y="673" on="1"/>
        <pt x="434" y="673" on="0"/>
        <pt x="552" y="617" on="0"/>
        <pt x="636" y="523" on="0"/>
        <pt x="682" y="399" on="0"/>
        <pt x="682" y="331" on="1"/>
        <pt x="682" y="279" on="0"/>
        <pt x="656" y="183" on="0"/>
        <pt x="606" y="101" on="0"/>
        <pt x="536" y="37" on="0"/>
        <pt x="492" y="17" on="1"/>
        <pt x="603" y="-144" on="1"/>
        <pt x="556" y="-168" on="1"/>
        <pt x="446" y="1" on="1"/>
        <pt x="426" y="-4" on="0"/>
        <pt x="384" y="-10" on="0"/>
        <pt x="362" y="-10" on="1"/>
        <pt x="290" y="-10" on="0"/>
        <pt x="172" y="45" on="0"/>
        <pt x="88" y="139" on="0"/>
        <pt x="42" y="263" on="0"/>
      </contour>
      <contour>
        <pt x="628" y="331" on="1"/>
        <pt x="628" y="396" on="0"/>
        <pt x="589" y="503" on="0"/>
        <pt x="519" y="580" on="0"/>
        <pt x="421" y="623" on="0"/>
        <pt x="362" y="623" on="1"/>
        <pt x="303" y="623" on="0"/>
        <pt x="205" y="580" on="0"/>
        <pt x="135" y="503" on="0"/>
        <pt x="96" y="396" on="0"/>
        <pt x="96" y="331" on="1"/>
        <pt x="96" y="266" on="0"/>
        <pt x="135" y="159" on="0"/>
        <pt x="205" y="82" on="0"/>
        <pt x="303" y="40" on="0"/>
        <pt x="362" y="40" on="1"/>
        <pt x="421" y="40" on="0"/>
        <pt x="519" y="82" on="0"/>
        <pt x="589" y="159" on="0"/>
        <pt x="628" y="266" on="0"/>
      </contour>
    </TTGlyph>
    <TTGlyph name="R" xMin="84" yMin="0" xMax="582" yMax="663">
      <contour>
        <pt x="378" y="303" on="1"/>
        <pt x="404" y="303" on="0"/>
        <pt x="446" y="318" on="0"/>
        <pt x="460" y="340" on="1"/>
        <pt x="477" y="365" on="0"/>
        <pt x="491" y="429" on="0"/>
        <pt x="491" y="463" on="1"/>
        <pt x="491" y="502" on="0"/>
        <pt x="473" y="562" on="0"/>
        <pt x="453" y="581" on="1"/>
        <pt x="431" y="602" on="0"/>
        <pt x="361" y="620" on="0"/>
        <pt x="306" y="620" on="1"/>
        <pt x="137" y="620" on="1"/>
        <pt x="137" y="303" on="1"/>
      </contour>
      <contour>
        <pt x="315" y="663" on="1"/>
        <pt x="380" y="663" on="0"/>
        <pt x="466" y="636" on="0"/>
        <pt x="494" y="609" on="1"/>
        <pt x="520" y="583" on="0"/>
        <pt x="544" y="510" on="0"/>
        <pt x="544" y="465" on="1"/>
        <pt x="544" y="430" on="0"/>
        <pt x="529" y="366" on="0"/>
        <pt x="500" y="314" on="0"/>
        <pt x="457" y="276" on="0"/>
        <pt x="429" y="266" on="1"/>
        <pt x="582" y="0" on="1"/>
        <pt x="537" y="0" on="1"/>
        <pt x="529" y="0" on="0"/>
        <pt x="524" y="3" on="0"/>
        <pt x="521" y="8" on="1"/>
        <pt x="383" y="251" on="1"/>
        <pt x="379" y="258" on="0"/>
        <pt x="374" y="261" on="0"/>
        <pt x="366" y="261" on="1"/>
        <pt x="137" y="261" on="1"/>
        <pt x="137" y="0" on="1"/>
        <pt x="84" y="0" on="1"/>
        <pt x="84" y="663" on="1"/>
      </contour>
    </TTGlyph>
    <TTGlyph name="Racute" xMin="84" yMin="0" xMax="582" yMax="889">
      <component glyphName="R" x="0" y="0" flags="0x204"/>
      <component glyphName="acute.cap" x="139" y="0" flags="0x4"/>
    </TTGlyph>
    <TTGlyph name="Rcaron" xMin="84" yMin="0" xMax="582" yMax="879">
      <component glyphName="R" x="0" y="0" flags="0x204"/>
      <component glyphName="caron.cap" x="129" y="0" flags="0x4"/>
    </TTGlyph>
    <TTGlyph name="Rcommaaccent" xMin="84" yMin="-250" xMax="582" yMax="663">
      <component glyphName="R" x="0" y="0" flags="0x204"/>
      <component glyphName="commaaccent" x="112" y="0" flags="0x4"/>
    </TTGlyph>
    <TTGlyph name="S" xMin="45" yMin="-10" xMax="498" yMax="673">
      <contour>
        <pt x="120" y="60" on="1"/>
        <pt x="199" y="36" on="0"/>
        <pt x="267" y="36" on="1"/>
        <pt x="356" y="36" on="0"/>
        <pt x="447" y="118" on="0"/>
        <pt x="447" y="182" on="1"/>
        <pt x="447" y="209" on="0"/>
        <pt x="431" y="248" on="0"/>
        <pt x="396" y="280" on="0"/>
        <pt x="342" y="307" on="0"/>
        <pt x="304" y="321" on="1"/>
        <pt x="231" y="348" on="1"/>
        <pt x="184" y="365" on="0"/>
        <pt x="119" y="401" on="0"/>
        <pt x="78" y="442" on="0"/>
        <pt x="59" y="490" on="0"/>
        <pt x="59" y="519" on="1"/>
        <pt x="59" y="556" on="0"/>
        <pt x="90" y="614" on="0"/>
        <pt x="147" y="653" on="0"/>
        <pt x="225" y="673" on="0"/>
        <pt x="272" y="673" on="1"/>
        <pt x="317" y="673" on="0"/>
        <pt x="424" y="653" on="0"/>
        <pt x="470" y="636" on="1"/>
        <pt x="460" y="605" on="1"/>
        <pt x="411" y="613" on="1"/>
        <pt x="373" y="619" on="0"/>
        <pt x="308" y="626" on="0"/>
        <pt x="273" y="626" on="1"/>
        <pt x="198" y="626" on="0"/>
        <pt x="108" y="577" on="0"/>
        <pt x="108" y="520" on="1"/>
        <pt x="108" y="472" on="0"/>
        <pt x="177" y="418" on="0"/>
        <pt x="248" y="393" on="1"/>
        <pt x="319" y="367" on="1"/>
        <pt x="359" y="352" on="0"/>
        <pt x="426" y="318" on="0"/>
        <pt x="472" y="275" on="0"/>
        <pt x="498" y="218" on="0"/>
        <pt x="498" y="180" on="1"/>
        <pt x="498" y="136" on="0"/>
        <pt x="463" y="65" on="0"/>
        <pt x="401" y="16" on="0"/>
        <pt x="317" y="-10" on="0"/>
        <pt x="268" y="-10" on="1"/>
        <pt x="242" y="-10" on="0"/>
        <pt x="183" y="-1" on="0"/>
        <pt x="123" y="14" on="0"/>
        <pt x="67" y="36" on="0"/>
        <pt x="45" y="49" on="1"/>
        <pt x="59" y="78" on="1"/>
      </contour>
    </TTGlyph>
    <TTGlyph name="Sacute" xMin="45" yMin="-10" xMax="498" yMax="889">
      <component glyphName="S" x="0" y="0" flags="0x204"/>
      <component glyphName="acute.cap" x="102" y="0" flags="0x4"/>
    </TTGlyph>
    <TTGlyph name="Scaron" xMin="45" yMin="-10" xMax="498" yMax="879">
      <component glyphName="S" x="0" y="0" flags="0x204"/>
      <component glyphName="caron.cap" x="87" y="0" flags="0x4"/>
    </TTGlyph>
    <TTGlyph name="Scedilla" xMin="45" yMin="-209" xMax="498" yMax="673">
      <contour>
        <pt x="120" y="60" on="1"/>
        <pt x="199" y="36" on="0"/>
        <pt x="267" y="36" on="1"/>
        <pt x="356" y="36" on="0"/>
        <pt x="447" y="118" on="0"/>
        <pt x="447" y="182" on="1"/>
        <pt x="447" y="209" on="0"/>
        <pt x="431" y="248" on="0"/>
        <pt x="396" y="280" on="0"/>
        <pt x="342" y="307" on="0"/>
        <pt x="304" y="321" on="1"/>
        <pt x="231" y="348" on="1"/>
        <pt x="184" y="365" on="0"/>
        <pt x="119" y="401" on="0"/>
        <pt x="78" y="442" on="0"/>
        <pt x="59" y="490" on="0"/>
        <pt x="59" y="519" on="1"/>
        <pt x="59" y="556" on="0"/>
        <pt x="90" y="614" on="0"/>
        <pt x="146" y="653" on="0"/>
        <pt x="224" y="673" on="0"/>
        <pt x="272" y="673" on="1"/>
        <pt x="317" y="673" on="0"/>
        <pt x="424" y="653" on="0"/>
        <pt x="470" y="636" on="1"/>
        <pt x="460" y="605" on="1"/>
        <pt x="411" y="613" on="1"/>
        <pt x="373" y="619" on="0"/>
        <pt x="308" y="626" on="0"/>
        <pt x="273" y="626" on="1"/>
        <pt x="199" y="626" on="0"/>
        <pt x="108" y="575" on="0"/>
        <pt x="108" y="520" on="1"/>
        <pt x="108" y="472" on="0"/>
        <pt x="177" y="418" on="0"/>
        <pt x="248" y="393" on="1"/>
        <pt x="319" y="367" on="1"/>
        <pt x="359" y="352" on="0"/>
        <pt x="426" y="318" on="0"/>
        <pt x="472" y="275" on="0"/>
        <pt x="498" y="218" on="0"/>
        <pt x="498" y="180" on="1"/>
        <pt x="498" y="138" on="0"/>
        <pt x="466" y="70" on="0"/>
        <pt x="409" y="21" on="0"/>
        <pt x="332" y="-7" on="0"/>
        <pt x="286" y="-9" on="1"/>
        <pt x="281" y="-21" on="0"/>
        <pt x="281" y="-29" on="1"/>
        <pt x="281" y="-41" on="0"/>
        <pt x="317" y="-57" on="0"/>
        <pt x="361" y="-75" on="0"/>
        <pt x="397" y="-102" on="0"/>
        <pt x="397" y="-126" on="1"/>
        <pt x="397" y="-160" on="0"/>
        <pt x="320" y="-205" on="0"/>
        <pt x="238" y="-209" on="1"/>
        <pt x="231" y="-178" on="1"/>
        <pt x="297" y="-164" on="1"/>
        <pt x="347" y="-153" on="0"/>
        <pt x="347" y="-132" on="1"/>
        <pt x="347" y="-119" on="0"/>
        <pt x="312" y="-103" on="0"/>
        <pt x="270" y="-86" on="0"/>
        <pt x="235" y="-65" on="0"/>
        <pt x="235" y="-47" on="1"/>
        <pt x="235" y="-29" on="0"/>
        <pt x="249" y="-9" on="1"/>
        <pt x="198" y="-6" on="0"/>
        <pt x="86" y="25" on="0"/>
        <pt x="45" y="49" on="1"/>
        <pt x="59" y="78" on="1"/>
      </contour>
    </TTGlyph>
    <TTGlyph name="Scircumflex" xMin="45" yMin="-10" xMax="498" yMax="869">
      <component glyphName="S" x="0" y="0" flags="0x204"/>
      <component glyphName="circumflex.cap" x="90" y="0" flags="0x4"/>
    </TTGlyph>
    <TTGlyph name="Scommaaccent" xMin="45" yMin="-250" xMax="498" yMax="673">
      <component glyphName="S" x="0" y="0" flags="0x204"/>
      <component glyphName="commaaccent" x="69" y="0" flags="0x4"/>
    </TTGlyph>
    <TTGlyph name="T" xMin="25" yMin="0" xMax="534" yMax="663">
      <contour>
        <pt x="253" y="620" on="1"/>
        <pt x="25" y="620" on="1"/>
        <pt x="25" y="663" on="1"/>
        <pt x="534" y="663" on="1"/>
        <pt x="534" y="620" on="1"/>
        <pt x="306" y="620" on="1"/>
        <pt x="306" y="0" on="1"/>
        <pt x="253" y="0" on="1"/>
      </contour>
    </TTGlyph>
    <TTGlyph name="Tbar" xMin="25" yMin="0" xMax="534" yMax="663">
      <contour>
        <pt x="253" y="313" on="1"/>
        <pt x="100" y="313" on="1"/>
        <pt x="100" y="354" on="1"/>
        <pt x="253" y="354" on="1"/>
        <pt x="253" y="620" on="1"/>
        <pt x="25" y="620" on="1"/>
        <pt x="25" y="663" on="1"/>
        <pt x="534" y="663" on="1"/>
        <pt x="534" y="620" on="1"/>
        <pt x="306" y="620" on="1"/>
        <pt x="306" y="354" on="1"/>
        <pt x="459" y="354" on="1"/>
        <pt x="459" y="313" on="1"/>
        <pt x="306" y="313" on="1"/>
        <pt x="306" y="0" on="1"/>
        <pt x="253" y="0" on="1"/>
      </contour>
    </TTGlyph>
    <TTGlyph name="Tcaron" xMin="25" yMin="0" xMax="534" yMax="879">
      <component glyphName="T" x="0" y="0" flags="0x204"/>
      <component glyphName="caron.cap" x="90" y="0" flags="0x4"/>
    </TTGlyph>
    <TTGlyph name="Tcommaaccent" xMin="25" yMin="-250" xMax="534" yMax="663">
      <component glyphName="T" x="0" y="0" flags="0x204"/>
      <component glyphName="commaaccent" x="74" y="0" flags="0x4"/>
    </TTGlyph>
    <TTGlyph name="Thorn" xMin="84" yMin="0" xMax="546" yMax="663">
      <contour>
        <pt x="137" y="0" on="1"/>
        <pt x="84" y="0" on="1"/>
        <pt x="84" y="663" on="1"/>
        <pt x="137" y="663" on="1"/>
        <pt x="137" y="544" on="1"/>
        <pt x="316" y="544" on="1"/>
        <pt x="381" y="544" on="0"/>
        <pt x="467" y="516" on="0"/>
        <pt x="495" y="489" on="1"/>
        <pt x="521" y="463" on="0"/>
        <pt x="546" y="391" on="0"/>
        <pt x="546" y="346" on="1"/>
        <pt x="546" y="292" on="0"/>
        <pt x="511" y="193" on="0"/>
        <pt x="478" y="162" on="1"/>
        <pt x="455" y="140" on="0"/>
        <pt x="408" y="125" on="0"/>
        <pt x="366" y="125" on="1"/>
        <pt x="137" y="125" on="1"/>
      </contour>
      <contour>
        <pt x="137" y="168" on="1"/>
        <pt x="371" y="168" on="1"/>
        <pt x="401" y="168" on="0"/>
        <pt x="438" y="182" on="0"/>
        <pt x="452" y="200" on="1"/>
        <pt x="474" y="229" on="0"/>
        <pt x="493" y="303" on="0"/>
        <pt x="493" y="344" on="1"/>
        <pt x="493" y="421" on="0"/>
        <pt x="458" y="457" on="1"/>
        <pt x="436" y="480" on="0"/>
        <pt x="366" y="499" on="0"/>
        <pt x="309" y="499" on="1"/>
        <pt x="137" y="499" on="1"/>
      </contour>
    </TTGlyph>
    <TTGlyph name="U" xMin="80" yMin="-10" xMax="599" yMax="663">
      <contour>
        <pt x="599" y="244" on="1"/>
        <pt x="599" y="186" on="0"/>
        <pt x="571" y="101" on="0"/>
        <pt x="542" y="69" on="1"/>
        <pt x="508" y="31" on="0"/>
        <pt x="406" y="-10" on="0"/>
        <pt x="340" y="-10" on="1"/>
        <pt x="274" y="-10" on="0"/>
        <pt x="172" y="31" on="0"/>
        <pt x="138" y="69" on="1"/>
        <pt x="109" y="101" on="0"/>
        <pt x="80" y="187" on="0"/>
        <pt x="80" y="245" on="1"/>
        <pt x="80" y="663" on="1"/>
        <pt x="133" y="663" on="1"/>
        <pt x="133" y="254" on="1"/>
        <pt x="133" y="197" on="0"/>
        <pt x="155" y="123" on="0"/>
        <pt x="181" y="96" on="1"/>
        <pt x="207" y="69" on="0"/>
        <pt x="289" y="39" on="0"/>
        <pt x="340" y="39" on="1"/>
        <pt x="391" y="39" on="0"/>
        <pt x="473" y="69" on="0"/>
        <pt x="499" y="96" on="1"/>
        <pt x="525" y="123" on="0"/>
        <pt x="547" y="197" on="0"/>
        <pt x="547" y="254" on="1"/>
        <pt x="547" y="663" on="1"/>
        <pt x="599" y="663" on="1"/>
      </contour>
    </TTGlyph>
    <TTGlyph name="Uacute" xMin="80" yMin="-10" xMax="599" yMax="889">
      <component glyphName="U" x="0" y="0" flags="0x204"/>
      <component glyphName="acute.cap" x="171" y="0" flags="0x4"/>
    </TTGlyph>
    <TTGlyph name="Ubreve" xMin="80" yMin="-10" xMax="599" yMax="851">
      <component glyphName="U" x="0" y="0" flags="0x204"/>
      <component glyphName="breve.cap" x="148" y="0" flags="0x4"/>
    </TTGlyph>
    <TTGlyph name="Ucircumflex" xMin="80" yMin="-10" xMax="599" yMax="869">
      <component glyphName="U" x="0" y="0" flags="0x204"/>
      <component glyphName="circumflex.cap" x="149" y="0" flags="0x4"/>
    </TTGlyph>
    <TTGlyph name="Udieresis" xMin="80" yMin="-10" xMax="599" yMax="826">
      <component glyphName="U" x="0" y="0" flags="0x204"/>
      <component glyphName="dieresis.cap" x="147" y="0" flags="0x4"/>
    </TTGlyph>
    <TTGlyph name="Ugrave" xMin="80" yMin="-10" xMax="599" yMax="890">
      <component glyphName="U" x="0" y="0" flags="0x204"/>
      <component glyphName="grave.cap" x="130" y="0" flags="0x4"/>
    </TTGlyph>
    <TTGlyph name="Uhungarumlaut" xMin="80" yMin="-10" xMax="599" yMax="915">
      <component glyphName="U" x="0" y="0" flags="0x204"/>
      <component glyphName="hungarumlaut.cap" x="189" y="0" flags="0x4"/>
    </TTGlyph>
    <TTGlyph name="Umacron" xMin="80" yMin="-10" xMax="599" yMax="788">
      <component glyphName="U" x="0" y="0" flags="0x204"/>
      <component glyphName="macron.cap" x="148" y="0" flags="0x4"/>
    </TTGlyph>
    <TTGlyph name="Uogonek" xMin="80" yMin="-180" xMax="599" yMax="663">
      <contour>
        <pt x="540" y="68" on="1"/>
        <pt x="519" y="45" on="0"/>
        <pt x="458" y="8" on="0"/>
        <pt x="401" y="-29" on="0"/>
        <pt x="361" y="-70" on="0"/>
        <pt x="361" y="-97" on="1"/>
        <pt x="361" y="-117" on="0"/>
        <pt x="388" y="-142" on="0"/>
        <pt x="416" y="-142" on="1"/>
        <pt x="424" y="-142" on="0"/>
        <pt x="445" y="-139" on="0"/>
        <pt x="457" y="-137" on="1"/>
        <pt x="477" y="-133" on="1"/>
        <pt x="486" y="-158" on="1"/>
        <pt x="472" y="-167" on="0"/>
        <pt x="428" y="-180" on="0"/>
        <pt x="406" y="-180" on="1"/>
        <pt x="364" y="-180" on="0"/>
        <pt x="311" y="-137" on="0"/>
        <pt x="311" y="-102" on="1"/>
        <pt x="311" y="-74" on="0"/>
        <pt x="347" y="-26" on="0"/>
        <pt x="376" y="-8" on="1"/>
        <pt x="367" y="-9" on="0"/>
        <pt x="349" y="-10" on="0"/>
        <pt x="340" y="-10" on="1"/>
        <pt x="274" y="-10" on="0"/>
        <pt x="173" y="30" on="0"/>
        <pt x="139" y="68" on="1"/>
        <pt x="110" y="100" on="0"/>
        <pt x="80" y="189" on="0"/>
        <pt x="80" y="248" on="1"/>
        <pt x="80" y="663" on="1"/>
        <pt x="133" y="663" on="1"/>
        <pt x="133" y="254" on="1"/>
        <pt x="133" y="147" on="0"/>
        <pt x="182" y="95" on="1"/>
        <pt x="235" y="39" on="0"/>
        <pt x="340" y="39" on="1"/>
        <pt x="392" y="39" on="0"/>
        <pt x="472" y="68" on="0"/>
        <pt x="498" y="95" on="1"/>
        <pt x="524" y="122" on="0"/>
        <pt x="547" y="199" on="0"/>
        <pt x="547" y="254" on="1"/>
        <pt x="547" y="663" on="1"/>
        <pt x="599" y="663" on="1"/>
        <pt x="599" y="248" on="1"/>
        <pt x="599" y="133" on="0"/>
      </contour>
    </TTGlyph>
    <TTGlyph name="Uring" xMin="80" yMin="-10" xMax="599" yMax="919">
      <component glyphName="U" x="0" y="0" flags="0x204"/>
      <component glyphName="ring.cap" x="146" y="-5" flags="0x4"/>
    </TTGlyph>
    <TTGlyph name="Utilde" xMin="80" yMin="-10" xMax="599" yMax="831">
      <component glyphName="U" x="0" y="0" flags="0x204"/>
      <component glyphName="tilde.cap" x="155" y="0" flags="0x4"/>
    </TTGlyph>
    <TTGlyph name="V" xMin="17" yMin="0" xMax="638" yMax="663">
      <contour>
        <pt x="62" y="663" on="1"/>
        <pt x="68" y="663" on="0"/>
        <pt x="74" y="660" on="0"/>
        <pt x="76" y="655" on="1"/>
        <pt x="269" y="209" on="1"/>
        <pt x="278" y="189" on="0"/>
        <pt x="296" y="144" on="0"/>
        <pt x="314" y="101" on="0"/>
        <pt x="329" y="62" on="0"/>
        <pt x="334" y="48" on="1"/>
        <pt x="339" y="62" on="0"/>
        <pt x="353" y="100" on="0"/>
        <pt x="370" y="143" on="0"/>
        <pt x="388" y="187" on="0"/>
        <pt x="396" y="207" on="1"/>
        <pt x="580" y="655" on="1"/>
        <pt x="582" y="660" on="0"/>
        <pt x="587" y="663" on="0"/>
        <pt x="594" y="663" on="1"/>
        <pt x="638" y="663" on="1"/>
        <pt x="362" y="0" on="1"/>
        <pt x="316" y="0" on="1"/>
        <pt x="306" y="0" on="0"/>
        <pt x="302" y="8" on="1"/>
        <pt x="17" y="663" on="1"/>
      </contour>
    </TTGlyph>
    <TTGlyph name="W" xMin="27" yMin="0" xMax="964" yMax="663">
      <contour>
        <pt x="702" y="0" on="1"/>
        <pt x="692" y="0" on="0"/>
        <pt x="689" y="8" on="1"/>
        <pt x="542" y="447" on="1"/>
        <pt x="528" y="488" on="0"/>
        <pt x="501" y="576" on="0"/>
        <pt x="493" y="609" on="1"/>
        <pt x="485" y="575" on="0"/>
        <pt x="461" y="487" on="0"/>
        <pt x="449" y="445" on="1"/>
        <pt x="318" y="0" on="1"/>
        <pt x="269" y="0" on="1"/>
        <pt x="259" y="0" on="0"/>
        <pt x="256" y="8" on="1"/>
        <pt x="27" y="663" on="1"/>
        <pt x="74" y="663" on="1"/>
        <pt x="80" y="663" on="0"/>
        <pt x="84" y="660" on="0"/>
        <pt x="86" y="655" on="1"/>
        <pt x="241" y="201" on="1"/>
        <pt x="255" y="161" on="0"/>
        <pt x="279" y="79" on="0"/>
        <pt x="286" y="53" on="1"/>
        <pt x="289" y="65" on="0"/>
        <pt x="298" y="99" on="0"/>
        <pt x="309" y="138" on="0"/>
        <pt x="321" y="179" on="0"/>
        <pt x="327" y="199" on="1"/>
        <pt x="464" y="663" on="1"/>
        <pt x="512" y="663" on="1"/>
        <pt x="522" y="663" on="0"/>
        <pt x="525" y="655" on="1"/>
        <pt x="677" y="201" on="1"/>
        <pt x="683" y="183" on="0"/>
        <pt x="696" y="141" on="0"/>
        <pt x="709" y="101" on="0"/>
        <pt x="719" y="65" on="0"/>
        <pt x="722" y="52" on="1"/>
        <pt x="725" y="63" on="0"/>
        <pt x="735" y="98" on="0"/>
        <pt x="747" y="138" on="0"/>
        <pt x="760" y="181" on="0"/>
        <pt x="766" y="201" on="1"/>
        <pt x="908" y="655" on="1"/>
        <pt x="910" y="660" on="0"/>
        <pt x="914" y="663" on="0"/>
        <pt x="920" y="663" on="1"/>
        <pt x="964" y="663" on="1"/>
        <pt x="752" y="0" on="1"/>
      </contour>
    </TTGlyph>
    <TTGlyph name="Wacute" xMin="27" yMin="0" xMax="964" yMax="889">
      <component glyphName="W" x="0" y="0" flags="0x204"/>
      <component glyphName="acute.cap" x="314" y="0" flags="0x4"/>
    </TTGlyph>
    <TTGlyph name="Wcircumflex" xMin="27" yMin="0" xMax="964" yMax="869">
      <component glyphName="W" x="0" y="0" flags="0x204"/>
      <component glyphName="circumflex.cap" x="305" y="0" flags="0x4"/>
    </TTGlyph>
    <TTGlyph name="Wdieresis" xMin="27" yMin="0" xMax="964" yMax="826">
      <component glyphName="W" x="0" y="0" flags="0x204"/>
      <component glyphName="dieresis.cap" x="304" y="0" flags="0x4"/>
    </TTGlyph>
    <TTGlyph name="Wgrave" xMin="27" yMin="0" xMax="964" yMax="890">
      <component glyphName="W" x="0" y="0" flags="0x204"/>
      <component glyphName="grave.cap" x="299" y="0" flags="0x4"/>
    </TTGlyph>
    <TTGlyph name="X" xMin="17" yMin="0" xMax="611" yMax="663">
      <contour>
        <pt x="561" y="0" on="1"/>
        <pt x="555" y="0" on="0"/>
        <pt x="549" y="3" on="0"/>
        <pt x="546" y="7" on="1"/>
        <pt x="311" y="314" on="1"/>
        <pt x="83" y="8" on="1"/>
        <pt x="79" y="3" on="0"/>
        <pt x="74" y="0" on="0"/>
        <pt x="68" y="0" on="1"/>
        <pt x="17" y="0" on="1"/>
        <pt x="281" y="351" on="1"/>
        <pt x="41" y="663" on="1"/>
        <pt x="91" y="663" on="1"/>
        <pt x="97" y="663" on="0"/>
        <pt x="102" y="660" on="0"/>
        <pt x="106" y="655" on="1"/>
        <pt x="313" y="386" on="1"/>
        <pt x="514" y="655" on="1"/>
        <pt x="518" y="660" on="0"/>
        <pt x="523" y="663" on="0"/>
        <pt x="531" y="663" on="1"/>
        <pt x="578" y="663" on="1"/>
        <pt x="343" y="350" on="1"/>
        <pt x="611" y="0" on="1"/>
      </contour>
    </TTGlyph>
    <TTGlyph name="Y" xMin="7" yMin="0" xMax="574" yMax="663">
      <contour>
        <pt x="316" y="223" on="1"/>
        <pt x="316" y="0" on="1"/>
        <pt x="263" y="0" on="1"/>
        <pt x="263" y="223" on="1"/>
        <pt x="7" y="663" on="1"/>
        <pt x="53" y="663" on="1"/>
        <pt x="63" y="663" on="0"/>
        <pt x="68" y="655" on="1"/>
        <pt x="290" y="268" on="1"/>
        <pt x="513" y="654" on="1"/>
        <pt x="516" y="659" on="0"/>
        <pt x="522" y="663" on="0"/>
        <pt x="530" y="663" on="1"/>
        <pt x="574" y="663" on="1"/>
      </contour>
    </TTGlyph>
    <TTGlyph name="Yacute" xMin="7" yMin="0" xMax="574" yMax="889">
      <component glyphName="Y" x="0" y="0" flags="0x204"/>
      <component glyphName="acute.cap" x="128" y="0" flags="0x4"/>
    </TTGlyph>
    <TTGlyph name="Ycircumflex" xMin="7" yMin="0" xMax="574" yMax="869">
      <component glyphName="Y" x="0" y="0" flags="0x204"/>
      <component glyphName="circumflex.cap" x="98" y="0" flags="0x4"/>
    </TTGlyph>
    <TTGlyph name="Ydieresis" xMin="7" yMin="0" xMax="574" yMax="826">
      <component glyphName="Y" x="0" y="0" flags="0x204"/>
      <component glyphName="dieresis.cap" x="96" y="0" flags="0x4"/>
    </TTGlyph>
    <TTGlyph name="Ygrave" xMin="7" yMin="0" xMax="574" yMax="890">
      <component glyphName="Y" x="0" y="0" flags="0x204"/>
      <component glyphName="grave.cap" x="63" y="0" flags="0x4"/>
    </TTGlyph>
    <TTGlyph name="Z" xMin="44" yMin="0" xMax="508" yMax="663">
      <contour>
        <pt x="500" y="638" on="1"/>
        <pt x="500" y="630" on="0"/>
        <pt x="494" y="620" on="1"/>
        <pt x="107" y="43" on="1"/>
        <pt x="508" y="43" on="1"/>
        <pt x="508" y="0" on="1"/>
        <pt x="44" y="0" on="1"/>
        <pt x="44" y="23" on="1"/>
        <pt x="44" y="29" on="0"/>
        <pt x="46" y="36" on="0"/>
        <pt x="50" y="42" on="1"/>
        <pt x="437" y="620" on="1"/>
        <pt x="45" y="620" on="1"/>
        <pt x="45" y="663" on="1"/>
        <pt x="500" y="663" on="1"/>
      </contour>
    </TTGlyph>
    <TTGlyph name="Zacute" xMin="44" yMin="0" xMax="508" yMax="889">
      <component glyphName="Z" x="0" y="0" flags="0x204"/>
      <component glyphName="acute.cap" x="91" y="0" flags="0x4"/>
    </TTGlyph>
    <TTGlyph name="Zcaron" xMin="44" yMin="0" xMax="508" yMax="879">
      <component glyphName="Z" x="0" y="0" flags="0x204"/>
      <component glyphName="caron.cap" x="83" y="0" flags="0x4"/>
    </TTGlyph>
    <TTGlyph name="Zdotaccent" xMin="44" yMin="0" xMax="508" yMax="818">
      <component glyphName="Z" x="0" y="0" flags="0x204"/>
      <component glyphName="dotaccent.cap" x="78" y="0" flags="0x4"/>
    </TTGlyph>
    <TTGlyph name="a" xMin="47" yMin="-8" xMax="524" yMax="496">
      <contour>
        <pt x="524" y="32" on="1"/>
        <pt x="524" y="11" on="1"/>
        <pt x="511" y="6" on="0"/>
        <pt x="478" y="-2" on="0"/>
        <pt x="463" y="-2" on="1"/>
        <pt x="405" y="-2" on="0"/>
        <pt x="394" y="48" on="1"/>
        <pt x="369" y="35" on="1"/>
        <pt x="333" y="16" on="0"/>
        <pt x="259" y="-8" on="0"/>
        <pt x="221" y="-8" on="1"/>
        <pt x="182" y="-8" on="0"/>
        <pt x="118" y="18" on="0"/>
        <pt x="72" y="61" on="0"/>
        <pt x="47" y="119" on="0"/>
        <pt x="47" y="152" on="1"/>
        <pt x="47" y="201" on="0"/>
        <pt x="76" y="230" on="1"/>
        <pt x="112" y="267" on="0"/>
        <pt x="193" y="267" on="1"/>
        <pt x="212" y="267" on="0"/>
        <pt x="277" y="265" on="0"/>
        <pt x="313" y="263" on="1"/>
        <pt x="392" y="260" on="1"/>
        <pt x="392" y="318" on="1"/>
        <pt x="392" y="355" on="0"/>
        <pt x="377" y="401" on="0"/>
        <pt x="363" y="417" on="1"/>
        <pt x="346" y="436" on="0"/>
        <pt x="290" y="452" on="0"/>
        <pt x="259" y="452" on="1"/>
        <pt x="231" y="452" on="0"/>
        <pt x="174" y="442" on="0"/>
        <pt x="136" y="430" on="1"/>
        <pt x="87" y="415" on="1"/>
        <pt x="74" y="442" on="1"/>
        <pt x="125" y="468" on="0"/>
        <pt x="220" y="496" on="0"/>
        <pt x="260" y="496" on="1"/>
        <pt x="305" y="496" on="0"/>
        <pt x="378" y="470" on="0"/>
        <pt x="403" y="443" on="1"/>
        <pt x="423" y="422" on="0"/>
        <pt x="443" y="363" on="0"/>
        <pt x="443" y="319" on="1"/>
        <pt x="443" y="43" on="1"/>
      </contour>
      <contour>
        <pt x="392" y="218" on="1"/>
        <pt x="392" y="224" on="0"/>
        <pt x="388" y="227" on="0"/>
        <pt x="382" y="227" on="1"/>
        <pt x="191" y="227" on="1"/>
        <pt x="138" y="227" on="0"/>
        <pt x="119" y="209" on="1"/>
        <pt x="99" y="190" on="0"/>
        <pt x="99" y="153" on="1"/>
        <pt x="99" y="102" on="0"/>
        <pt x="168" y="35" on="0"/>
        <pt x="231" y="35" on="1"/>
        <pt x="250" y="35" on="0"/>
        <pt x="292" y="43" on="0"/>
        <pt x="331" y="55" on="0"/>
        <pt x="367" y="71" on="0"/>
        <pt x="380" y="79" on="1"/>
        <pt x="388" y="84" on="0"/>
        <pt x="392" y="91" on="0"/>
        <pt x="392" y="98" on="1"/>
      </contour>
    </TTGlyph>
    <TTGlyph name="aacute" xMin="47" yMin="-8" xMax="524" yMax="701">
      <component glyphName="a" x="0" y="0" flags="0x204"/>
      <component glyphName="acute" x="80" y="0" flags="0x4"/>
    </TTGlyph>
    <TTGlyph name="abreve" xMin="47" yMin="-8" xMax="524" yMax="681">
      <component glyphName="a" x="0" y="0" flags="0x204"/>
      <component glyphName="breve" x="68" y="0" flags="0x4"/>
    </TTGlyph>
    <TTGlyph name="acaron" xMin="47" yMin="-8" xMax="524" yMax="699">
      <component glyphName="a" x="0" y="0" flags="0x204"/>
      <component glyphName="caron" x="69" y="0" flags="0x4"/>
    </TTGlyph>
    <TTGlyph name="acircumflex" xMin="47" yMin="-8" xMax="524" yMax="699">
      <component glyphName="a" x="0" y="0" flags="0x204"/>
      <component glyphName="circumflex" x="67" y="0" flags="0x4"/>
    </TTGlyph>
    <TTGlyph name="acute" xMin="79" yMin="537" xMax="305" yMax="701">
      <contour>
        <pt x="95" y="537" on="1"/>
        <pt x="79" y="559" on="1"/>
        <pt x="265" y="696" on="1"/>
        <pt x="273" y="701" on="0"/>
        <pt x="278" y="694" on="1"/>
        <pt x="305" y="654" on="1"/>
      </contour>
    </TTGlyph>
    <TTGlyph name="acute.cap" xMin="79" yMin="725" xMax="305" yMax="889">
      <contour>
        <pt x="95" y="725" on="1"/>
        <pt x="79" y="747" on="1"/>
        <pt x="265" y="884" on="1"/>
        <pt x="273" y="889" on="0"/>
        <pt x="278" y="882" on="1"/>
        <pt x="305" y="842" on="1"/>
      </contour>
    </TTGlyph>
    <TTGlyph name="adieresis" xMin="47" yMin="-8" xMax="524" yMax="646">
      <component glyphName="a" x="0" y="0" flags="0x204"/>
      <component glyphName="dieresis" x="65" y="0" flags="0x4"/>
    </TTGlyph>
    <TTGlyph name="ae" xMin="47" yMin="-8" xMax="838" yMax="496">
      <contour>
        <pt x="627" y="-8" on="1"/>
        <pt x="569" y="-8" on="0"/>
        <pt x="478" y="34" on="0"/>
        <pt x="447" y="72" on="1"/>
        <pt x="402" y="46" on="1"/>
        <pt x="357" y="20" on="0"/>
        <pt x="273" y="-8" on="0"/>
        <pt x="228" y="-8" on="1"/>
        <pt x="187" y="-8" on="0"/>
        <pt x="120" y="16" on="0"/>
        <pt x="97" y="38" on="1"/>
        <pt x="73" y="60" on="0"/>
        <pt x="47" y="119" on="0"/>
        <pt x="47" y="152" on="1"/>
        <pt x="47" y="201" on="0"/>
        <pt x="76" y="230" on="1"/>
        <pt x="112" y="267" on="0"/>
        <pt x="193" y="267" on="1"/>
        <pt x="212" y="267" on="0"/>
        <pt x="277" y="265" on="0"/>
        <pt x="313" y="263" on="1"/>
        <pt x="392" y="260" on="1"/>
        <pt x="392" y="318" on="1"/>
        <pt x="392" y="355" on="0"/>
        <pt x="377" y="401" on="0"/>
        <pt x="363" y="417" on="1"/>
        <pt x="346" y="436" on="0"/>
        <pt x="290" y="452" on="0"/>
        <pt x="259" y="452" on="1"/>
        <pt x="231" y="452" on="0"/>
        <pt x="174" y="442" on="0"/>
        <pt x="136" y="430" on="1"/>
        <pt x="87" y="415" on="1"/>
        <pt x="74" y="442" on="1"/>
        <pt x="125" y="468" on="0"/>
        <pt x="220" y="496" on="0"/>
        <pt x="260" y="496" on="1"/>
        <pt x="286" y="496" on="0"/>
        <pt x="339" y="484" on="0"/>
        <pt x="386" y="459" on="0"/>
        <pt x="421" y="418" on="0"/>
        <pt x="430" y="389" on="1"/>
        <pt x="460" y="439" on="0"/>
        <pt x="558" y="496" on="0"/>
        <pt x="619" y="496" on="1"/>
        <pt x="667" y="496" on="0"/>
        <pt x="747" y="460" on="0"/>
        <pt x="805" y="397" on="0"/>
        <pt x="838" y="313" on="0"/>
        <pt x="838" y="264" on="1"/>
        <pt x="838" y="246" on="0"/>
        <pt x="831" y="235" on="0"/>
        <pt x="823" y="235" on="1"/>
        <pt x="443" y="235" on="1"/>
        <pt x="445" y="193" on="0"/>
        <pt x="469" y="121" on="0"/>
        <pt x="515" y="68" on="0"/>
        <pt x="584" y="37" on="0"/>
        <pt x="631" y="37" on="1"/>
        <pt x="663" y="37" on="0"/>
        <pt x="732" y="55" on="0"/>
        <pt x="764" y="70" on="1"/>
        <pt x="815" y="94" on="1"/>
        <pt x="832" y="69" on="1"/>
        <pt x="781" y="32" on="0"/>
        <pt x="676" y="-8" on="0"/>
      </contour>
      <contour>
        <pt x="427" y="103" on="1"/>
        <pt x="399" y="152" on="0"/>
        <pt x="391" y="218" on="1"/>
        <pt x="390" y="224" on="0"/>
        <pt x="386" y="227" on="0"/>
        <pt x="379" y="227" on="1"/>
        <pt x="191" y="227" on="1"/>
        <pt x="138" y="227" on="0"/>
        <pt x="119" y="209" on="1"/>
        <pt x="99" y="190" on="0"/>
        <pt x="99" y="153" on="1"/>
        <pt x="99" y="102" on="0"/>
        <pt x="170" y="35" on="0"/>
        <pt x="233" y="35" on="1"/>
        <pt x="279" y="35" on="0"/>
        <pt x="378" y="71" on="0"/>
      </contour>
      <contour>
        <pt x="789" y="274" on="1"/>
        <pt x="784" y="361" on="0"/>
        <pt x="691" y="452" on="0"/>
        <pt x="619" y="452" on="1"/>
        <pt x="546" y="452" on="0"/>
        <pt x="451" y="359" on="0"/>
        <pt x="444" y="274" on="1"/>
      </contour>
    </TTGlyph>
    <TTGlyph name="aeacute" xMin="47" yMin="-8" xMax="838" yMax="702">
      <component glyphName="ae" x="0" y="0" flags="0x204"/>
      <component glyphName="acute" x="293" y="1" flags="0x4"/>
    </TTGlyph>
    <TTGlyph name="agrave" xMin="47" yMin="-8" xMax="524" yMax="702">
      <component glyphName="a" x="0" y="0" flags="0x204"/>
      <component glyphName="grave" x="60" y="0" flags="0x4"/>
    </TTGlyph>
    <TTGlyph name="amacron" xMin="47" yMin="-8" xMax="524" yMax="617">
      <component glyphName="a" x="0" y="0" flags="0x204"/>
      <component glyphName="macron" x="65" y="0" flags="0x4"/>
    </TTGlyph>
    <TTGlyph name="ampersand" xMin="30" yMin="-10" xMax="687" yMax="673">
      <contour>
        <pt x="471" y="525" on="1"/>
        <pt x="471" y="474" on="0"/>
        <pt x="396" y="379" on="0"/>
        <pt x="330" y="325" on="1"/>
        <pt x="499" y="146" on="1"/>
        <pt x="519" y="175" on="0"/>
        <pt x="563" y="250" on="0"/>
        <pt x="578" y="289" on="1"/>
        <pt x="617" y="391" on="1"/>
        <pt x="650" y="383" on="1"/>
        <pt x="633" y="313" on="0"/>
        <pt x="573" y="171" on="0"/>
        <pt x="528" y="114" on="1"/>
        <pt x="597" y="41" on="1"/>
        <pt x="687" y="30" on="1"/>
        <pt x="687" y="11" on="1"/>
        <pt x="675" y="6" on="0"/>
        <pt x="636" y="-4" on="0"/>
        <pt x="622" y="-4" on="1"/>
        <pt x="595" y="-4" on="0"/>
        <pt x="556" y="17" on="0"/>
        <pt x="532" y="43" on="1"/>
        <pt x="499" y="79" on="1"/>
        <pt x="457" y="38" on="0"/>
        <pt x="350" y="-10" on="0"/>
        <pt x="282" y="-10" on="1"/>
        <pt x="229" y="-10" on="0"/>
        <pt x="137" y="26" on="0"/>
        <pt x="69" y="87" on="0"/>
        <pt x="30" y="167" on="0"/>
        <pt x="30" y="212" on="1"/>
        <pt x="30" y="273" on="0"/>
        <pt x="114" y="367" on="0"/>
        <pt x="187" y="414" on="1"/>
        <pt x="167" y="440" on="0"/>
        <pt x="145" y="491" on="0"/>
        <pt x="145" y="521" on="1"/>
        <pt x="145" y="555" on="0"/>
        <pt x="173" y="612" on="0"/>
        <pt x="219" y="651" on="0"/>
        <pt x="279" y="673" on="0"/>
        <pt x="311" y="673" on="1"/>
        <pt x="342" y="673" on="0"/>
        <pt x="399" y="652" on="0"/>
        <pt x="444" y="613" on="0"/>
        <pt x="471" y="559" on="0"/>
      </contour>
      <contour>
        <pt x="189" y="372" on="1"/>
        <pt x="160" y="349" on="0"/>
        <pt x="119" y="311" on="0"/>
        <pt x="93" y="274" on="0"/>
        <pt x="81" y="236" on="0"/>
        <pt x="81" y="212" on="1"/>
        <pt x="81" y="176" on="0"/>
        <pt x="112" y="112" on="0"/>
        <pt x="167" y="63" on="0"/>
        <pt x="241" y="34" on="0"/>
        <pt x="283" y="34" on="1"/>
        <pt x="343" y="34" on="0"/>
        <pt x="433" y="73" on="0"/>
        <pt x="470" y="110" on="1"/>
        <pt x="209" y="388" on="1"/>
      </contour>
      <contour>
        <pt x="191" y="525" on="1"/>
        <pt x="191" y="509" on="0"/>
        <pt x="200" y="481" on="0"/>
        <pt x="218" y="450" on="0"/>
        <pt x="247" y="414" on="0"/>
        <pt x="268" y="392" on="1"/>
        <pt x="307" y="349" on="1"/>
        <pt x="333" y="375" on="0"/>
        <pt x="377" y="423" on="0"/>
        <pt x="393" y="444" on="1"/>
        <pt x="408" y="464" on="0"/>
        <pt x="426" y="505" on="0"/>
        <pt x="426" y="528" on="1"/>
        <pt x="426" y="571" on="0"/>
        <pt x="360" y="629" on="0"/>
        <pt x="309" y="629" on="1"/>
        <pt x="260" y="629" on="0"/>
        <pt x="191" y="572" on="0"/>
      </contour>
    </TTGlyph>
    <TTGlyph name="aogonek" xMin="47" yMin="-180" xMax="526" yMax="496">
      <contour>
        <pt x="351" y="-102" on="1"/>
        <pt x="351" y="-70" on="0"/>
        <pt x="396" y="-17" on="0"/>
        <pt x="440" y="0" on="1"/>
        <pt x="401" y="9" on="0"/>
        <pt x="394" y="48" on="1"/>
        <pt x="369" y="35" on="1"/>
        <pt x="333" y="16" on="0"/>
        <pt x="259" y="-8" on="0"/>
        <pt x="221" y="-8" on="1"/>
        <pt x="182" y="-8" on="0"/>
        <pt x="118" y="18" on="0"/>
        <pt x="72" y="61" on="0"/>
        <pt x="47" y="119" on="0"/>
        <pt x="47" y="152" on="1"/>
        <pt x="47" y="201" on="0"/>
        <pt x="76" y="230" on="1"/>
        <pt x="112" y="267" on="0"/>
        <pt x="193" y="267" on="1"/>
        <pt x="212" y="267" on="0"/>
        <pt x="277" y="265" on="0"/>
        <pt x="313" y="263" on="1"/>
        <pt x="392" y="260" on="1"/>
        <pt x="392" y="318" on="1"/>
        <pt x="392" y="355" on="0"/>
        <pt x="377" y="401" on="0"/>
        <pt x="363" y="417" on="1"/>
        <pt x="346" y="436" on="0"/>
        <pt x="290" y="452" on="0"/>
        <pt x="259" y="452" on="1"/>
        <pt x="231" y="452" on="0"/>
        <pt x="174" y="442" on="0"/>
        <pt x="136" y="430" on="1"/>
        <pt x="87" y="415" on="1"/>
        <pt x="74" y="442" on="1"/>
        <pt x="125" y="468" on="0"/>
        <pt x="220" y="496" on="0"/>
        <pt x="260" y="496" on="1"/>
        <pt x="305" y="496" on="0"/>
        <pt x="378" y="470" on="0"/>
        <pt x="403" y="443" on="1"/>
        <pt x="423" y="422" on="0"/>
        <pt x="443" y="363" on="0"/>
        <pt x="443" y="319" on="1"/>
        <pt x="443" y="43" on="1"/>
        <pt x="524" y="32" on="1"/>
        <pt x="524" y="11" on="1"/>
        <pt x="493" y="-3" on="1"/>
        <pt x="449" y="-23" on="0"/>
        <pt x="400" y="-70" on="0"/>
        <pt x="400" y="-96" on="1"/>
        <pt x="400" y="-117" on="0"/>
        <pt x="429" y="-142" on="0"/>
        <pt x="457" y="-142" on="1"/>
        <pt x="467" y="-142" on="0"/>
        <pt x="500" y="-138" on="0"/>
        <pt x="517" y="-133" on="1"/>
        <pt x="526" y="-158" on="1"/>
        <pt x="513" y="-167" on="0"/>
        <pt x="468" y="-180" on="0"/>
        <pt x="446" y="-180" on="1"/>
        <pt x="404" y="-180" on="0"/>
        <pt x="351" y="-137" on="0"/>
      </contour>
      <contour>
        <pt x="392" y="218" on="1"/>
        <pt x="392" y="224" on="0"/>
        <pt x="388" y="227" on="0"/>
        <pt x="382" y="227" on="1"/>
        <pt x="191" y="227" on="1"/>
        <pt x="138" y="227" on="0"/>
        <pt x="119" y="209" on="1"/>
        <pt x="99" y="190" on="0"/>
        <pt x="99" y="153" on="1"/>
        <pt x="99" y="102" on="0"/>
        <pt x="168" y="35" on="0"/>
        <pt x="231" y="35" on="1"/>
        <pt x="250" y="35" on="0"/>
        <pt x="292" y="43" on="0"/>
        <pt x="331" y="55" on="0"/>
        <pt x="367" y="71" on="0"/>
        <pt x="380" y="79" on="1"/>
        <pt x="388" y="84" on="0"/>
        <pt x="392" y="91" on="0"/>
        <pt x="392" y="98" on="1"/>
      </contour>
    </TTGlyph>
    <TTGlyph name="apple" xMin="78" yMin="0" xMax="466" yMax="650">
      <contour>
        <pt x="208" y="357" on="1"/>
        <pt x="208" y="370" on="0"/>
        <pt x="227" y="388" on="0"/>
        <pt x="239" y="388" on="1"/>
        <pt x="252" y="388" on="0"/>
        <pt x="269" y="370" on="0"/>
        <pt x="269" y="357" on="1"/>
        <pt x="269" y="344" on="0"/>
        <pt x="252" y="327" on="0"/>
        <pt x="239" y="327" on="1"/>
        <pt x="227" y="327" on="0"/>
        <pt x="208" y="344" on="0"/>
      </contour>
      <contour>
        <pt x="405" y="357" on="1"/>
        <pt x="405" y="370" on="0"/>
        <pt x="424" y="388" on="0"/>
        <pt x="436" y="388" on="1"/>
        <pt x="449" y="388" on="0"/>
        <pt x="466" y="370" on="0"/>
        <pt x="466" y="357" on="1"/>
        <pt x="466" y="344" on="0"/>
        <pt x="449" y="327" on="0"/>
        <pt x="436" y="327" on="1"/>
        <pt x="424" y="327" on="0"/>
        <pt x="405" y="344" on="0"/>
      </contour>
      <contour>
        <pt x="78" y="161" on="1"/>
        <pt x="78" y="174" on="0"/>
        <pt x="95" y="191" on="0"/>
        <pt x="108" y="191" on="1"/>
        <pt x="120" y="191" on="0"/>
        <pt x="139" y="174" on="0"/>
        <pt x="139" y="161" on="1"/>
        <pt x="139" y="148" on="0"/>
        <pt x="120" y="130" on="0"/>
        <pt x="108" y="130" on="1"/>
        <pt x="95" y="130" on="0"/>
        <pt x="78" y="148" on="0"/>
      </contour>
      <contour>
        <pt x="78" y="357" on="1"/>
        <pt x="78" y="370" on="0"/>
        <pt x="95" y="388" on="0"/>
        <pt x="108" y="388" on="1"/>
        <pt x="120" y="388" on="0"/>
        <pt x="139" y="370" on="0"/>
        <pt x="139" y="357" on="1"/>
        <pt x="139" y="344" on="0"/>
        <pt x="120" y="327" on="0"/>
        <pt x="108" y="327" on="1"/>
        <pt x="95" y="327" on="0"/>
        <pt x="78" y="344" on="0"/>
      </contour>
      <contour>
        <pt x="275" y="357" on="1"/>
        <pt x="275" y="370" on="0"/>
        <pt x="292" y="388" on="0"/>
        <pt x="305" y="388" on="1"/>
        <pt x="317" y="388" on="0"/>
        <pt x="336" y="370" on="0"/>
        <pt x="336" y="357" on="1"/>
        <pt x="336" y="344" on="0"/>
        <pt x="317" y="327" on="0"/>
        <pt x="305" y="327" on="1"/>
        <pt x="292" y="327" on="0"/>
        <pt x="275" y="344" on="0"/>
      </contour>
      <contour>
        <pt x="340" y="620" on="1"/>
        <pt x="340" y="632" on="0"/>
        <pt x="357" y="650" on="0"/>
        <pt x="371" y="650" on="1"/>
        <pt x="382" y="650" on="0"/>
        <pt x="401" y="632" on="0"/>
        <pt x="401" y="620" on="1"/>
        <pt x="401" y="606" on="0"/>
        <pt x="382" y="589" on="0"/>
        <pt x="371" y="589" on="1"/>
        <pt x="357" y="589" on="0"/>
        <pt x="340" y="606" on="0"/>
      </contour>
      <contour>
        <pt x="78" y="620" on="1"/>
        <pt x="78" y="632" on="0"/>
        <pt x="95" y="650" on="0"/>
        <pt x="108" y="650" on="1"/>
        <pt x="120" y="650" on="0"/>
        <pt x="139" y="632" on="0"/>
        <pt x="139" y="620" on="1"/>
        <pt x="139" y="606" on="0"/>
        <pt x="120" y="589" on="0"/>
        <pt x="108" y="589" on="1"/>
        <pt x="95" y="589" on="0"/>
        <pt x="78" y="606" on="0"/>
      </contour>
      <contour>
        <pt x="275" y="620" on="1"/>
        <pt x="275" y="632" on="0"/>
        <pt x="292" y="650" on="0"/>
        <pt x="305" y="650" on="1"/>
        <pt x="317" y="650" on="0"/>
        <pt x="336" y="632" on="0"/>
        <pt x="336" y="620" on="1"/>
        <pt x="336" y="606" on="0"/>
        <pt x="317" y="589" on="0"/>
        <pt x="305" y="589" on="1"/>
        <pt x="292" y="589" on="0"/>
        <pt x="275" y="606" on="0"/>
      </contour>
      <contour>
        <pt x="405" y="620" on="1"/>
        <pt x="405" y="632" on="0"/>
        <pt x="424" y="650" on="0"/>
        <pt x="436" y="650" on="1"/>
        <pt x="449" y="650" on="0"/>
        <pt x="466" y="632" on="0"/>
        <pt x="466" y="620" on="1"/>
        <pt x="466" y="606" on="0"/>
        <pt x="449" y="589" on="0"/>
        <pt x="436" y="589" on="1"/>
        <pt x="424" y="589" on="0"/>
        <pt x="405" y="606" on="0"/>
      </contour>
      <contour>
        <pt x="208" y="620" on="1"/>
        <pt x="208" y="632" on="0"/>
        <pt x="227" y="650" on="0"/>
        <pt x="239" y="650" on="1"/>
        <pt x="252" y="650" on="0"/>
        <pt x="269" y="632" on="0"/>
        <pt x="269" y="620" on="1"/>
        <pt x="269" y="606" on="0"/>
        <pt x="252" y="589" on="0"/>
        <pt x="239" y="589" on="1"/>
        <pt x="227" y="589" on="0"/>
        <pt x="208" y="606" on="0"/>
      </contour>
      <contour>
        <pt x="340" y="357" on="1"/>
        <pt x="340" y="370" on="0"/>
        <pt x="357" y="388" on="0"/>
        <pt x="371" y="388" on="1"/>
        <pt x="382" y="388" on="0"/>
        <pt x="401" y="370" on="0"/>
        <pt x="401" y="357" on="1"/>
        <pt x="401" y="344" on="0"/>
        <pt x="382" y="327" on="0"/>
        <pt x="371" y="327" on="1"/>
        <pt x="357" y="327" on="0"/>
        <pt x="340" y="344" on="0"/>
      </contour>
      <contour>
        <pt x="208" y="30" on="1"/>
        <pt x="208" y="42" on="0"/>
        <pt x="227" y="61" on="0"/>
        <pt x="239" y="61" on="1"/>
        <pt x="252" y="61" on="0"/>
        <pt x="269" y="42" on="0"/>
        <pt x="269" y="30" on="1"/>
        <pt x="269" y="17" on="0"/>
        <pt x="252" y="0" on="0"/>
        <pt x="239" y="0" on="1"/>
        <pt x="227" y="0" on="0"/>
        <pt x="208" y="17" on="0"/>
      </contour>
      <contour>
        <pt x="78" y="30" on="1"/>
        <pt x="78" y="42" on="0"/>
        <pt x="95" y="61" on="0"/>
        <pt x="108" y="61" on="1"/>
        <pt x="120" y="61" on="0"/>
        <pt x="139" y="42" on="0"/>
        <pt x="139" y="30" on="1"/>
        <pt x="139" y="17" on="0"/>
        <pt x="120" y="0" on="0"/>
        <pt x="108" y="0" on="1"/>
        <pt x="95" y="0" on="0"/>
        <pt x="78" y="17" on="0"/>
      </contour>
      <contour>
        <pt x="208" y="95" on="1"/>
        <pt x="208" y="109" on="0"/>
        <pt x="227" y="125" on="0"/>
        <pt x="239" y="125" on="1"/>
        <pt x="252" y="125" on="0"/>
        <pt x="269" y="109" on="0"/>
        <pt x="269" y="95" on="1"/>
        <pt x="269" y="82" on="0"/>
        <pt x="252" y="65" on="0"/>
        <pt x="239" y="65" on="1"/>
        <pt x="227" y="65" on="0"/>
        <pt x="208" y="82" on="0"/>
      </contour>
      <contour>
        <pt x="78" y="95" on="1"/>
        <pt x="78" y="109" on="0"/>
        <pt x="95" y="125" on="0"/>
        <pt x="108" y="125" on="1"/>
        <pt x="120" y="125" on="0"/>
        <pt x="139" y="109" on="0"/>
        <pt x="139" y="95" on="1"/>
        <pt x="139" y="82" on="0"/>
        <pt x="120" y="65" on="0"/>
        <pt x="108" y="65" on="1"/>
        <pt x="95" y="65" on="0"/>
        <pt x="78" y="82" on="0"/>
      </contour>
      <contour>
        <pt x="144" y="620" on="1"/>
        <pt x="144" y="632" on="0"/>
        <pt x="162" y="650" on="0"/>
        <pt x="174" y="650" on="1"/>
        <pt x="187" y="650" on="0"/>
        <pt x="204" y="632" on="0"/>
        <pt x="204" y="620" on="1"/>
        <pt x="204" y="606" on="0"/>
        <pt x="187" y="589" on="0"/>
        <pt x="174" y="589" on="1"/>
        <pt x="162" y="589" on="0"/>
        <pt x="144" y="606" on="0"/>
      </contour>
      <contour>
        <pt x="78" y="489" on="1"/>
        <pt x="78" y="501" on="0"/>
        <pt x="95" y="518" on="0"/>
        <pt x="108" y="518" on="1"/>
        <pt x="120" y="518" on="0"/>
        <pt x="139" y="501" on="0"/>
        <pt x="139" y="489" on="1"/>
        <pt x="139" y="476" on="0"/>
        <pt x="120" y="458" on="0"/>
        <pt x="108" y="458" on="1"/>
        <pt x="95" y="458" on="0"/>
        <pt x="78" y="476" on="0"/>
      </contour>
      <contour>
        <pt x="275" y="489" on="1"/>
        <pt x="275" y="501" on="0"/>
        <pt x="292" y="518" on="0"/>
        <pt x="305" y="518" on="1"/>
        <pt x="317" y="518" on="0"/>
        <pt x="336" y="501" on="0"/>
        <pt x="336" y="489" on="1"/>
        <pt x="336" y="476" on="0"/>
        <pt x="317" y="458" on="0"/>
        <pt x="305" y="458" on="1"/>
        <pt x="292" y="458" on="0"/>
        <pt x="275" y="476" on="0"/>
      </contour>
      <contour>
        <pt x="208" y="489" on="1"/>
        <pt x="208" y="501" on="0"/>
        <pt x="227" y="518" on="0"/>
        <pt x="239" y="518" on="1"/>
        <pt x="252" y="518" on="0"/>
        <pt x="269" y="501" on="0"/>
        <pt x="269" y="489" on="1"/>
        <pt x="269" y="476" on="0"/>
        <pt x="252" y="458" on="0"/>
        <pt x="239" y="458" on="1"/>
        <pt x="227" y="458" on="0"/>
        <pt x="208" y="476" on="0"/>
      </contour>
      <contour>
        <pt x="405" y="489" on="1"/>
        <pt x="405" y="501" on="0"/>
        <pt x="424" y="518" on="0"/>
        <pt x="436" y="518" on="1"/>
        <pt x="449" y="518" on="0"/>
        <pt x="466" y="501" on="0"/>
        <pt x="466" y="489" on="1"/>
        <pt x="466" y="476" on="0"/>
        <pt x="449" y="458" on="0"/>
        <pt x="436" y="458" on="1"/>
        <pt x="424" y="458" on="0"/>
        <pt x="405" y="476" on="0"/>
      </contour>
      <contour>
        <pt x="340" y="489" on="1"/>
        <pt x="340" y="501" on="0"/>
        <pt x="357" y="518" on="0"/>
        <pt x="371" y="518" on="1"/>
        <pt x="382" y="518" on="0"/>
        <pt x="401" y="501" on="0"/>
        <pt x="401" y="489" on="1"/>
        <pt x="401" y="476" on="0"/>
        <pt x="382" y="458" on="0"/>
        <pt x="371" y="458" on="1"/>
        <pt x="357" y="458" on="0"/>
        <pt x="340" y="476" on="0"/>
      </contour>
      <contour>
        <pt x="144" y="30" on="1"/>
        <pt x="144" y="42" on="0"/>
        <pt x="162" y="61" on="0"/>
        <pt x="174" y="61" on="1"/>
        <pt x="187" y="61" on="0"/>
        <pt x="204" y="42" on="0"/>
        <pt x="204" y="30" on="1"/>
        <pt x="204" y="17" on="0"/>
        <pt x="187" y="0" on="0"/>
        <pt x="174" y="0" on="1"/>
        <pt x="162" y="0" on="0"/>
        <pt x="144" y="17" on="0"/>
      </contour>
      <contour>
        <pt x="78" y="292" on="1"/>
        <pt x="78" y="304" on="0"/>
        <pt x="95" y="322" on="0"/>
        <pt x="108" y="322" on="1"/>
        <pt x="120" y="322" on="0"/>
        <pt x="139" y="304" on="0"/>
        <pt x="139" y="292" on="1"/>
        <pt x="139" y="279" on="0"/>
        <pt x="120" y="262" on="0"/>
        <pt x="108" y="262" on="1"/>
        <pt x="95" y="262" on="0"/>
        <pt x="78" y="279" on="0"/>
      </contour>
      <contour>
        <pt x="78" y="554" on="1"/>
        <pt x="78" y="566" on="0"/>
        <pt x="95" y="584" on="0"/>
        <pt x="108" y="584" on="1"/>
        <pt x="120" y="584" on="0"/>
        <pt x="139" y="566" on="0"/>
        <pt x="139" y="554" on="1"/>
        <pt x="139" y="541" on="0"/>
        <pt x="120" y="524" on="0"/>
        <pt x="108" y="524" on="1"/>
        <pt x="95" y="524" on="0"/>
        <pt x="78" y="541" on="0"/>
      </contour>
      <contour>
        <pt x="405" y="292" on="1"/>
        <pt x="405" y="304" on="0"/>
        <pt x="424" y="322" on="0"/>
        <pt x="436" y="322" on="1"/>
        <pt x="449" y="322" on="0"/>
        <pt x="466" y="304" on="0"/>
        <pt x="466" y="292" on="1"/>
        <pt x="466" y="279" on="0"/>
        <pt x="449" y="262" on="0"/>
        <pt x="436" y="262" on="1"/>
        <pt x="424" y="262" on="0"/>
        <pt x="405" y="279" on="0"/>
      </contour>
      <contour>
        <pt x="78" y="423" on="1"/>
        <pt x="78" y="436" on="0"/>
        <pt x="95" y="453" on="0"/>
        <pt x="108" y="453" on="1"/>
        <pt x="120" y="453" on="0"/>
        <pt x="139" y="436" on="0"/>
        <pt x="139" y="423" on="1"/>
        <pt x="139" y="410" on="0"/>
        <pt x="120" y="394" on="0"/>
        <pt x="108" y="394" on="1"/>
        <pt x="95" y="394" on="0"/>
        <pt x="78" y="410" on="0"/>
      </contour>
      <contour>
        <pt x="208" y="423" on="1"/>
        <pt x="208" y="436" on="0"/>
        <pt x="227" y="453" on="0"/>
        <pt x="239" y="453" on="1"/>
        <pt x="252" y="453" on="0"/>
        <pt x="269" y="436" on="0"/>
        <pt x="269" y="423" on="1"/>
        <pt x="269" y="410" on="0"/>
        <pt x="252" y="394" on="0"/>
        <pt x="239" y="394" on="1"/>
        <pt x="227" y="394" on="0"/>
        <pt x="208" y="410" on="0"/>
      </contour>
      <contour>
        <pt x="208" y="227" on="1"/>
        <pt x="208" y="239" on="0"/>
        <pt x="227" y="256" on="0"/>
        <pt x="239" y="256" on="1"/>
        <pt x="252" y="256" on="0"/>
        <pt x="269" y="239" on="0"/>
        <pt x="269" y="227" on="1"/>
        <pt x="269" y="214" on="0"/>
        <pt x="252" y="197" on="0"/>
        <pt x="239" y="197" on="1"/>
        <pt x="227" y="197" on="0"/>
        <pt x="208" y="214" on="0"/>
      </contour>
      <contour>
        <pt x="405" y="227" on="1"/>
        <pt x="405" y="239" on="0"/>
        <pt x="424" y="256" on="0"/>
        <pt x="436" y="256" on="1"/>
        <pt x="449" y="256" on="0"/>
        <pt x="466" y="239" on="0"/>
        <pt x="466" y="227" on="1"/>
        <pt x="466" y="214" on="0"/>
        <pt x="449" y="197" on="0"/>
        <pt x="436" y="197" on="1"/>
        <pt x="424" y="197" on="0"/>
        <pt x="405" y="214" on="0"/>
      </contour>
      <contour>
        <pt x="78" y="227" on="1"/>
        <pt x="78" y="239" on="0"/>
        <pt x="95" y="256" on="0"/>
        <pt x="108" y="256" on="1"/>
        <pt x="120" y="256" on="0"/>
        <pt x="139" y="239" on="0"/>
        <pt x="139" y="227" on="1"/>
        <pt x="139" y="214" on="0"/>
        <pt x="120" y="197" on="0"/>
        <pt x="108" y="197" on="1"/>
        <pt x="95" y="197" on="0"/>
        <pt x="78" y="214" on="0"/>
      </contour>
      <contour>
        <pt x="275" y="227" on="1"/>
        <pt x="275" y="239" on="0"/>
        <pt x="292" y="256" on="0"/>
        <pt x="305" y="256" on="1"/>
        <pt x="317" y="256" on="0"/>
        <pt x="336" y="239" on="0"/>
        <pt x="336" y="227" on="1"/>
        <pt x="336" y="214" on="0"/>
        <pt x="317" y="197" on="0"/>
        <pt x="305" y="197" on="1"/>
        <pt x="292" y="197" on="0"/>
        <pt x="275" y="214" on="0"/>
      </contour>
      <contour>
        <pt x="340" y="227" on="1"/>
        <pt x="340" y="239" on="0"/>
        <pt x="357" y="256" on="0"/>
        <pt x="371" y="256" on="1"/>
        <pt x="382" y="256" on="0"/>
        <pt x="401" y="239" on="0"/>
        <pt x="401" y="227" on="1"/>
        <pt x="401" y="214" on="0"/>
        <pt x="382" y="197" on="0"/>
        <pt x="371" y="197" on="1"/>
        <pt x="357" y="197" on="0"/>
        <pt x="340" y="214" on="0"/>
      </contour>
    </TTGlyph>
    <TTGlyph name="approxequal" xMin="74" yMin="123" xMax="445" yMax="366">
      <contour>
        <pt x="342" y="123" on="1"/>
        <pt x="320" y="123" on="0"/>
        <pt x="279" y="137" on="0"/>
        <pt x="238" y="154" on="0"/>
        <pt x="200" y="168" on="0"/>
        <pt x="181" y="168" on="1"/>
        <pt x="152" y="168" on="0"/>
        <pt x="115" y="146" on="0"/>
        <pt x="98" y="123" on="1"/>
        <pt x="74" y="131" on="1"/>
        <pt x="92" y="169" on="0"/>
        <pt x="145" y="210" on="0"/>
        <pt x="177" y="210" on="1"/>
        <pt x="199" y="210" on="0"/>
        <pt x="240" y="196" on="0"/>
        <pt x="280" y="180" on="0"/>
        <pt x="319" y="166" on="0"/>
        <pt x="338" y="166" on="1"/>
        <pt x="367" y="166" on="0"/>
        <pt x="404" y="186" on="0"/>
        <pt x="421" y="210" on="1"/>
        <pt x="445" y="202" on="1"/>
        <pt x="427" y="164" on="0"/>
        <pt x="374" y="123" on="0"/>
      </contour>
      <contour>
        <pt x="342" y="279" on="1"/>
        <pt x="320" y="279" on="0"/>
        <pt x="279" y="293" on="0"/>
        <pt x="238" y="310" on="0"/>
        <pt x="200" y="324" on="0"/>
        <pt x="181" y="324" on="1"/>
        <pt x="152" y="324" on="0"/>
        <pt x="115" y="302" on="0"/>
        <pt x="98" y="279" on="1"/>
        <pt x="74" y="287" on="1"/>
        <pt x="92" y="325" on="0"/>
        <pt x="145" y="366" on="0"/>
        <pt x="177" y="366" on="1"/>
        <pt x="199" y="366" on="0"/>
        <pt x="240" y="352" on="0"/>
        <pt x="280" y="336" on="0"/>
        <pt x="319" y="322" on="0"/>
        <pt x="338" y="322" on="1"/>
        <pt x="367" y="322" on="0"/>
        <pt x="404" y="342" on="0"/>
        <pt x="421" y="366" on="1"/>
        <pt x="445" y="358" on="1"/>
        <pt x="427" y="320" on="0"/>
        <pt x="374" y="279" on="0"/>
      </contour>
    </TTGlyph>
    <TTGlyph name="aring" xMin="47" yMin="-8" xMax="524" yMax="744">
      <component glyphName="a" x="0" y="0" flags="0x204"/>
      <component glyphName="ring" x="68" y="0" flags="0x4"/>
    </TTGlyph>
    <TTGlyph name="aringacute" xMin="47" yMin="-8" xMax="524" yMax="889">
      <component glyphName="a" x="0" y="0" flags="0x204"/>
      <component glyphName="ring" x="72" y="-15" flags="0x4"/>
      <component glyphName="acute" x="72" y="188" flags="0x4"/>
    </TTGlyph>
    <TTGlyph name="arrowdown" xMin="175" yMin="-70" xMax="594" yMax="558">
      <contour>
        <pt x="175" y="121" on="1"/>
        <pt x="199" y="145" on="1"/>
        <pt x="360" y="-6" on="1"/>
        <pt x="360" y="558" on="1"/>
        <pt x="406" y="558" on="1"/>
        <pt x="406" y="-7" on="1"/>
        <pt x="570" y="145" on="1"/>
        <pt x="594" y="121" on="1"/>
        <pt x="403" y="-70" on="1"/>
        <pt x="375" y="-70" on="1"/>
        <pt x="365" y="-70" on="0"/>
        <pt x="360" y="-65" on="1"/>
      </contour>
    </TTGlyph>
    <TTGlyph name="arrowdown.cap" xMin="175" yMin="14" xMax="594" yMax="642">
      <contour>
        <pt x="175" y="205" on="1"/>
        <pt x="199" y="229" on="1"/>
        <pt x="360" y="78" on="1"/>
        <pt x="360" y="642" on="1"/>
        <pt x="406" y="642" on="1"/>
        <pt x="406" y="77" on="1"/>
        <pt x="570" y="229" on="1"/>
        <pt x="594" y="205" on="1"/>
        <pt x="403" y="14" on="1"/>
        <pt x="375" y="14" on="1"/>
        <pt x="365" y="14" on="0"/>
        <pt x="360" y="19" on="1"/>
      </contour>
    </TTGlyph>
    <TTGlyph name="arrowleft" xMin="71" yMin="36" xMax="699" yMax="455">
      <contour>
        <pt x="263" y="455" on="1"/>
        <pt x="287" y="431" on="1"/>
        <pt x="135" y="268" on="1"/>
        <pt x="699" y="268" on="1"/>
        <pt x="699" y="225" on="1"/>
        <pt x="135" y="225" on="1"/>
        <pt x="287" y="60" on="1"/>
        <pt x="263" y="36" on="1"/>
        <pt x="71" y="226" on="1"/>
        <pt x="71" y="255" on="1"/>
        <pt x="71" y="264" on="0"/>
        <pt x="76" y="269" on="1"/>
      </contour>
    </TTGlyph>
    <TTGlyph name="arrowleft.cap" xMin="71" yMin="120" xMax="699" yMax="539">
      <contour>
        <pt x="263" y="539" on="1"/>
        <pt x="287" y="515" on="1"/>
        <pt x="135" y="352" on="1"/>
        <pt x="699" y="352" on="1"/>
        <pt x="699" y="309" on="1"/>
        <pt x="135" y="309" on="1"/>
        <pt x="287" y="144" on="1"/>
        <pt x="263" y="120" on="1"/>
        <pt x="71" y="310" on="1"/>
        <pt x="71" y="339" on="1"/>
        <pt x="71" y="348" on="0"/>
        <pt x="76" y="353" on="1"/>
      </contour>
    </TTGlyph>
    <TTGlyph name="arrowright" xMin="71" yMin="38" xMax="699" yMax="457">
      <contour>
        <pt x="507" y="38" on="1"/>
        <pt x="483" y="62" on="1"/>
        <pt x="635" y="225" on="1"/>
        <pt x="71" y="225" on="1"/>
        <pt x="71" y="268" on="1"/>
        <pt x="635" y="268" on="1"/>
        <pt x="483" y="433" on="1"/>
        <pt x="507" y="457" on="1"/>
        <pt x="699" y="267" on="1"/>
        <pt x="699" y="238" on="1"/>
        <pt x="699" y="229" on="0"/>
        <pt x="694" y="224" on="1"/>
      </contour>
    </TTGlyph>
    <TTGlyph name="arrowright.cap" xMin="71" yMin="122" xMax="699" yMax="541">
      <contour>
        <pt x="507" y="122" on="1"/>
        <pt x="483" y="146" on="1"/>
        <pt x="635" y="309" on="1"/>
        <pt x="71" y="309" on="1"/>
        <pt x="71" y="352" on="1"/>
        <pt x="635" y="352" on="1"/>
        <pt x="483" y="517" on="1"/>
        <pt x="507" y="541" on="1"/>
        <pt x="699" y="351" on="1"/>
        <pt x="699" y="322" on="1"/>
        <pt x="699" y="313" on="0"/>
        <pt x="694" y="308" on="1"/>
      </contour>
    </TTGlyph>
    <TTGlyph name="arrowup" xMin="175" yMin="-70" xMax="594" yMax="558">
      <contour>
        <pt x="594" y="367" on="1"/>
        <pt x="570" y="343" on="1"/>
        <pt x="409" y="494" on="1"/>
        <pt x="409" y="-70" on="1"/>
        <pt x="363" y="-70" on="1"/>
        <pt x="363" y="495" on="1"/>
        <pt x="199" y="343" on="1"/>
        <pt x="175" y="367" on="1"/>
        <pt x="366" y="558" on="1"/>
        <pt x="394" y="558" on="1"/>
        <pt x="404" y="558" on="0"/>
        <pt x="409" y="553" on="1"/>
      </contour>
    </TTGlyph>
    <TTGlyph name="arrowup.cap" xMin="175" yMin="14" xMax="594" yMax="642">
      <contour>
        <pt x="594" y="451" on="1"/>
        <pt x="570" y="427" on="1"/>
        <pt x="409" y="578" on="1"/>
        <pt x="409" y="14" on="1"/>
        <pt x="363" y="14" on="1"/>
        <pt x="363" y="579" on="1"/>
        <pt x="199" y="427" on="1"/>
        <pt x="175" y="451" on="1"/>
        <pt x="366" y="642" on="1"/>
        <pt x="394" y="642" on="1"/>
        <pt x="404" y="642" on="0"/>
        <pt x="409" y="637" on="1"/>
      </contour>
    </TTGlyph>
    <TTGlyph name="asciicircum" xMin="77" yMin="436" xMax="443" yMax="673">
      <contour>
        <pt x="443" y="460" on="1"/>
        <pt x="408" y="436" on="1"/>
        <pt x="260" y="631" on="1"/>
        <pt x="112" y="436" on="1"/>
        <pt x="77" y="460" on="1"/>
        <pt x="239" y="673" on="1"/>
        <pt x="281" y="673" on="1"/>
      </contour>
    </TTGlyph>
    <TTGlyph name="asciitilde" xMin="74" yMin="279" xMax="446" yMax="366">
      <contour>
        <pt x="343" y="279" on="1"/>
        <pt x="321" y="279" on="0"/>
        <pt x="279" y="293" on="0"/>
        <pt x="239" y="310" on="0"/>
        <pt x="200" y="324" on="0"/>
        <pt x="182" y="324" on="1"/>
        <pt x="153" y="324" on="0"/>
        <pt x="115" y="303" on="0"/>
        <pt x="99" y="279" on="1"/>
        <pt x="74" y="287" on="1"/>
        <pt x="93" y="325" on="0"/>
        <pt x="145" y="366" on="0"/>
        <pt x="177" y="366" on="1"/>
        <pt x="199" y="366" on="0"/>
        <pt x="241" y="352" on="0"/>
        <pt x="281" y="336" on="0"/>
        <pt x="319" y="322" on="0"/>
        <pt x="338" y="322" on="1"/>
        <pt x="367" y="322" on="0"/>
        <pt x="404" y="342" on="0"/>
        <pt x="421" y="366" on="1"/>
        <pt x="446" y="358" on="1"/>
        <pt x="427" y="320" on="0"/>
        <pt x="375" y="279" on="0"/>
      </contour>
    </TTGlyph>
    <TTGlyph name="asterisk" xMin="48" yMin="344" xMax="365" yMax="663">
      <contour>
        <pt x="232" y="486" on="1"/>
        <pt x="338" y="369" on="1"/>
        <pt x="305" y="351" on="1"/>
        <pt x="297" y="347" on="0"/>
        <pt x="289" y="349" on="0"/>
        <pt x="284" y="357" on="1"/>
        <pt x="208" y="470" on="1"/>
        <pt x="123" y="344" on="1"/>
        <pt x="89" y="365" on="1"/>
        <pt x="78" y="372" on="0"/>
        <pt x="88" y="382" on="1"/>
        <pt x="184" y="486" on="1"/>
        <pt x="48" y="530" on="1"/>
        <pt x="62" y="568" on="1"/>
        <pt x="66" y="579" on="0"/>
        <pt x="80" y="572" on="1"/>
        <pt x="194" y="510" on="1"/>
        <pt x="184" y="663" on="1"/>
        <pt x="221" y="663" on="1"/>
        <pt x="227" y="663" on="0"/>
        <pt x="234" y="658" on="0"/>
        <pt x="233" y="650" on="1"/>
        <pt x="221" y="510" on="1"/>
        <pt x="348" y="575" on="1"/>
        <pt x="362" y="544" on="1"/>
        <pt x="365" y="536" on="0"/>
        <pt x="364" y="528" on="0"/>
        <pt x="354" y="525" on="1"/>
      </contour>
    </TTGlyph>
    <TTGlyph name="at" xMin="30" yMin="-98" xMax="709" yMax="584">
      <contour>
        <pt x="669" y="1" on="1"/>
        <pt x="638" y="-19" on="0"/>
        <pt x="566" y="-55" on="0"/>
        <pt x="491" y="-82" on="0"/>
        <pt x="413" y="-98" on="0"/>
        <pt x="376" y="-98" on="1"/>
        <pt x="306" y="-98" on="0"/>
        <pt x="180" y="-48" on="0"/>
        <pt x="86" y="43" on="0"/>
        <pt x="30" y="168" on="0"/>
        <pt x="30" y="243" on="1"/>
        <pt x="30" y="318" on="0"/>
        <pt x="86" y="444" on="0"/>
        <pt x="181" y="534" on="0"/>
        <pt x="307" y="584" on="0"/>
        <pt x="378" y="584" on="1"/>
        <pt x="451" y="584" on="0"/>
        <pt x="572" y="535" on="0"/>
        <pt x="660" y="453" on="0"/>
        <pt x="709" y="342" on="0"/>
        <pt x="709" y="281" on="1"/>
        <pt x="709" y="235" on="0"/>
        <pt x="684" y="160" on="0"/>
        <pt x="641" y="106" on="0"/>
        <pt x="583" y="77" on="0"/>
        <pt x="549" y="77" on="1"/>
        <pt x="520" y="77" on="0"/>
        <pt x="474" y="104" on="0"/>
        <pt x="463" y="120" on="1"/>
        <pt x="436" y="105" on="1"/>
        <pt x="411" y="91" on="0"/>
        <pt x="368" y="78" on="0"/>
        <pt x="347" y="78" on="1"/>
        <pt x="320" y="78" on="0"/>
        <pt x="274" y="96" on="0"/>
        <pt x="241" y="127" on="0"/>
        <pt x="222" y="167" on="0"/>
        <pt x="222" y="190" on="1"/>
        <pt x="222" y="229" on="0"/>
        <pt x="273" y="269" on="0"/>
        <pt x="317" y="269" on="1"/>
        <pt x="328" y="269" on="0"/>
        <pt x="379" y="267" on="0"/>
        <pt x="404" y="265" on="1"/>
        <pt x="455" y="262" on="1"/>
        <pt x="455" y="288" on="1"/>
        <pt x="455" y="331" on="0"/>
        <pt x="440" y="347" on="1"/>
        <pt x="420" y="369" on="0"/>
        <pt x="374" y="369" on="1"/>
        <pt x="337" y="369" on="0"/>
        <pt x="286" y="356" on="1"/>
        <pt x="256" y="349" on="1"/>
        <pt x="246" y="374" on="1"/>
        <pt x="276" y="389" on="0"/>
        <pt x="344" y="409" on="0"/>
        <pt x="376" y="409" on="1"/>
        <pt x="405" y="409" on="0"/>
        <pt x="453" y="392" on="0"/>
        <pt x="469" y="376" on="1"/>
        <pt x="483" y="362" on="0"/>
        <pt x="498" y="322" on="0"/>
        <pt x="498" y="292" on="1"/>
        <pt x="498" y="168" on="1"/>
        <pt x="498" y="145" on="0"/>
        <pt x="525" y="115" on="0"/>
        <pt x="552" y="115" on="1"/>
        <pt x="600" y="115" on="0"/>
        <pt x="664" y="201" on="0"/>
        <pt x="664" y="277" on="1"/>
        <pt x="664" y="337" on="0"/>
        <pt x="621" y="434" on="0"/>
        <pt x="545" y="502" on="0"/>
        <pt x="441" y="539" on="0"/>
        <pt x="380" y="539" on="1"/>
        <pt x="315" y="539" on="0"/>
        <pt x="205" y="498" on="0"/>
        <pt x="125" y="421" on="0"/>
        <pt x="80" y="311" on="0"/>
        <pt x="80" y="242" on="1"/>
        <pt x="80" y="176" on="0"/>
        <pt x="126" y="67" on="0"/>
        <pt x="208" y="-12" on="0"/>
        <pt x="318" y="-55" on="0"/>
        <pt x="383" y="-55" on="1"/>
        <pt x="428" y="-55" on="0"/>
        <pt x="524" y="-30" on="0"/>
        <pt x="565" y="-13" on="1"/>
        <pt x="654" y="25" on="1"/>
      </contour>
      <contour>
        <pt x="312" y="232" on="1"/>
        <pt x="268" y="232" on="0"/>
        <pt x="268" y="190" on="1"/>
        <pt x="268" y="158" on="0"/>
        <pt x="316" y="117" on="0"/>
        <pt x="354" y="117" on="1"/>
        <pt x="377" y="117" on="0"/>
        <pt x="426" y="134" on="0"/>
        <pt x="446" y="146" on="1"/>
        <pt x="452" y="150" on="0"/>
        <pt x="455" y="156" on="0"/>
        <pt x="455" y="163" on="1"/>
        <pt x="455" y="224" on="1"/>
        <pt x="455" y="232" on="0"/>
        <pt x="446" y="232" on="1"/>
      </contour>
    </TTGlyph>
    <TTGlyph name="at.cap" xMin="30" yMin="-9" xMax="709" yMax="673">
      <component glyphName="at" x="0" y="89" flags="0x204"/>
    </TTGlyph>
    <TTGlyph name="atilde" xMin="47" yMin="-8" xMax="524" yMax="661">
      <component glyphName="a" x="0" y="0" flags="0x204"/>
      <component glyphName="tilde" x="66" y="0" flags="0x4"/>
    </TTGlyph>
    <TTGlyph name="b" xMin="77" yMin="-8" xMax="520" yMax="709">
      <contour>
        <pt x="109" y="0" on="1"/>
        <pt x="77" y="0" on="1"/>
        <pt x="77" y="709" on="1"/>
        <pt x="128" y="709" on="1"/>
        <pt x="128" y="432" on="1"/>
        <pt x="153" y="446" on="1"/>
        <pt x="201" y="472" on="0"/>
        <pt x="276" y="496" on="0"/>
        <pt x="311" y="496" on="1"/>
        <pt x="360" y="496" on="0"/>
        <pt x="438" y="457" on="0"/>
        <pt x="492" y="388" on="0"/>
        <pt x="520" y="296" on="0"/>
        <pt x="520" y="244" on="1"/>
        <pt x="520" y="192" on="0"/>
        <pt x="491" y="100" on="0"/>
        <pt x="436" y="32" on="0"/>
        <pt x="358" y="-8" on="0"/>
        <pt x="309" y="-8" on="1"/>
        <pt x="273" y="-8" on="0"/>
        <pt x="198" y="16" on="0"/>
        <pt x="159" y="39" on="1"/>
        <pt x="125" y="59" on="1"/>
      </contour>
      <contour>
        <pt x="128" y="109" on="1"/>
        <pt x="128" y="97" on="0"/>
        <pt x="136" y="92" on="1"/>
        <pt x="172" y="69" on="0"/>
        <pt x="263" y="37" on="0"/>
        <pt x="304" y="37" on="1"/>
        <pt x="379" y="37" on="0"/>
        <pt x="467" y="141" on="0"/>
        <pt x="467" y="244" on="1"/>
        <pt x="467" y="347" on="0"/>
        <pt x="380" y="451" on="0"/>
        <pt x="306" y="451" on="1"/>
        <pt x="230" y="451" on="0"/>
        <pt x="136" y="397" on="1"/>
        <pt x="128" y="393" on="0"/>
        <pt x="128" y="381" on="1"/>
      </contour>
    </TTGlyph>
    <TTGlyph name="backslash" xMin="16" yMin="0" xMax="401" yMax="663">
      <contour>
        <pt x="351" y="0" on="1"/>
        <pt x="16" y="663" on="1"/>
        <pt x="66" y="663" on="1"/>
        <pt x="401" y="0" on="1"/>
      </contour>
    </TTGlyph>
    <TTGlyph name="bar" xMin="90" yMin="-229" xMax="137" yMax="709">
      <contour>
        <pt x="90" y="709" on="1"/>
        <pt x="137" y="709" on="1"/>
        <pt x="137" y="-229" on="1"/>
        <pt x="90" y="-229" on="1"/>
      </contour>
    </TTGlyph>
    <TTGlyph name="braceleft" xMin="54" yMin="-237" xMax="314" yMax="673">
      <contour>
        <pt x="54" y="233" on="1"/>
        <pt x="115" y="243" on="0"/>
        <pt x="160" y="292" on="0"/>
        <pt x="160" y="338" on="1"/>
        <pt x="160" y="361" on="0"/>
        <pt x="149" y="426" on="0"/>
        <pt x="137" y="495" on="0"/>
        <pt x="126" y="561" on="0"/>
        <pt x="126" y="585" on="1"/>
        <pt x="126" y="625" on="0"/>
        <pt x="179" y="673" on="0"/>
        <pt x="227" y="673" on="1"/>
        <pt x="247" y="673" on="0"/>
        <pt x="296" y="665" on="0"/>
        <pt x="314" y="660" on="1"/>
        <pt x="314" y="638" on="1"/>
        <pt x="224" y="629" on="1"/>
        <pt x="198" y="627" on="0"/>
        <pt x="173" y="607" on="0"/>
        <pt x="173" y="584" on="1"/>
        <pt x="173" y="561" on="0"/>
        <pt x="184" y="495" on="0"/>
        <pt x="196" y="425" on="0"/>
        <pt x="207" y="359" on="0"/>
        <pt x="207" y="336" on="1"/>
        <pt x="207" y="292" on="0"/>
        <pt x="165" y="235" on="0"/>
        <pt x="120" y="218" on="1"/>
        <pt x="165" y="201" on="0"/>
        <pt x="207" y="144" on="0"/>
        <pt x="207" y="100" on="1"/>
        <pt x="207" y="77" on="0"/>
        <pt x="196" y="11" on="0"/>
        <pt x="184" y="-59" on="0"/>
        <pt x="173" y="-125" on="0"/>
        <pt x="173" y="-148" on="1"/>
        <pt x="173" y="-171" on="0"/>
        <pt x="198" y="-191" on="0"/>
        <pt x="224" y="-193" on="1"/>
        <pt x="314" y="-202" on="1"/>
        <pt x="314" y="-224" on="1"/>
        <pt x="296" y="-229" on="0"/>
        <pt x="247" y="-237" on="0"/>
        <pt x="227" y="-237" on="1"/>
        <pt x="179" y="-237" on="0"/>
        <pt x="126" y="-189" on="0"/>
        <pt x="126" y="-149" on="1"/>
        <pt x="126" y="-125" on="0"/>
        <pt x="137" y="-59" on="0"/>
        <pt x="149" y="10" on="0"/>
        <pt x="160" y="75" on="0"/>
        <pt x="160" y="98" on="1"/>
        <pt x="160" y="144" on="0"/>
        <pt x="115" y="193" on="0"/>
        <pt x="54" y="203" on="1"/>
      </contour>
    </TTGlyph>
    <TTGlyph name="braceleft.cap" xMin="52" yMin="-125" xMax="312" yMax="785">
      <component glyphName="braceleft" x="-2" y="112" flags="0x4"/>
    </TTGlyph>
    <TTGlyph name="braceright" xMin="0" yMin="-237" xMax="260" yMax="673">
      <contour>
        <pt x="260" y="203" on="1"/>
        <pt x="199" y="193" on="0"/>
        <pt x="154" y="144" on="0"/>
        <pt x="154" y="98" on="1"/>
        <pt x="154" y="75" on="0"/>
        <pt x="165" y="10" on="0"/>
        <pt x="177" y="-59" on="0"/>
        <pt x="188" y="-125" on="0"/>
        <pt x="188" y="-149" on="1"/>
        <pt x="188" y="-189" on="0"/>
        <pt x="135" y="-237" on="0"/>
        <pt x="87" y="-237" on="1"/>
        <pt x="67" y="-237" on="0"/>
        <pt x="18" y="-229" on="0"/>
        <pt x="0" y="-224" on="1"/>
        <pt x="0" y="-202" on="1"/>
        <pt x="90" y="-193" on="1"/>
        <pt x="116" y="-191" on="0"/>
        <pt x="141" y="-171" on="0"/>
        <pt x="141" y="-148" on="1"/>
        <pt x="141" y="-125" on="0"/>
        <pt x="130" y="-59" on="0"/>
        <pt x="118" y="11" on="0"/>
        <pt x="107" y="77" on="0"/>
        <pt x="107" y="100" on="1"/>
        <pt x="107" y="144" on="0"/>
        <pt x="149" y="201" on="0"/>
        <pt x="194" y="218" on="1"/>
        <pt x="149" y="235" on="0"/>
        <pt x="107" y="292" on="0"/>
        <pt x="107" y="336" on="1"/>
        <pt x="107" y="359" on="0"/>
        <pt x="118" y="425" on="0"/>
        <pt x="130" y="495" on="0"/>
        <pt x="141" y="561" on="0"/>
        <pt x="141" y="584" on="1"/>
        <pt x="141" y="607" on="0"/>
        <pt x="116" y="627" on="0"/>
        <pt x="90" y="629" on="1"/>
        <pt x="0" y="638" on="1"/>
        <pt x="0" y="660" on="1"/>
        <pt x="18" y="665" on="0"/>
        <pt x="67" y="673" on="0"/>
        <pt x="87" y="673" on="1"/>
        <pt x="135" y="673" on="0"/>
        <pt x="188" y="625" on="0"/>
        <pt x="188" y="585" on="1"/>
        <pt x="188" y="561" on="0"/>
        <pt x="177" y="495" on="0"/>
        <pt x="165" y="426" on="0"/>
        <pt x="154" y="361" on="0"/>
        <pt x="154" y="338" on="1"/>
        <pt x="154" y="292" on="0"/>
        <pt x="199" y="243" on="0"/>
        <pt x="260" y="233" on="1"/>
      </contour>
    </TTGlyph>
    <TTGlyph name="braceright.cap" xMin="-2" yMin="-125" xMax="258" yMax="785">
      <component glyphName="braceright" x="-2" y="112" flags="0x4"/>
    </TTGlyph>
    <TTGlyph name="bracketleft" xMin="90" yMin="-229" xMax="280" yMax="663">
      <contour>
        <pt x="90" y="663" on="1"/>
        <pt x="280" y="663" on="1"/>
        <pt x="280" y="620" on="1"/>
        <pt x="139" y="620" on="1"/>
        <pt x="139" y="-186" on="1"/>
        <pt x="280" y="-186" on="1"/>
        <pt x="280" y="-229" on="1"/>
        <pt x="90" y="-229" on="1"/>
      </contour>
    </TTGlyph>
    <TTGlyph name="bracketleft.cap" xMin="90" yMin="-114" xMax="280" yMax="778">
      <component glyphName="bracketleft" x="0" y="115" flags="0x4"/>
    </TTGlyph>
    <TTGlyph name="bracketright" xMin="7" yMin="-229" xMax="197" yMax="663">
      <contour>
        <pt x="197" y="-229" on="1"/>
        <pt x="7" y="-229" on="1"/>
        <pt x="7" y="-186" on="1"/>
        <pt x="148" y="-186" on="1"/>
        <pt x="148" y="620" on="1"/>
        <pt x="7" y="620" on="1"/>
        <pt x="7" y="663" on="1"/>
        <pt x="197" y="663" on="1"/>
      </contour>
    </TTGlyph>
    <TTGlyph name="bracketright.cap" xMin="0" yMin="-114" xMax="190" yMax="778">
      <component glyphName="bracketright" x="-7" y="115" flags="0x4"/>
    </TTGlyph>
    <TTGlyph name="breve" xMin="49" yMin="551" xMax="335" yMax="681">
      <contour>
        <pt x="192" y="551" on="1"/>
        <pt x="141" y="551" on="0"/>
        <pt x="62" y="615" on="0"/>
        <pt x="49" y="677" on="1"/>
        <pt x="78" y="681" on="1"/>
        <pt x="92" y="643" on="0"/>
        <pt x="152" y="599" on="0"/>
        <pt x="192" y="599" on="1"/>
        <pt x="233" y="599" on="0"/>
        <pt x="292" y="643" on="0"/>
        <pt x="306" y="681" on="1"/>
        <pt x="335" y="677" on="1"/>
        <pt x="323" y="615" on="0"/>
        <pt x="243" y="551" on="0"/>
      </contour>
    </TTGlyph>
    <TTGlyph name="breve.cap" xMin="49" yMin="721" xMax="335" yMax="851">
      <contour>
        <pt x="192" y="721" on="1"/>
        <pt x="141" y="721" on="0"/>
        <pt x="62" y="785" on="0"/>
        <pt x="49" y="847" on="1"/>
        <pt x="78" y="851" on="1"/>
        <pt x="92" y="813" on="0"/>
        <pt x="152" y="769" on="0"/>
        <pt x="192" y="769" on="1"/>
        <pt x="233" y="769" on="0"/>
        <pt x="292" y="813" on="0"/>
        <pt x="306" y="851" on="1"/>
        <pt x="335" y="847" on="1"/>
        <pt x="323" y="785" on="0"/>
        <pt x="243" y="721" on="0"/>
      </contour>
    </TTGlyph>
    <TTGlyph name="brokenbar" xMin="90" yMin="-229" xMax="137" yMax="709">
      <contour>
        <pt x="90" y="709" on="1"/>
        <pt x="137" y="709" on="1"/>
        <pt x="137" y="291" on="1"/>
        <pt x="90" y="291" on="1"/>
      </contour>
      <contour>
        <pt x="90" y="189" on="1"/>
        <pt x="137" y="189" on="1"/>
        <pt x="137" y="-229" on="1"/>
        <pt x="90" y="-229" on="1"/>
      </contour>
    </TTGlyph>
    <TTGlyph name="bullet" xMin="83" yMin="194" xMax="255" yMax="365">
      <contour>
        <pt x="255" y="194" on="1"/>
        <pt x="83" y="194" on="1"/>
        <pt x="83" y="365" on="1"/>
        <pt x="235" y="365" on="1"/>
        <pt x="248" y="365" on="0"/>
        <pt x="255" y="358" on="0"/>
        <pt x="255" y="347" on="1"/>
      </contour>
    </TTGlyph>
    <TTGlyph name="bullet.cap" xMin="83" yMin="244" xMax="255" yMax="415">
      <component glyphName="bullet" x="0" y="50" flags="0x204"/>
    </TTGlyph>
    <TTGlyph name="c" xMin="44" yMin="-8" xMax="482" yMax="496">
      <contour>
        <pt x="482" y="72" on="1"/>
        <pt x="433" y="36" on="0"/>
        <pt x="326" y="-8" on="0"/>
        <pt x="272" y="-8" on="1"/>
        <pt x="220" y="-8" on="0"/>
        <pt x="136" y="31" on="0"/>
        <pt x="76" y="100" on="0"/>
        <pt x="44" y="192" on="0"/>
        <pt x="44" y="246" on="1"/>
        <pt x="44" y="298" on="0"/>
        <pt x="79" y="389" on="0"/>
        <pt x="142" y="457" on="0"/>
        <pt x="229" y="496" on="0"/>
        <pt x="280" y="496" on="1"/>
        <pt x="338" y="496" on="0"/>
        <pt x="443" y="430" on="0"/>
        <pt x="473" y="370" on="1"/>
        <pt x="443" y="352" on="1"/>
        <pt x="414" y="380" on="1"/>
        <pt x="376" y="417" on="0"/>
        <pt x="315" y="451" on="0"/>
        <pt x="276" y="451" on="1"/>
        <pt x="237" y="451" on="0"/>
        <pt x="172" y="422" on="0"/>
        <pt x="124" y="370" on="0"/>
        <pt x="97" y="294" on="0"/>
        <pt x="97" y="248" on="1"/>
        <pt x="97" y="147" on="0"/>
        <pt x="195" y="37" on="0"/>
        <pt x="277" y="37" on="1"/>
        <pt x="339" y="37" on="0"/>
        <pt x="406" y="69" on="1"/>
        <pt x="464" y="96" on="1"/>
      </contour>
    </TTGlyph>
    <TTGlyph name="cacute" xMin="44" yMin="-8" xMax="482" yMax="701">
      <component glyphName="c" x="0" y="0" flags="0x204"/>
      <component glyphName="acute" x="92" y="0" flags="0x4"/>
    </TTGlyph>
    <TTGlyph name="caron" xMin="42" yMin="543" xMax="341" yMax="699">
      <contour>
        <pt x="216" y="551" on="1"/>
        <pt x="211" y="546" on="0"/>
        <pt x="205" y="543" on="0"/>
        <pt x="197" y="543" on="1"/>
        <pt x="185" y="543" on="1"/>
        <pt x="177" y="543" on="0"/>
        <pt x="170" y="546" on="0"/>
        <pt x="165" y="551" on="1"/>
        <pt x="42" y="681" on="1"/>
        <pt x="61" y="699" on="1"/>
        <pt x="190" y="593" on="1"/>
        <pt x="193" y="593" on="1"/>
        <pt x="322" y="699" on="1"/>
        <pt x="341" y="681" on="1"/>
      </contour>
    </TTGlyph>
    <TTGlyph name="caron.cap" xMin="42" yMin="723" xMax="341" yMax="879">
      <contour>
        <pt x="216" y="731" on="1"/>
        <pt x="211" y="726" on="0"/>
        <pt x="205" y="723" on="0"/>
        <pt x="197" y="723" on="1"/>
        <pt x="185" y="723" on="1"/>
        <pt x="177" y="723" on="0"/>
        <pt x="170" y="726" on="0"/>
        <pt x="165" y="731" on="1"/>
        <pt x="42" y="861" on="1"/>
        <pt x="61" y="879" on="1"/>
        <pt x="190" y="773" on="1"/>
        <pt x="193" y="773" on="1"/>
        <pt x="322" y="879" on="1"/>
        <pt x="341" y="861" on="1"/>
      </contour>
    </TTGlyph>
    <TTGlyph name="ccaron" xMin="44" yMin="-8" xMax="482" yMax="699">
      <component glyphName="c" x="0" y="0" flags="0x204"/>
      <component glyphName="caron" x="82" y="0" flags="0x4"/>
    </TTGlyph>
    <TTGlyph name="ccedilla" xMin="44" yMin="-209" xMax="482" yMax="496">
      <contour>
        <pt x="482" y="72" on="1"/>
        <pt x="433" y="36" on="0"/>
        <pt x="325" y="-8" on="0"/>
        <pt x="270" y="-8" on="1"/>
        <pt x="265" y="-20" on="0"/>
        <pt x="265" y="-29" on="1"/>
        <pt x="265" y="-41" on="0"/>
        <pt x="301" y="-57" on="0"/>
        <pt x="345" y="-75" on="0"/>
        <pt x="381" y="-102" on="0"/>
        <pt x="381" y="-126" on="1"/>
        <pt x="381" y="-160" on="0"/>
        <pt x="304" y="-205" on="0"/>
        <pt x="222" y="-209" on="1"/>
        <pt x="215" y="-178" on="1"/>
        <pt x="281" y="-164" on="1"/>
        <pt x="331" y="-153" on="0"/>
        <pt x="331" y="-132" on="1"/>
        <pt x="331" y="-119" on="0"/>
        <pt x="296" y="-103" on="0"/>
        <pt x="254" y="-86" on="0"/>
        <pt x="219" y="-65" on="0"/>
        <pt x="219" y="-47" on="1"/>
        <pt x="219" y="-27" on="0"/>
        <pt x="236" y="-5" on="1"/>
        <pt x="192" y="1" on="0"/>
        <pt x="121" y="45" on="0"/>
        <pt x="71" y="111" on="0"/>
        <pt x="44" y="197" on="0"/>
        <pt x="44" y="246" on="1"/>
        <pt x="44" y="298" on="0"/>
        <pt x="79" y="389" on="0"/>
        <pt x="142" y="457" on="0"/>
        <pt x="229" y="496" on="0"/>
        <pt x="280" y="496" on="1"/>
        <pt x="338" y="496" on="0"/>
        <pt x="443" y="430" on="0"/>
        <pt x="473" y="370" on="1"/>
        <pt x="443" y="352" on="1"/>
        <pt x="414" y="380" on="1"/>
        <pt x="376" y="417" on="0"/>
        <pt x="315" y="451" on="0"/>
        <pt x="276" y="451" on="1"/>
        <pt x="237" y="451" on="0"/>
        <pt x="172" y="422" on="0"/>
        <pt x="124" y="370" on="0"/>
        <pt x="97" y="294" on="0"/>
        <pt x="97" y="248" on="1"/>
        <pt x="97" y="147" on="0"/>
        <pt x="195" y="37" on="0"/>
        <pt x="277" y="37" on="1"/>
        <pt x="339" y="37" on="0"/>
        <pt x="406" y="69" on="1"/>
        <pt x="464" y="96" on="1"/>
      </contour>
    </TTGlyph>
    <TTGlyph name="ccircumflex" xMin="44" yMin="-8" xMax="482" yMax="699">
      <component glyphName="c" x="0" y="0" flags="0x204"/>
      <component glyphName="circumflex" x="83" y="0" flags="0x4"/>
    </TTGlyph>
    <TTGlyph name="cdotaccent" xMin="44" yMin="-8" xMax="482" yMax="648">
      <component glyphName="c" x="0" y="0" flags="0x204"/>
      <component glyphName="dotaccent" x="88" y="0" flags="0x4"/>
    </TTGlyph>
    <TTGlyph name="cedilla" xMin="109" yMin="-209" xMax="275" yMax="26">
      <contour>
        <pt x="181" y="19" on="1"/>
        <pt x="171" y="5" on="0"/>
        <pt x="159" y="-19" on="0"/>
        <pt x="159" y="-29" on="1"/>
        <pt x="159" y="-41" on="0"/>
        <pt x="195" y="-57" on="0"/>
        <pt x="239" y="-75" on="0"/>
        <pt x="275" y="-102" on="0"/>
        <pt x="275" y="-126" on="1"/>
        <pt x="275" y="-160" on="0"/>
        <pt x="198" y="-205" on="0"/>
        <pt x="116" y="-209" on="1"/>
        <pt x="109" y="-178" on="1"/>
        <pt x="175" y="-164" on="1"/>
        <pt x="225" y="-153" on="0"/>
        <pt x="225" y="-132" on="1"/>
        <pt x="225" y="-119" on="0"/>
        <pt x="190" y="-103" on="0"/>
        <pt x="148" y="-86" on="0"/>
        <pt x="113" y="-65" on="0"/>
        <pt x="113" y="-47" on="1"/>
        <pt x="113" y="-30" on="0"/>
        <pt x="139" y="7" on="0"/>
        <pt x="160" y="26" on="1"/>
      </contour>
    </TTGlyph>
    <TTGlyph name="cent" xMin="80" yMin="-104" xMax="518" yMax="588">
      <contour>
        <pt x="333" y="495" on="1"/>
        <pt x="387" y="490" on="0"/>
        <pt x="481" y="426" on="0"/>
        <pt x="509" y="370" on="1"/>
        <pt x="479" y="352" on="1"/>
        <pt x="450" y="380" on="1"/>
        <pt x="418" y="412" on="0"/>
        <pt x="364" y="445" on="0"/>
        <pt x="333" y="449" on="1"/>
        <pt x="333" y="37" on="1"/>
        <pt x="385" y="41" on="0"/>
        <pt x="442" y="69" on="1"/>
        <pt x="500" y="96" on="1"/>
        <pt x="518" y="72" on="1"/>
        <pt x="474" y="40" on="0"/>
        <pt x="381" y="-1" on="0"/>
        <pt x="333" y="-6" on="1"/>
        <pt x="327" y="-104" on="1"/>
        <pt x="293" y="-104" on="1"/>
        <pt x="293" y="-7" on="1"/>
        <pt x="244" y="-4" on="0"/>
        <pt x="165" y="37" on="0"/>
        <pt x="110" y="104" on="0"/>
        <pt x="80" y="194" on="0"/>
        <pt x="80" y="246" on="1"/>
        <pt x="80" y="295" on="0"/>
        <pt x="111" y="381" on="0"/>
        <pt x="168" y="448" on="0"/>
        <pt x="246" y="490" on="0"/>
        <pt x="293" y="494" on="1"/>
        <pt x="299" y="588" on="1"/>
        <pt x="333" y="588" on="1"/>
      </contour>
      <contour>
        <pt x="132" y="248" on="1"/>
        <pt x="132" y="153" on="0"/>
        <pt x="219" y="45" on="0"/>
        <pt x="293" y="38" on="1"/>
        <pt x="293" y="450" on="1"/>
        <pt x="258" y="447" on="0"/>
        <pt x="199" y="415" on="0"/>
        <pt x="156" y="363" on="0"/>
        <pt x="132" y="291" on="0"/>
      </contour>
    </TTGlyph>
    <TTGlyph name="cent.lprop" xMin="47" yMin="-104" xMax="485" yMax="588">
      <component glyphName="cent" x="-33" y="0" flags="0x4"/>
    </TTGlyph>
    <TTGlyph name="cent.oprop" xMin="51" yMin="-104" xMax="438" yMax="536">
      <component glyphName="cent.otab" x="-51" y="0" flags="0x4"/>
    </TTGlyph>
    <TTGlyph name="cent.otab" xMin="102" yMin="-104" xMax="489" yMax="536">
      <contour>
        <pt x="489" y="63" on="1"/>
        <pt x="450" y="34" on="0"/>
        <pt x="366" y="-2" on="0"/>
        <pt x="324" y="-7" on="1"/>
        <pt x="319" y="-104" on="1"/>
        <pt x="288" y="-104" on="1"/>
        <pt x="288" y="-7" on="1"/>
        <pt x="245" y="-4" on="0"/>
        <pt x="176" y="32" on="0"/>
        <pt x="128" y="92" on="0"/>
        <pt x="102" y="171" on="0"/>
        <pt x="102" y="217" on="1"/>
        <pt x="102" y="260" on="0"/>
        <pt x="129" y="336" on="0"/>
        <pt x="179" y="395" on="0"/>
        <pt x="247" y="432" on="0"/>
        <pt x="288" y="437" on="1"/>
        <pt x="293" y="536" on="1"/>
        <pt x="324" y="536" on="1"/>
        <pt x="324" y="437" on="1"/>
        <pt x="372" y="433" on="0"/>
        <pt x="457" y="376" on="0"/>
        <pt x="482" y="326" on="1"/>
        <pt x="454" y="310" on="1"/>
        <pt x="429" y="333" on="1"/>
        <pt x="397" y="362" on="0"/>
        <pt x="350" y="392" on="0"/>
        <pt x="324" y="396" on="1"/>
        <pt x="324" y="33" on="1"/>
        <pt x="348" y="35" on="0"/>
        <pt x="396" y="50" on="0"/>
        <pt x="422" y="62" on="1"/>
        <pt x="472" y="85" on="1"/>
      </contour>
      <contour>
        <pt x="151" y="219" on="1"/>
        <pt x="151" y="136" on="0"/>
        <pt x="224" y="41" on="0"/>
        <pt x="288" y="34" on="1"/>
        <pt x="288" y="396" on="1"/>
        <pt x="228" y="389" on="0"/>
        <pt x="151" y="296" on="0"/>
      </contour>
    </TTGlyph>
    <TTGlyph name="circumflex" xMin="42" yMin="543" xMax="341" yMax="699">
      <contour>
        <pt x="341" y="561" on="1"/>
        <pt x="322" y="543" on="1"/>
        <pt x="193" y="649" on="1"/>
        <pt x="190" y="649" on="1"/>
        <pt x="61" y="543" on="1"/>
        <pt x="42" y="561" on="1"/>
        <pt x="165" y="691" on="1"/>
        <pt x="170" y="696" on="0"/>
        <pt x="177" y="699" on="0"/>
        <pt x="185" y="699" on="1"/>
        <pt x="197" y="699" on="1"/>
        <pt x="205" y="699" on="0"/>
        <pt x="211" y="696" on="0"/>
        <pt x="216" y="691" on="1"/>
      </contour>
    </TTGlyph>
    <TTGlyph name="circumflex.cap" xMin="42" yMin="713" xMax="341" yMax="869">
      <contour>
        <pt x="341" y="731" on="1"/>
        <pt x="322" y="713" on="1"/>
        <pt x="193" y="819" on="1"/>
        <pt x="190" y="819" on="1"/>
        <pt x="61" y="713" on="1"/>
        <pt x="42" y="731" on="1"/>
        <pt x="165" y="861" on="1"/>
        <pt x="170" y="866" on="0"/>
        <pt x="177" y="869" on="0"/>
        <pt x="185" y="869" on="1"/>
        <pt x="197" y="869" on="1"/>
        <pt x="205" y="869" on="0"/>
        <pt x="211" y="866" on="0"/>
        <pt x="216" y="861" on="1"/>
      </contour>
    </TTGlyph>
    <TTGlyph name="colon" xMin="68" yMin="0" xMax="137" yMax="406">
      <contour>
        <pt x="68" y="71" on="1"/>
        <pt x="124" y="71" on="1"/>
        <pt x="132" y="71" on="0"/>
        <pt x="137" y="67" on="0"/>
        <pt x="137" y="60" on="1"/>
        <pt x="137" y="0" on="1"/>
        <pt x="68" y="0" on="1"/>
      </contour>
      <contour>
        <pt x="68" y="406" on="1"/>
        <pt x="124" y="406" on="1"/>
        <pt x="132" y="406" on="0"/>
        <pt x="137" y="402" on="0"/>
        <pt x="137" y="395" on="1"/>
        <pt x="137" y="335" on="1"/>
        <pt x="68" y="335" on="1"/>
      </contour>
    </TTGlyph>
    <TTGlyph name="comma" xMin="32" yMin="-137" xMax="136" yMax="71">
      <contour>
        <pt x="123" y="71" on="1"/>
        <pt x="136" y="71" on="0"/>
        <pt x="136" y="60" on="1"/>
        <pt x="136" y="30" on="1"/>
        <pt x="136" y="10" on="0"/>
        <pt x="127" y="-25" on="0"/>
        <pt x="108" y="-62" on="0"/>
        <pt x="76" y="-107" on="0"/>
        <pt x="52" y="-137" on="1"/>
        <pt x="32" y="-126" on="1"/>
        <pt x="88" y="-15" on="1"/>
        <pt x="91" y="-8" on="0"/>
        <pt x="87" y="-4" on="1"/>
        <pt x="76" y="5" on="1"/>
        <pt x="69" y="11" on="0"/>
        <pt x="66" y="17" on="0"/>
        <pt x="66" y="24" on="1"/>
        <pt x="66" y="71" on="1"/>
      </contour>
    </TTGlyph>
    <TTGlyph name="commaaccent" xMin="146" yMin="-250" xMax="237" yMax="-58">
      <contour>
        <pt x="146" y="-245" on="1"/>
        <pt x="182" y="-58" on="1"/>
        <pt x="221" y="-58" on="1"/>
        <pt x="237" y="-58" on="0"/>
        <pt x="237" y="-74" on="1"/>
        <pt x="237" y="-89" on="0"/>
        <pt x="220" y="-130" on="1"/>
        <pt x="170" y="-250" on="1"/>
      </contour>
    </TTGlyph>
    <TTGlyph name="copyright" xMin="30" yMin="-9" xMax="708" yMax="673">
      <contour>
        <pt x="496" y="232" on="1"/>
        <pt x="470" y="212" on="0"/>
        <pt x="404" y="185" on="0"/>
        <pt x="369" y="185" on="1"/>
        <pt x="339" y="185" on="0"/>
        <pt x="287" y="207" on="0"/>
        <pt x="249" y="246" on="0"/>
        <pt x="228" y="301" on="0"/>
        <pt x="228" y="333" on="1"/>
        <pt x="228" y="366" on="0"/>
        <pt x="252" y="421" on="0"/>
        <pt x="292" y="461" on="0"/>
        <pt x="345" y="483" on="0"/>
        <pt x="374" y="483" on="1"/>
        <pt x="415" y="483" on="0"/>
        <pt x="476" y="439" on="0"/>
        <pt x="491" y="407" on="1"/>
        <pt x="469" y="392" on="1"/>
        <pt x="444" y="413" on="1"/>
        <pt x="423" y="431" on="0"/>
        <pt x="391" y="446" on="0"/>
        <pt x="370" y="446" on="1"/>
        <pt x="350" y="446" on="0"/>
        <pt x="313" y="431" on="0"/>
        <pt x="285" y="403" on="0"/>
        <pt x="268" y="361" on="0"/>
        <pt x="268" y="334" on="1"/>
        <pt x="268" y="287" on="0"/>
        <pt x="321" y="222" on="0"/>
        <pt x="372" y="222" on="1"/>
        <pt x="392" y="222" on="0"/>
        <pt x="431" y="232" on="0"/>
        <pt x="456" y="242" on="1"/>
        <pt x="482" y="252" on="1"/>
      </contour>
      <contour>
        <pt x="30" y="332" on="1"/>
        <pt x="30" y="403" on="0"/>
        <pt x="83" y="528" on="0"/>
        <pt x="174" y="620" on="0"/>
        <pt x="298" y="673" on="0"/>
        <pt x="369" y="673" on="1"/>
        <pt x="440" y="673" on="0"/>
        <pt x="564" y="620" on="0"/>
        <pt x="655" y="528" on="0"/>
        <pt x="708" y="403" on="0"/>
        <pt x="708" y="332" on="1"/>
        <pt x="708" y="261" on="0"/>
        <pt x="655" y="136" on="0"/>
        <pt x="564" y="44" on="0"/>
        <pt x="440" y="-9" on="0"/>
        <pt x="369" y="-9" on="1"/>
        <pt x="298" y="-9" on="0"/>
        <pt x="174" y="44" on="0"/>
        <pt x="83" y="136" on="0"/>
        <pt x="30" y="261" on="0"/>
      </contour>
      <contour>
        <pt x="663" y="332" on="1"/>
        <pt x="663" y="395" on="0"/>
        <pt x="619" y="504" on="0"/>
        <pt x="540" y="584" on="0"/>
        <pt x="432" y="630" on="0"/>
        <pt x="369" y="630" on="1"/>
        <pt x="306" y="630" on="0"/>
        <pt x="198" y="584" on="0"/>
        <pt x="119" y="504" on="0"/>
        <pt x="74" y="395" on="0"/>
        <pt x="74" y="332" on="1"/>
        <pt x="74" y="269" on="0"/>
        <pt x="119" y="160" on="0"/>
        <pt x="198" y="79" on="0"/>
        <pt x="306" y="33" on="0"/>
        <pt x="369" y="33" on="1"/>
        <pt x="432" y="33" on="0"/>
        <pt x="540" y="79" on="0"/>
        <pt x="619" y="160" on="0"/>
        <pt x="663" y="269" on="0"/>
      </contour>
    </TTGlyph>
    <TTGlyph name="currency" xMin="62" yMin="111" xMax="534" yMax="551">
      <contour>
        <pt x="492" y="331" on="1"/>
        <pt x="492" y="265" on="0"/>
        <pt x="460" y="215" on="1"/>
        <pt x="534" y="142" on="1"/>
        <pt x="503" y="111" on="1"/>
        <pt x="433" y="181" on="1"/>
        <pt x="406" y="155" on="0"/>
        <pt x="338" y="125" on="0"/>
        <pt x="298" y="125" on="1"/>
        <pt x="258" y="125" on="0"/>
        <pt x="190" y="155" on="0"/>
        <pt x="163" y="181" on="1"/>
        <pt x="93" y="111" on="1"/>
        <pt x="62" y="142" on="1"/>
        <pt x="136" y="215" on="1"/>
        <pt x="104" y="265" on="0"/>
        <pt x="104" y="331" on="1"/>
        <pt x="104" y="397" on="0"/>
        <pt x="136" y="447" on="1"/>
        <pt x="62" y="520" on="1"/>
        <pt x="93" y="551" on="1"/>
        <pt x="163" y="481" on="1"/>
        <pt x="190" y="507" on="0"/>
        <pt x="258" y="537" on="0"/>
        <pt x="298" y="537" on="1"/>
        <pt x="338" y="537" on="0"/>
        <pt x="406" y="507" on="0"/>
        <pt x="433" y="481" on="1"/>
        <pt x="503" y="551" on="1"/>
        <pt x="534" y="520" on="1"/>
        <pt x="460" y="447" on="1"/>
        <pt x="492" y="397" on="0"/>
      </contour>
      <contour>
        <pt x="444" y="331" on="1"/>
        <pt x="444" y="364" on="0"/>
        <pt x="424" y="423" on="0"/>
        <pt x="387" y="467" on="0"/>
        <pt x="332" y="493" on="0"/>
        <pt x="298" y="493" on="1"/>
        <pt x="263" y="493" on="0"/>
        <pt x="209" y="467" on="0"/>
        <pt x="172" y="423" on="0"/>
        <pt x="152" y="364" on="0"/>
        <pt x="152" y="331" on="1"/>
        <pt x="152" y="298" on="0"/>
        <pt x="172" y="239" on="0"/>
        <pt x="209" y="195" on="0"/>
        <pt x="263" y="169" on="0"/>
        <pt x="298" y="169" on="1"/>
        <pt x="332" y="169" on="0"/>
        <pt x="387" y="195" on="0"/>
        <pt x="424" y="239" on="0"/>
        <pt x="444" y="298" on="0"/>
      </contour>
    </TTGlyph>
    <TTGlyph name="d" xMin="45" yMin="-8" xMax="490" yMax="709">
      <contour>
        <pt x="439" y="709" on="1"/>
        <pt x="490" y="709" on="1"/>
        <pt x="490" y="0" on="1"/>
        <pt x="457" y="0" on="1"/>
        <pt x="442" y="57" on="1"/>
        <pt x="405" y="36" on="1"/>
        <pt x="327" y="-8" on="0"/>
        <pt x="257" y="-8" on="1"/>
        <pt x="207" y="-8" on="0"/>
        <pt x="129" y="32" on="0"/>
        <pt x="74" y="100" on="0"/>
        <pt x="45" y="192" on="0"/>
        <pt x="45" y="244" on="1"/>
        <pt x="45" y="300" on="0"/>
        <pt x="80" y="393" on="0"/>
        <pt x="141" y="459" on="0"/>
        <pt x="222" y="496" on="0"/>
        <pt x="268" y="496" on="1"/>
        <pt x="308" y="496" on="0"/>
        <pt x="392" y="466" on="0"/>
        <pt x="439" y="434" on="1"/>
      </contour>
      <contour>
        <pt x="439" y="382" on="1"/>
        <pt x="439" y="393" on="0"/>
        <pt x="430" y="399" on="1"/>
        <pt x="395" y="422" on="0"/>
        <pt x="314" y="451" on="0"/>
        <pt x="274" y="451" on="1"/>
        <pt x="188" y="451" on="0"/>
        <pt x="98" y="340" on="0"/>
        <pt x="98" y="244" on="1"/>
        <pt x="98" y="142" on="0"/>
        <pt x="189" y="37" on="0"/>
        <pt x="261" y="37" on="1"/>
        <pt x="303" y="37" on="0"/>
        <pt x="391" y="66" on="0"/>
        <pt x="430" y="89" on="1"/>
        <pt x="436" y="93" on="0"/>
        <pt x="439" y="100" on="0"/>
        <pt x="439" y="105" on="1"/>
      </contour>
    </TTGlyph>
    <TTGlyph name="dagger" xMin="35" yMin="-229" xMax="485" yMax="663">
      <contour>
        <pt x="284" y="40" on="1"/>
        <pt x="284" y="20" on="0"/>
        <pt x="282" y="-45" on="0"/>
        <pt x="280" y="-79" on="1"/>
        <pt x="273" y="-229" on="1"/>
        <pt x="247" y="-229" on="1"/>
        <pt x="240" y="-79" on="1"/>
        <pt x="238" y="-44" on="0"/>
        <pt x="236" y="20" on="0"/>
        <pt x="236" y="40" on="1"/>
        <pt x="236" y="152" on="1"/>
        <pt x="236" y="167" on="0"/>
        <pt x="237" y="216" on="0"/>
        <pt x="240" y="274" on="0"/>
        <pt x="242" y="336" on="0"/>
        <pt x="244" y="364" on="1"/>
        <pt x="220" y="362" on="0"/>
        <pt x="168" y="359" on="0"/>
        <pt x="117" y="357" on="0"/>
        <pt x="69" y="355" on="0"/>
        <pt x="50" y="355" on="1"/>
        <pt x="35" y="355" on="1"/>
        <pt x="35" y="400" on="1"/>
        <pt x="50" y="400" on="1"/>
        <pt x="69" y="400" on="0"/>
        <pt x="117" y="398" on="0"/>
        <pt x="168" y="396" on="0"/>
        <pt x="220" y="392" on="0"/>
        <pt x="244" y="391" on="1"/>
        <pt x="241" y="439" on="0"/>
        <pt x="236" y="541" on="0"/>
        <pt x="236" y="591" on="1"/>
        <pt x="236" y="663" on="1"/>
        <pt x="284" y="663" on="1"/>
        <pt x="284" y="591" on="1"/>
        <pt x="284" y="541" on="0"/>
        <pt x="279" y="439" on="0"/>
        <pt x="276" y="391" on="1"/>
        <pt x="325" y="394" on="0"/>
        <pt x="431" y="400" on="0"/>
        <pt x="470" y="400" on="1"/>
        <pt x="485" y="400" on="1"/>
        <pt x="485" y="355" on="1"/>
        <pt x="470" y="355" on="1"/>
        <pt x="450" y="355" on="0"/>
        <pt x="403" y="357" on="0"/>
        <pt x="352" y="359" on="0"/>
        <pt x="300" y="362" on="0"/>
        <pt x="276" y="364" on="1"/>
        <pt x="277" y="336" on="0"/>
        <pt x="280" y="274" on="0"/>
        <pt x="283" y="216" on="0"/>
        <pt x="284" y="167" on="0"/>
        <pt x="284" y="152" on="1"/>
      </contour>
    </TTGlyph>
    <TTGlyph name="daggerdbl" xMin="35" yMin="-229" xMax="485" yMax="663">
      <contour>
        <pt x="284" y="217" on="1"/>
        <pt x="284" y="211" on="0"/>
        <pt x="283" y="196" on="0"/>
        <pt x="282" y="164" on="0"/>
        <pt x="279" y="112" on="0"/>
        <pt x="276" y="70" on="1"/>
        <pt x="300" y="71" on="0"/>
        <pt x="352" y="75" on="0"/>
        <pt x="403" y="77" on="0"/>
        <pt x="450" y="79" on="0"/>
        <pt x="470" y="79" on="1"/>
        <pt x="485" y="79" on="1"/>
        <pt x="485" y="34" on="1"/>
        <pt x="470" y="34" on="1"/>
        <pt x="431" y="34" on="0"/>
        <pt x="325" y="40" on="0"/>
        <pt x="276" y="43" on="1"/>
        <pt x="279" y="-5" on="0"/>
        <pt x="284" y="-107" on="0"/>
        <pt x="284" y="-157" on="1"/>
        <pt x="284" y="-229" on="1"/>
        <pt x="236" y="-229" on="1"/>
        <pt x="236" y="-157" on="1"/>
        <pt x="236" y="-107" on="0"/>
        <pt x="241" y="-5" on="0"/>
        <pt x="244" y="43" on="1"/>
        <pt x="220" y="41" on="0"/>
        <pt x="168" y="38" on="0"/>
        <pt x="117" y="36" on="0"/>
        <pt x="69" y="34" on="0"/>
        <pt x="50" y="34" on="1"/>
        <pt x="35" y="34" on="1"/>
        <pt x="35" y="79" on="1"/>
        <pt x="50" y="79" on="1"/>
        <pt x="69" y="79" on="0"/>
        <pt x="117" y="77" on="0"/>
        <pt x="168" y="75" on="0"/>
        <pt x="220" y="71" on="0"/>
        <pt x="244" y="70" on="1"/>
        <pt x="241" y="112" on="0"/>
        <pt x="238" y="164" on="0"/>
        <pt x="237" y="196" on="0"/>
        <pt x="236" y="211" on="0"/>
        <pt x="236" y="217" on="1"/>
        <pt x="236" y="223" on="0"/>
        <pt x="237" y="238" on="0"/>
        <pt x="238" y="270" on="0"/>
        <pt x="241" y="322" on="0"/>
        <pt x="244" y="364" on="1"/>
        <pt x="220" y="362" on="0"/>
        <pt x="168" y="359" on="0"/>
        <pt x="117" y="357" on="0"/>
        <pt x="69" y="355" on="0"/>
        <pt x="50" y="355" on="1"/>
        <pt x="35" y="355" on="1"/>
        <pt x="35" y="400" on="1"/>
        <pt x="50" y="400" on="1"/>
        <pt x="69" y="400" on="0"/>
        <pt x="117" y="398" on="0"/>
        <pt x="168" y="396" on="0"/>
        <pt x="220" y="392" on="0"/>
        <pt x="244" y="391" on="1"/>
        <pt x="241" y="439" on="0"/>
        <pt x="236" y="541" on="0"/>
        <pt x="236" y="591" on="1"/>
        <pt x="236" y="663" on="1"/>
        <pt x="284" y="663" on="1"/>
        <pt x="284" y="591" on="1"/>
        <pt x="284" y="541" on="0"/>
        <pt x="279" y="439" on="0"/>
        <pt x="276" y="391" on="1"/>
        <pt x="325" y="394" on="0"/>
        <pt x="431" y="400" on="0"/>
        <pt x="470" y="400" on="1"/>
        <pt x="485" y="400" on="1"/>
        <pt x="485" y="355" on="1"/>
        <pt x="470" y="355" on="1"/>
        <pt x="450" y="355" on="0"/>
        <pt x="403" y="357" on="0"/>
        <pt x="352" y="359" on="0"/>
        <pt x="300" y="362" on="0"/>
        <pt x="276" y="364" on="1"/>
        <pt x="279" y="322" on="0"/>
        <pt x="282" y="270" on="0"/>
        <pt x="283" y="238" on="0"/>
        <pt x="284" y="223" on="0"/>
      </contour>
    </TTGlyph>
    <TTGlyph name="dcaron" xMin="45" yMin="-8" xMax="628" yMax="709">
      <component glyphName="d" x="0" y="0" flags="0x4"/>
      <component glyphName="commaaccent" x="391" y="767" flags="0x4"/>
    </TTGlyph>
    <TTGlyph name="dcroat" xMin="45" yMin="-8" xMax="562" yMax="709">
      <contour>
        <pt x="439" y="586" on="1"/>
        <pt x="238" y="586" on="1"/>
        <pt x="238" y="625" on="1"/>
        <pt x="439" y="625" on="1"/>
        <pt x="439" y="709" on="1"/>
        <pt x="490" y="709" on="1"/>
        <pt x="490" y="623" on="1"/>
        <pt x="562" y="611" on="1"/>
        <pt x="562" y="586" on="1"/>
        <pt x="490" y="586" on="1"/>
        <pt x="490" y="0" on="1"/>
        <pt x="457" y="0" on="1"/>
        <pt x="442" y="57" on="1"/>
        <pt x="405" y="36" on="1"/>
        <pt x="327" y="-8" on="0"/>
        <pt x="257" y="-8" on="1"/>
        <pt x="207" y="-8" on="0"/>
        <pt x="129" y="32" on="0"/>
        <pt x="74" y="100" on="0"/>
        <pt x="45" y="192" on="0"/>
        <pt x="45" y="244" on="1"/>
        <pt x="45" y="300" on="0"/>
        <pt x="80" y="393" on="0"/>
        <pt x="141" y="459" on="0"/>
        <pt x="222" y="496" on="0"/>
        <pt x="268" y="496" on="1"/>
        <pt x="308" y="496" on="0"/>
        <pt x="392" y="466" on="0"/>
        <pt x="439" y="434" on="1"/>
      </contour>
      <contour>
        <pt x="439" y="382" on="1"/>
        <pt x="439" y="393" on="0"/>
        <pt x="430" y="399" on="1"/>
        <pt x="395" y="422" on="0"/>
        <pt x="314" y="451" on="0"/>
        <pt x="274" y="451" on="1"/>
        <pt x="188" y="451" on="0"/>
        <pt x="98" y="340" on="0"/>
        <pt x="98" y="244" on="1"/>
        <pt x="98" y="142" on="0"/>
        <pt x="189" y="37" on="0"/>
        <pt x="261" y="37" on="1"/>
        <pt x="303" y="37" on="0"/>
        <pt x="391" y="66" on="0"/>
        <pt x="430" y="89" on="1"/>
        <pt x="436" y="93" on="0"/>
        <pt x="439" y="100" on="0"/>
        <pt x="439" y="105" on="1"/>
      </contour>
    </TTGlyph>
    <TTGlyph name="degree" xMin="48" yMin="351" xMax="366" yMax="673">
      <contour>
        <pt x="366" y="512" on="1"/>
        <pt x="366" y="477" on="0"/>
        <pt x="342" y="419" on="0"/>
        <pt x="299" y="375" on="0"/>
        <pt x="241" y="351" on="0"/>
        <pt x="207" y="351" on="1"/>
        <pt x="173" y="351" on="0"/>
        <pt x="115" y="375" on="0"/>
        <pt x="72" y="419" on="0"/>
        <pt x="48" y="477" on="0"/>
        <pt x="48" y="512" on="1"/>
        <pt x="48" y="546" on="0"/>
        <pt x="72" y="605" on="0"/>
        <pt x="115" y="649" on="0"/>
        <pt x="173" y="673" on="0"/>
        <pt x="207" y="673" on="1"/>
        <pt x="241" y="673" on="0"/>
        <pt x="299" y="649" on="0"/>
        <pt x="342" y="605" on="0"/>
        <pt x="366" y="546" on="0"/>
      </contour>
      <contour>
        <pt x="318" y="512" on="1"/>
        <pt x="318" y="572" on="0"/>
        <pt x="253" y="630" on="0"/>
        <pt x="207" y="630" on="1"/>
        <pt x="161" y="630" on="0"/>
        <pt x="96" y="572" on="0"/>
        <pt x="96" y="512" on="1"/>
        <pt x="96" y="452" on="0"/>
        <pt x="161" y="394" on="0"/>
        <pt x="207" y="394" on="1"/>
        <pt x="253" y="394" on="0"/>
        <pt x="318" y="452" on="0"/>
      </contour>
    </TTGlyph>
    <TTGlyph name="dieresis" xMin="73" yMin="572" xMax="311" yMax="646">
      <contour>
        <pt x="73" y="646" on="1"/>
        <pt x="130" y="646" on="1"/>
        <pt x="139" y="646" on="0"/>
        <pt x="144" y="642" on="0"/>
        <pt x="144" y="635" on="1"/>
        <pt x="144" y="572" on="1"/>
        <pt x="73" y="572" on="1"/>
      </contour>
      <contour>
        <pt x="240" y="646" on="1"/>
        <pt x="297" y="646" on="1"/>
        <pt x="306" y="646" on="0"/>
        <pt x="311" y="642" on="0"/>
        <pt x="311" y="635" on="1"/>
        <pt x="311" y="572" on="1"/>
        <pt x="240" y="572" on="1"/>
      </contour>
    </TTGlyph>
    <TTGlyph name="dieresis.cap" xMin="73" yMin="752" xMax="311" yMax="826">
      <contour>
        <pt x="73" y="826" on="1"/>
        <pt x="130" y="826" on="1"/>
        <pt x="139" y="826" on="0"/>
        <pt x="144" y="822" on="0"/>
        <pt x="144" y="815" on="1"/>
        <pt x="144" y="752" on="1"/>
        <pt x="73" y="752" on="1"/>
      </contour>
      <contour>
        <pt x="240" y="826" on="1"/>
        <pt x="297" y="826" on="1"/>
        <pt x="306" y="826" on="0"/>
        <pt x="311" y="822" on="0"/>
        <pt x="311" y="815" on="1"/>
        <pt x="311" y="752" on="1"/>
        <pt x="240" y="752" on="1"/>
      </contour>
    </TTGlyph>
    <TTGlyph name="divide" xMin="82" yMin="56" xMax="437" yMax="436">
      <contour>
        <pt x="437" y="266" on="1"/>
        <pt x="437" y="225" on="1"/>
        <pt x="82" y="225" on="1"/>
        <pt x="82" y="266" on="1"/>
      </contour>
      <contour>
        <pt x="227" y="126" on="1"/>
        <pt x="278" y="126" on="1"/>
        <pt x="288" y="126" on="0"/>
        <pt x="293" y="123" on="0"/>
        <pt x="293" y="116" on="1"/>
        <pt x="293" y="56" on="1"/>
        <pt x="227" y="56" on="1"/>
      </contour>
      <contour>
        <pt x="227" y="436" on="1"/>
        <pt x="278" y="436" on="1"/>
        <pt x="288" y="436" on="0"/>
        <pt x="293" y="433" on="0"/>
        <pt x="293" y="425" on="1"/>
        <pt x="293" y="365" on="1"/>
        <pt x="227" y="365" on="1"/>
      </contour>
    </TTGlyph>
    <TTGlyph name="dollar" xMin="66" yMin="-104" xMax="519" yMax="766">
      <contour>
        <pt x="141" y="60" on="1"/>
        <pt x="216" y="36" on="0"/>
        <pt x="282" y="36" on="1"/>
        <pt x="282" y="337" on="1"/>
        <pt x="252" y="348" on="1"/>
        <pt x="205" y="365" on="0"/>
        <pt x="140" y="401" on="0"/>
        <pt x="99" y="442" on="0"/>
        <pt x="80" y="490" on="0"/>
        <pt x="80" y="519" on="1"/>
        <pt x="80" y="591" on="0"/>
        <pt x="191" y="671" on="0"/>
        <pt x="282" y="673" on="1"/>
        <pt x="288" y="766" on="1"/>
        <pt x="324" y="766" on="1"/>
        <pt x="324" y="672" on="1"/>
        <pt x="364" y="669" on="0"/>
        <pt x="453" y="650" on="0"/>
        <pt x="491" y="636" on="1"/>
        <pt x="481" y="605" on="1"/>
        <pt x="432" y="613" on="1"/>
        <pt x="403" y="618" on="0"/>
        <pt x="350" y="624" on="0"/>
        <pt x="324" y="625" on="1"/>
        <pt x="324" y="373" on="1"/>
        <pt x="340" y="367" on="1"/>
        <pt x="380" y="352" on="0"/>
        <pt x="447" y="318" on="0"/>
        <pt x="493" y="275" on="0"/>
        <pt x="519" y="218" on="0"/>
        <pt x="519" y="180" on="1"/>
        <pt x="519" y="139" on="0"/>
        <pt x="490" y="74" on="0"/>
        <pt x="438" y="26" on="0"/>
        <pt x="366" y="-4" on="0"/>
        <pt x="324" y="-8" on="1"/>
        <pt x="318" y="-104" on="1"/>
        <pt x="282" y="-104" on="1"/>
        <pt x="282" y="-10" on="1"/>
        <pt x="256" y="-9" on="0"/>
        <pt x="198" y="0" on="0"/>
        <pt x="141" y="15" on="0"/>
        <pt x="87" y="36" on="0"/>
        <pt x="66" y="49" on="1"/>
        <pt x="80" y="78" on="1"/>
      </contour>
      <contour>
        <pt x="324" y="38" on="1"/>
        <pt x="395" y="47" on="0"/>
        <pt x="468" y="125" on="0"/>
        <pt x="468" y="182" on="1"/>
        <pt x="468" y="209" on="0"/>
        <pt x="452" y="248" on="0"/>
        <pt x="417" y="280" on="0"/>
        <pt x="362" y="307" on="0"/>
        <pt x="324" y="321" on="1"/>
      </contour>
      <contour>
        <pt x="129" y="520" on="1"/>
        <pt x="129" y="496" on="0"/>
        <pt x="147" y="460" on="0"/>
        <pt x="182" y="432" on="0"/>
        <pt x="234" y="406" on="0"/>
        <pt x="269" y="393" on="1"/>
        <pt x="282" y="388" on="1"/>
        <pt x="282" y="626" on="1"/>
        <pt x="213" y="624" on="0"/>
        <pt x="129" y="574" on="0"/>
      </contour>
    </TTGlyph>
    <TTGlyph name="dollar.lprop" xMin="52" yMin="-104" xMax="505" yMax="766">
      <component glyphName="dollar" x="-14" y="0" flags="0x4"/>
    </TTGlyph>
    <TTGlyph name="dollar.oprop" xMin="61" yMin="-104" xMax="432" yMax="599">
      <component glyphName="dollar.otab" x="-54" y="0" flags="0x4"/>
    </TTGlyph>
    <TTGlyph name="dollar.otab" xMin="115" yMin="-104" xMax="486" yMax="599">
      <contour>
        <pt x="406" y="444" on="1"/>
        <pt x="386" y="447" on="0"/>
        <pt x="347" y="452" on="0"/>
        <pt x="329" y="453" on="1"/>
        <pt x="329" y="275" on="1"/>
        <pt x="352" y="268" on="1"/>
        <pt x="421" y="248" on="0"/>
        <pt x="486" y="189" on="0"/>
        <pt x="486" y="137" on="1"/>
        <pt x="486" y="75" on="0"/>
        <pt x="398" y="-2" on="0"/>
        <pt x="329" y="-7" on="1"/>
        <pt x="324" y="-104" on="1"/>
        <pt x="291" y="-104" on="1"/>
        <pt x="291" y="-7" on="1"/>
        <pt x="244" y="-4" on="0"/>
        <pt x="149" y="26" on="0"/>
        <pt x="115" y="46" on="1"/>
        <pt x="130" y="72" on="1"/>
        <pt x="166" y="60" on="1"/>
        <pt x="235" y="37" on="0"/>
        <pt x="291" y="34" on="1"/>
        <pt x="291" y="239" on="1"/>
        <pt x="256" y="250" on="1"/>
        <pt x="196" y="267" on="0"/>
        <pt x="129" y="325" on="0"/>
        <pt x="129" y="374" on="1"/>
        <pt x="129" y="401" on="0"/>
        <pt x="154" y="445" on="0"/>
        <pt x="198" y="476" on="0"/>
        <pt x="257" y="493" on="0"/>
        <pt x="291" y="495" on="1"/>
        <pt x="296" y="599" on="1"/>
        <pt x="329" y="599" on="1"/>
        <pt x="329" y="495" on="1"/>
        <pt x="362" y="493" on="0"/>
        <pt x="433" y="477" on="0"/>
        <pt x="467" y="463" on="1"/>
        <pt x="458" y="435" on="1"/>
      </contour>
      <contour>
        <pt x="329" y="228" on="1"/>
        <pt x="329" y="34" on="1"/>
        <pt x="383" y="39" on="0"/>
        <pt x="440" y="94" on="0"/>
        <pt x="440" y="136" on="1"/>
        <pt x="440" y="172" on="0"/>
        <pt x="392" y="210" on="0"/>
        <pt x="334" y="227" on="1"/>
      </contour>
      <contour>
        <pt x="175" y="375" on="1"/>
        <pt x="175" y="341" on="0"/>
        <pt x="226" y="305" on="0"/>
        <pt x="280" y="289" on="1"/>
        <pt x="291" y="286" on="1"/>
        <pt x="291" y="453" on="1"/>
        <pt x="268" y="452" on="0"/>
        <pt x="227" y="442" on="0"/>
        <pt x="194" y="424" on="0"/>
        <pt x="175" y="395" on="0"/>
      </contour>
    </TTGlyph>
    <TTGlyph name="dotaccent" xMin="153" yMin="570" xMax="231" yMax="648">
      <contour>
        <pt x="153" y="648" on="1"/>
        <pt x="217" y="648" on="1"/>
        <pt x="226" y="648" on="0"/>
        <pt x="231" y="643" on="0"/>
        <pt x="231" y="635" on="1"/>
        <pt x="231" y="570" on="1"/>
        <pt x="153" y="570" on="1"/>
      </contour>
    </TTGlyph>
    <TTGlyph name="dotaccent.cap" xMin="153" yMin="740" xMax="231" yMax="818">
      <contour>
        <pt x="153" y="818" on="1"/>
        <pt x="217" y="818" on="1"/>
        <pt x="226" y="818" on="0"/>
        <pt x="231" y="813" on="0"/>
        <pt x="231" y="805" on="1"/>
        <pt x="231" y="740" on="1"/>
        <pt x="153" y="740" on="1"/>
      </contour>
    </TTGlyph>
    <TTGlyph name="dotlessi" xMin="80" yMin="0" xMax="131" yMax="488">
      <contour>
        <pt x="80" y="488" on="1"/>
        <pt x="131" y="488" on="1"/>
        <pt x="131" y="0" on="1"/>
        <pt x="80" y="0" on="1"/>
      </contour>
    </TTGlyph>
    <TTGlyph name="e" xMin="44" yMin="-8" xMax="491" yMax="496">
      <contour>
        <pt x="280" y="-8" on="1"/>
        <pt x="226" y="-8" on="0"/>
        <pt x="139" y="31" on="0"/>
        <pt x="77" y="99" on="0"/>
        <pt x="44" y="191" on="0"/>
        <pt x="44" y="244" on="1"/>
        <pt x="44" y="297" on="0"/>
        <pt x="77" y="389" on="0"/>
        <pt x="137" y="457" on="0"/>
        <pt x="221" y="496" on="0"/>
        <pt x="272" y="496" on="1"/>
        <pt x="320" y="496" on="0"/>
        <pt x="400" y="460" on="0"/>
        <pt x="458" y="397" on="0"/>
        <pt x="491" y="313" on="0"/>
        <pt x="491" y="264" on="1"/>
        <pt x="491" y="246" on="0"/>
        <pt x="484" y="235" on="0"/>
        <pt x="476" y="235" on="1"/>
        <pt x="96" y="235" on="1"/>
        <pt x="98" y="193" on="0"/>
        <pt x="122" y="121" on="0"/>
        <pt x="168" y="68" on="0"/>
        <pt x="237" y="37" on="0"/>
        <pt x="284" y="37" on="1"/>
        <pt x="316" y="37" on="0"/>
        <pt x="385" y="55" on="0"/>
        <pt x="417" y="70" on="1"/>
        <pt x="468" y="94" on="1"/>
        <pt x="485" y="69" on="1"/>
        <pt x="434" y="32" on="0"/>
        <pt x="329" y="-8" on="0"/>
      </contour>
      <contour>
        <pt x="442" y="274" on="1"/>
        <pt x="437" y="361" on="0"/>
        <pt x="344" y="452" on="0"/>
        <pt x="272" y="452" on="1"/>
        <pt x="199" y="452" on="0"/>
        <pt x="104" y="359" on="0"/>
        <pt x="97" y="274" on="1"/>
      </contour>
    </TTGlyph>
    <TTGlyph name="eacute" xMin="44" yMin="-8" xMax="491" yMax="701">
      <component glyphName="e" x="0" y="0" flags="0x204"/>
      <component glyphName="acute" x="88" y="0" flags="0x4"/>
    </TTGlyph>
    <TTGlyph name="ebreve" xMin="44" yMin="-8" xMax="491" yMax="681">
      <component glyphName="e" x="0" y="0" flags="0x204"/>
      <component glyphName="breve" x="80" y="0" flags="0x4"/>
    </TTGlyph>
    <TTGlyph name="ecaron" xMin="44" yMin="-8" xMax="491" yMax="699">
      <component glyphName="e" x="0" y="0" flags="0x204"/>
      <component glyphName="caron" x="82" y="0" flags="0x4"/>
    </TTGlyph>
    <TTGlyph name="ecircumflex" xMin="44" yMin="-8" xMax="491" yMax="699">
      <component glyphName="e" x="0" y="0" flags="0x204"/>
      <component glyphName="circumflex" x="82" y="0" flags="0x4"/>
    </TTGlyph>
    <TTGlyph name="edieresis" xMin="44" yMin="-8" xMax="491" yMax="646">
      <component glyphName="e" x="0" y="0" flags="0x204"/>
      <component glyphName="dieresis" x="81" y="0" flags="0x4"/>
    </TTGlyph>
    <TTGlyph name="edotaccent" xMin="44" yMin="-8" xMax="491" yMax="648">
      <component glyphName="e" x="0" y="0" flags="0x204"/>
      <component glyphName="dotaccent" x="82" y="0" flags="0x4"/>
    </TTGlyph>
    <TTGlyph name="egrave" xMin="44" yMin="-8" xMax="491" yMax="702">
      <component glyphName="e" x="0" y="0" flags="0x204"/>
      <component glyphName="grave" x="85" y="0" flags="0x4"/>
    </TTGlyph>
    <TTGlyph name="eight" xMin="54" yMin="-10" xMax="541" yMax="673">
      <contour>
        <pt x="541" y="179" on="1"/>
        <pt x="541" y="140" on="0"/>
        <pt x="504" y="71" on="0"/>
        <pt x="440" y="20" on="0"/>
        <pt x="351" y="-10" on="0"/>
        <pt x="299" y="-10" on="1"/>
        <pt x="249" y="-10" on="0"/>
        <pt x="160" y="19" on="0"/>
        <pt x="93" y="71" on="0"/>
        <pt x="54" y="143" on="0"/>
        <pt x="54" y="187" on="1"/>
        <pt x="54" y="246" on="0"/>
        <pt x="130" y="345" on="0"/>
        <pt x="184" y="382" on="1"/>
        <pt x="146" y="404" on="0"/>
        <pt x="93" y="466" on="0"/>
        <pt x="93" y="514" on="1"/>
        <pt x="93" y="551" on="0"/>
        <pt x="129" y="610" on="0"/>
        <pt x="187" y="651" on="0"/>
        <pt x="263" y="673" on="0"/>
        <pt x="303" y="673" on="1"/>
        <pt x="343" y="673" on="0"/>
        <pt x="418" y="651" on="0"/>
        <pt x="476" y="609" on="0"/>
        <pt x="510" y="549" on="0"/>
        <pt x="510" y="512" on="1"/>
        <pt x="510" y="464" on="0"/>
        <pt x="449" y="378" on="0"/>
        <pt x="401" y="338" on="1"/>
        <pt x="431" y="324" on="0"/>
        <pt x="483" y="293" on="0"/>
        <pt x="520" y="255" on="0"/>
        <pt x="541" y="208" on="0"/>
      </contour>
      <contour>
        <pt x="103" y="189" on="1"/>
        <pt x="103" y="157" on="0"/>
        <pt x="131" y="101" on="0"/>
        <pt x="183" y="59" on="0"/>
        <pt x="255" y="35" on="0"/>
        <pt x="300" y="35" on="1"/>
        <pt x="340" y="35" on="0"/>
        <pt x="410" y="56" on="0"/>
        <pt x="463" y="94" on="0"/>
        <pt x="493" y="146" on="0"/>
        <pt x="493" y="177" on="1"/>
        <pt x="493" y="206" on="0"/>
        <pt x="464" y="249" on="0"/>
        <pt x="415" y="284" on="0"/>
        <pt x="350" y="313" on="0"/>
        <pt x="315" y="327" on="1"/>
        <pt x="234" y="360" on="1"/>
        <pt x="222" y="365" on="0"/>
        <pt x="210" y="356" on="1"/>
        <pt x="162" y="321" on="0"/>
        <pt x="103" y="240" on="0"/>
      </contour>
      <contour>
        <pt x="464" y="510" on="1"/>
        <pt x="464" y="538" on="0"/>
        <pt x="439" y="582" on="0"/>
        <pt x="395" y="612" on="0"/>
        <pt x="336" y="627" on="0"/>
        <pt x="303" y="627" on="1"/>
        <pt x="271" y="627" on="0"/>
        <pt x="213" y="613" on="0"/>
        <pt x="167" y="585" on="0"/>
        <pt x="140" y="543" on="0"/>
        <pt x="140" y="514" on="1"/>
        <pt x="140" y="491" on="0"/>
        <pt x="161" y="456" on="0"/>
        <pt x="194" y="428" on="0"/>
        <pt x="237" y="405" on="0"/>
        <pt x="260" y="396" on="1"/>
        <pt x="347" y="360" on="1"/>
        <pt x="360" y="355" on="0"/>
        <pt x="370" y="362" on="1"/>
        <pt x="387" y="376" on="0"/>
        <pt x="421" y="410" on="0"/>
        <pt x="448" y="448" on="0"/>
        <pt x="464" y="489" on="0"/>
      </contour>
    </TTGlyph>
    <TTGlyph name="eight.lprop" xMin="48" yMin="-10" xMax="535" yMax="673">
      <contour>
        <pt x="535" y="179" on="1"/>
        <pt x="535" y="140" on="0"/>
        <pt x="498" y="71" on="0"/>
        <pt x="434" y="20" on="0"/>
        <pt x="345" y="-10" on="0"/>
        <pt x="293" y="-10" on="1"/>
        <pt x="243" y="-10" on="0"/>
        <pt x="154" y="19" on="0"/>
        <pt x="87" y="71" on="0"/>
        <pt x="48" y="143" on="0"/>
        <pt x="48" y="187" on="1"/>
        <pt x="48" y="246" on="0"/>
        <pt x="124" y="345" on="0"/>
        <pt x="178" y="382" on="1"/>
        <pt x="140" y="404" on="0"/>
        <pt x="87" y="466" on="0"/>
        <pt x="87" y="514" on="1"/>
        <pt x="87" y="551" on="0"/>
        <pt x="123" y="610" on="0"/>
        <pt x="181" y="651" on="0"/>
        <pt x="257" y="673" on="0"/>
        <pt x="297" y="673" on="1"/>
        <pt x="337" y="673" on="0"/>
        <pt x="412" y="651" on="0"/>
        <pt x="470" y="609" on="0"/>
        <pt x="504" y="549" on="0"/>
        <pt x="504" y="512" on="1"/>
        <pt x="504" y="464" on="0"/>
        <pt x="443" y="378" on="0"/>
        <pt x="395" y="338" on="1"/>
        <pt x="425" y="324" on="0"/>
        <pt x="477" y="293" on="0"/>
        <pt x="514" y="255" on="0"/>
        <pt x="535" y="208" on="0"/>
      </contour>
      <contour>
        <pt x="97" y="189" on="1"/>
        <pt x="97" y="157" on="0"/>
        <pt x="125" y="101" on="0"/>
        <pt x="177" y="59" on="0"/>
        <pt x="249" y="35" on="0"/>
        <pt x="294" y="35" on="1"/>
        <pt x="334" y="35" on="0"/>
        <pt x="404" y="56" on="0"/>
        <pt x="457" y="94" on="0"/>
        <pt x="487" y="146" on="0"/>
        <pt x="487" y="177" on="1"/>
        <pt x="487" y="206" on="0"/>
        <pt x="458" y="249" on="0"/>
        <pt x="409" y="284" on="0"/>
        <pt x="344" y="313" on="0"/>
        <pt x="309" y="327" on="1"/>
        <pt x="228" y="360" on="1"/>
        <pt x="216" y="365" on="0"/>
        <pt x="204" y="356" on="1"/>
        <pt x="156" y="321" on="0"/>
        <pt x="97" y="240" on="0"/>
      </contour>
      <contour>
        <pt x="458" y="510" on="1"/>
        <pt x="458" y="538" on="0"/>
        <pt x="433" y="582" on="0"/>
        <pt x="389" y="612" on="0"/>
        <pt x="330" y="627" on="0"/>
        <pt x="297" y="627" on="1"/>
        <pt x="265" y="627" on="0"/>
        <pt x="207" y="613" on="0"/>
        <pt x="161" y="585" on="0"/>
        <pt x="134" y="543" on="0"/>
        <pt x="134" y="514" on="1"/>
        <pt x="134" y="491" on="0"/>
        <pt x="155" y="456" on="0"/>
        <pt x="188" y="428" on="0"/>
        <pt x="231" y="405" on="0"/>
        <pt x="254" y="396" on="1"/>
        <pt x="341" y="360" on="1"/>
        <pt x="354" y="355" on="0"/>
        <pt x="364" y="362" on="1"/>
        <pt x="381" y="376" on="0"/>
        <pt x="415" y="410" on="0"/>
        <pt x="442" y="448" on="0"/>
        <pt x="458" y="489" on="0"/>
      </contour>
    </TTGlyph>
    <TTGlyph name="eight.oprop" xMin="41" yMin="-8" xMax="526" yMax="673">
      <contour>
        <pt x="526" y="179" on="1"/>
        <pt x="526" y="140" on="0"/>
        <pt x="490" y="72" on="0"/>
        <pt x="426" y="21" on="0"/>
        <pt x="338" y="-8" on="0"/>
        <pt x="286" y="-8" on="1"/>
        <pt x="236" y="-8" on="0"/>
        <pt x="148" y="20" on="0"/>
        <pt x="80" y="72" on="0"/>
        <pt x="41" y="143" on="0"/>
        <pt x="41" y="187" on="1"/>
        <pt x="41" y="217" on="0"/>
        <pt x="62" y="272" on="0"/>
        <pt x="99" y="322" on="0"/>
        <pt x="147" y="365" on="0"/>
        <pt x="174" y="383" on="1"/>
        <pt x="136" y="406" on="0"/>
        <pt x="80" y="469" on="0"/>
        <pt x="80" y="515" on="1"/>
        <pt x="80" y="552" on="0"/>
        <pt x="116" y="611" on="0"/>
        <pt x="175" y="651" on="0"/>
        <pt x="250" y="673" on="0"/>
        <pt x="290" y="673" on="1"/>
        <pt x="330" y="673" on="0"/>
        <pt x="405" y="650" on="0"/>
        <pt x="461" y="608" on="0"/>
        <pt x="495" y="548" on="0"/>
        <pt x="495" y="511" on="1"/>
        <pt x="495" y="463" on="0"/>
        <pt x="433" y="375" on="0"/>
        <pt x="384" y="337" on="1"/>
        <pt x="447" y="309" on="0"/>
        <pt x="526" y="237" on="0"/>
      </contour>
      <contour>
        <pt x="90" y="189" on="1"/>
        <pt x="90" y="157" on="0"/>
        <pt x="118" y="101" on="0"/>
        <pt x="170" y="59" on="0"/>
        <pt x="242" y="35" on="0"/>
        <pt x="287" y="35" on="1"/>
        <pt x="327" y="35" on="0"/>
        <pt x="397" y="56" on="0"/>
        <pt x="449" y="94" on="0"/>
        <pt x="478" y="146" on="0"/>
        <pt x="478" y="177" on="1"/>
        <pt x="478" y="206" on="0"/>
        <pt x="450" y="248" on="0"/>
        <pt x="402" y="282" on="0"/>
        <pt x="338" y="311" on="0"/>
        <pt x="302" y="326" on="1"/>
        <pt x="221" y="360" on="1"/>
        <pt x="209" y="365" on="0"/>
        <pt x="197" y="356" on="1"/>
        <pt x="149" y="321" on="0"/>
        <pt x="90" y="237" on="0"/>
      </contour>
      <contour>
        <pt x="448" y="509" on="1"/>
        <pt x="448" y="537" on="0"/>
        <pt x="424" y="581" on="0"/>
        <pt x="382" y="613" on="0"/>
        <pt x="324" y="630" on="0"/>
        <pt x="290" y="630" on="1"/>
        <pt x="258" y="630" on="0"/>
        <pt x="199" y="615" on="0"/>
        <pt x="154" y="586" on="0"/>
        <pt x="127" y="542" on="0"/>
        <pt x="127" y="514" on="1"/>
        <pt x="127" y="491" on="0"/>
        <pt x="148" y="456" on="0"/>
        <pt x="181" y="427" on="0"/>
        <pt x="224" y="404" on="0"/>
        <pt x="247" y="395" on="1"/>
        <pt x="334" y="358" on="1"/>
        <pt x="347" y="353" on="0"/>
        <pt x="358" y="361" on="1"/>
        <pt x="375" y="375" on="0"/>
        <pt x="408" y="409" on="0"/>
        <pt x="433" y="447" on="0"/>
        <pt x="448" y="488" on="0"/>
      </contour>
    </TTGlyph>
    <TTGlyph name="eight.otab" xMin="56" yMin="-8" xMax="541" yMax="673">
      <contour>
        <pt x="541" y="179" on="1"/>
        <pt x="541" y="140" on="0"/>
        <pt x="505" y="72" on="0"/>
        <pt x="441" y="21" on="0"/>
        <pt x="353" y="-8" on="0"/>
        <pt x="301" y="-8" on="1"/>
        <pt x="251" y="-8" on="0"/>
        <pt x="163" y="20" on="0"/>
        <pt x="95" y="72" on="0"/>
        <pt x="56" y="143" on="0"/>
        <pt x="56" y="187" on="1"/>
        <pt x="56" y="217" on="0"/>
        <pt x="77" y="272" on="0"/>
        <pt x="114" y="322" on="0"/>
        <pt x="162" y="365" on="0"/>
        <pt x="189" y="383" on="1"/>
        <pt x="151" y="406" on="0"/>
        <pt x="95" y="469" on="0"/>
        <pt x="95" y="515" on="1"/>
        <pt x="95" y="552" on="0"/>
        <pt x="131" y="611" on="0"/>
        <pt x="190" y="651" on="0"/>
        <pt x="265" y="673" on="0"/>
        <pt x="305" y="673" on="1"/>
        <pt x="345" y="673" on="0"/>
        <pt x="420" y="651" on="0"/>
        <pt x="476" y="609" on="0"/>
        <pt x="510" y="549" on="0"/>
        <pt x="510" y="512" on="1"/>
        <pt x="510" y="464" on="0"/>
        <pt x="448" y="375" on="0"/>
        <pt x="399" y="337" on="1"/>
        <pt x="462" y="309" on="0"/>
        <pt x="541" y="237" on="0"/>
      </contour>
      <contour>
        <pt x="105" y="189" on="1"/>
        <pt x="105" y="157" on="0"/>
        <pt x="133" y="101" on="0"/>
        <pt x="185" y="59" on="0"/>
        <pt x="257" y="35" on="0"/>
        <pt x="302" y="35" on="1"/>
        <pt x="342" y="35" on="0"/>
        <pt x="412" y="56" on="0"/>
        <pt x="464" y="94" on="0"/>
        <pt x="493" y="146" on="0"/>
        <pt x="493" y="177" on="1"/>
        <pt x="493" y="206" on="0"/>
        <pt x="465" y="248" on="0"/>
        <pt x="417" y="282" on="0"/>
        <pt x="353" y="311" on="0"/>
        <pt x="317" y="326" on="1"/>
        <pt x="236" y="360" on="1"/>
        <pt x="224" y="365" on="0"/>
        <pt x="212" y="356" on="1"/>
        <pt x="164" y="321" on="0"/>
        <pt x="105" y="237" on="0"/>
      </contour>
      <contour>
        <pt x="463" y="510" on="1"/>
        <pt x="463" y="538" on="0"/>
        <pt x="439" y="582" on="0"/>
        <pt x="397" y="613" on="0"/>
        <pt x="339" y="630" on="0"/>
        <pt x="305" y="630" on="1"/>
        <pt x="273" y="630" on="0"/>
        <pt x="214" y="615" on="0"/>
        <pt x="169" y="586" on="0"/>
        <pt x="142" y="542" on="0"/>
        <pt x="142" y="514" on="1"/>
        <pt x="142" y="491" on="0"/>
        <pt x="163" y="456" on="0"/>
        <pt x="196" y="427" on="0"/>
        <pt x="239" y="404" on="0"/>
        <pt x="262" y="395" on="1"/>
        <pt x="349" y="358" on="1"/>
        <pt x="362" y="353" on="0"/>
        <pt x="373" y="361" on="1"/>
        <pt x="390" y="375" on="0"/>
        <pt x="423" y="409" on="0"/>
        <pt x="448" y="447" on="0"/>
        <pt x="463" y="489" on="0"/>
      </contour>
    </TTGlyph>
    <TTGlyph name="ellipsis" xMin="68" yMin="0" xMax="547" yMax="71">
      <contour>
        <pt x="68" y="71" on="1"/>
        <pt x="124" y="71" on="1"/>
        <pt x="132" y="71" on="0"/>
        <pt x="137" y="67" on="0"/>
        <pt x="137" y="60" on="1"/>
        <pt x="137" y="0" on="1"/>
        <pt x="68" y="0" on="1"/>
      </contour>
      <contour>
        <pt x="273" y="71" on="1"/>
        <pt x="329" y="71" on="1"/>
        <pt x="337" y="71" on="0"/>
        <pt x="342" y="67" on="0"/>
        <pt x="342" y="60" on="1"/>
        <pt x="342" y="0" on="1"/>
        <pt x="273" y="0" on="1"/>
      </contour>
      <contour>
        <pt x="478" y="71" on="1"/>
        <pt x="534" y="71" on="1"/>
        <pt x="542" y="71" on="0"/>
        <pt x="547" y="67" on="0"/>
        <pt x="547" y="60" on="1"/>
        <pt x="547" y="0" on="1"/>
        <pt x="478" y="0" on="1"/>
      </contour>
    </TTGlyph>
    <TTGlyph name="emacron" xMin="44" yMin="-8" xMax="491" yMax="617">
      <component glyphName="e" x="0" y="0" flags="0x204"/>
      <component glyphName="macron" x="81" y="0" flags="0x4"/>
    </TTGlyph>
    <TTGlyph name="emdash" xMin="70" yMin="224" xMax="1065" yMax="265">
      <contour>
        <pt x="70" y="224" on="1"/>
        <pt x="70" y="265" on="1"/>
        <pt x="1065" y="265" on="1"/>
        <pt x="1065" y="224" on="1"/>
      </contour>
    </TTGlyph>
    <TTGlyph name="emdash.cap" xMin="70" yMin="311" xMax="1065" yMax="352">
      <component glyphName="emdash" x="0" y="87" flags="0x204"/>
    </TTGlyph>
    <TTGlyph name="endash" xMin="70" yMin="224" xMax="565" yMax="265">
      <contour>
        <pt x="70" y="224" on="1"/>
        <pt x="70" y="265" on="1"/>
        <pt x="565" y="265" on="1"/>
        <pt x="565" y="224" on="1"/>
      </contour>
    </TTGlyph>
    <TTGlyph name="endash.cap" xMin="70" yMin="311" xMax="565" yMax="352">
      <component glyphName="endash" x="0" y="87" flags="0x204"/>
    </TTGlyph>
    <TTGlyph name="eng" xMin="77" yMin="-176" xMax="483" yMax="496">
      <contour>
        <pt x="432" y="307" on="1"/>
        <pt x="432" y="349" on="0"/>
        <pt x="418" y="396" on="0"/>
        <pt x="403" y="413" on="1"/>
        <pt x="385" y="432" on="0"/>
        <pt x="327" y="449" on="0"/>
        <pt x="292" y="449" on="1"/>
        <pt x="260" y="449" on="0"/>
        <pt x="192" y="437" on="0"/>
        <pt x="155" y="423" on="1"/>
        <pt x="139" y="417" on="1"/>
        <pt x="131" y="414" on="0"/>
        <pt x="128" y="409" on="0"/>
        <pt x="128" y="403" on="1"/>
        <pt x="128" y="0" on="1"/>
        <pt x="77" y="0" on="1"/>
        <pt x="77" y="488" on="1"/>
        <pt x="112" y="488" on="1"/>
        <pt x="125" y="447" on="1"/>
        <pt x="152" y="459" on="1"/>
        <pt x="191" y="476" on="0"/>
        <pt x="264" y="496" on="0"/>
        <pt x="298" y="496" on="1"/>
        <pt x="343" y="496" on="0"/>
        <pt x="418" y="468" on="0"/>
        <pt x="441" y="444" on="1"/>
        <pt x="461" y="422" on="0"/>
        <pt x="483" y="361" on="0"/>
        <pt x="483" y="317" on="1"/>
        <pt x="483" y="-32" on="1"/>
        <pt x="483" y="-72" on="0"/>
        <pt x="467" y="-125" on="0"/>
        <pt x="450" y="-142" on="1"/>
        <pt x="417" y="-176" on="0"/>
        <pt x="353" y="-176" on="1"/>
        <pt x="339" y="-176" on="0"/>
        <pt x="303" y="-173" on="0"/>
        <pt x="289" y="-171" on="1"/>
        <pt x="289" y="-145" on="1"/>
        <pt x="330" y="-141" on="1"/>
        <pt x="359" y="-138" on="0"/>
        <pt x="399" y="-127" on="0"/>
        <pt x="410" y="-116" on="1"/>
        <pt x="423" y="-103" on="0"/>
        <pt x="432" y="-63" on="0"/>
        <pt x="432" y="-21" on="1"/>
      </contour>
    </TTGlyph>
    <TTGlyph name="eogonek" xMin="44" yMin="-180" xMax="491" yMax="496">
      <contour>
        <pt x="355" y="2" on="1"/>
        <pt x="335" y="-4" on="0"/>
        <pt x="299" y="-8" on="0"/>
        <pt x="280" y="-8" on="1"/>
        <pt x="226" y="-8" on="0"/>
        <pt x="139" y="31" on="0"/>
        <pt x="77" y="99" on="0"/>
        <pt x="44" y="191" on="0"/>
        <pt x="44" y="244" on="1"/>
        <pt x="44" y="297" on="0"/>
        <pt x="77" y="389" on="0"/>
        <pt x="137" y="457" on="0"/>
        <pt x="221" y="496" on="0"/>
        <pt x="272" y="496" on="1"/>
        <pt x="320" y="496" on="0"/>
        <pt x="400" y="460" on="0"/>
        <pt x="458" y="397" on="0"/>
        <pt x="491" y="313" on="0"/>
        <pt x="491" y="264" on="1"/>
        <pt x="491" y="246" on="0"/>
        <pt x="484" y="235" on="0"/>
        <pt x="476" y="235" on="1"/>
        <pt x="96" y="235" on="1"/>
        <pt x="98" y="193" on="0"/>
        <pt x="122" y="121" on="0"/>
        <pt x="168" y="68" on="0"/>
        <pt x="237" y="37" on="0"/>
        <pt x="284" y="37" on="1"/>
        <pt x="316" y="37" on="0"/>
        <pt x="385" y="55" on="0"/>
        <pt x="417" y="70" on="1"/>
        <pt x="468" y="94" on="1"/>
        <pt x="485" y="69" on="1"/>
        <pt x="412" y="19" on="0"/>
        <pt x="346" y="-52" on="0"/>
        <pt x="346" y="-90" on="1"/>
        <pt x="346" y="-114" on="0"/>
        <pt x="377" y="-142" on="0"/>
        <pt x="406" y="-142" on="1"/>
        <pt x="412" y="-142" on="0"/>
        <pt x="430" y="-140" on="0"/>
        <pt x="441" y="-138" on="1"/>
        <pt x="466" y="-133" on="1"/>
        <pt x="475" y="-157" on="1"/>
        <pt x="462" y="-166" on="0"/>
        <pt x="417" y="-180" on="0"/>
        <pt x="395" y="-180" on="1"/>
        <pt x="351" y="-180" on="0"/>
        <pt x="299" y="-132" on="0"/>
        <pt x="299" y="-94" on="1"/>
        <pt x="299" y="-67" on="0"/>
        <pt x="330" y="-18" on="0"/>
      </contour>
      <contour>
        <pt x="442" y="274" on="1"/>
        <pt x="437" y="361" on="0"/>
        <pt x="344" y="452" on="0"/>
        <pt x="272" y="452" on="1"/>
        <pt x="199" y="452" on="0"/>
        <pt x="104" y="359" on="0"/>
        <pt x="97" y="274" on="1"/>
      </contour>
    </TTGlyph>
    <TTGlyph name="equal" xMin="82" yMin="137" xMax="437" yMax="354">
      <contour>
        <pt x="437" y="354" on="1"/>
        <pt x="437" y="313" on="1"/>
        <pt x="82" y="313" on="1"/>
        <pt x="82" y="354" on="1"/>
      </contour>
      <contour>
        <pt x="437" y="179" on="1"/>
        <pt x="437" y="137" on="1"/>
        <pt x="82" y="137" on="1"/>
        <pt x="82" y="179" on="1"/>
      </contour>
    </TTGlyph>
</ttFont>
